<svg xmlns="http://www.w3.org/2000/svg" width="106" height="38" viewBox="0 0 106 38">
    <g fill="none">
        <path fill="#2FABF7" d="M8.9 8.982L12.526 8.982 10.713 4.368z" transform="translate(.268 .39)"/>
        <path fill="#228FE0" d="M53.895 5.027c-.33-.165-.824-.165-1.319-.165H49.28V7.5h3.296c.495 0 .99 0 1.319-.165.33-.165.494-.659.494-1.153.165-.66-.165-.99-.494-1.154z" transform="translate(.268 .39)"/>
        <path fill="#0571C1" d="M89.165.082V2.06L88.176.082H80.43V2.06L79.441.082H68.893c-1.813 0-3.296.33-4.615.99v-.99h-7.417v.99c-.824-.66-1.813-.99-3.131-.99H27.195l-1.813 4.12-1.813-4.12h-8.406V2.06L14.174.082H7.087L3.791 7.83 0 16.399H8.406l.988-2.637h2.308l.989 2.637h9.56v-1.978l.823 1.978h4.78l.824-1.978V16.4h22.91v-4.285h.329c.33 0 .33 0 .33.494v3.626h11.866v-.989c.99.495 2.473.99 4.45.99h4.945l.989-2.638h2.307l.989 2.637h9.56v-2.472l1.483 2.472h7.746V.082h-7.417zM33.458 13.927h-2.802V4.862L26.7 13.927h-2.472l-3.956-9.065v9.065H14.67l-1.154-2.472H7.91l-.989 2.637H3.791L8.735 2.39h4.12l4.615 11.042V2.39h4.45l3.626 7.911 3.297-7.911h4.615v11.537zm11.207-9.065h-6.428v2.143H44.5v2.307h-6.263v2.308h6.428v2.472h-9.23V2.39h9.23v2.472zm12.361 4.78c.33.659.495 1.153.495 2.142v2.308h-2.802v-1.484c0-.659 0-1.648-.495-2.307-.494-.494-.989-.494-1.977-.494H49.28v4.285h-2.802V2.39h6.263c1.483 0 2.472 0 3.296.494.824.495 1.319 1.319 1.319 2.637 0 1.813-1.154 2.802-1.978 3.132.824.165 1.319.66 1.648.989zm4.945 4.285h-2.802V2.225h2.802v11.702zm32.468 0h-3.955L85.21 5.192v8.735h-5.604l-.989-2.472H72.85l-.99 2.637h-3.13c-1.32 0-2.968-.33-3.956-1.319-.99-.989-1.484-2.307-1.484-4.45 0-1.648.33-3.296 1.484-4.615.824-.989 2.307-1.318 4.12-1.318h2.637v2.472h-2.637c-.989 0-1.483.165-2.143.66-.494.494-.824 1.483-.824 2.636 0 1.319.165 2.143.824 2.802.495.495 1.154.66 1.978.66h1.154l3.79-9.065h4.121l4.615 11.042V2.555h4.12l4.78 8.076V2.555h2.802v11.372h.33z" transform="translate(.268 .39)"/>
        <g fill="#228FE0">
            <path d="M32.427 4.656L36.218 4.656 34.405.041zM4.409 28.389L4.409 18.995.124 23.61z" transform="translate(.268 .39) translate(41.41 4.326)"/>
        </g>
        <path fill="#2FABF7" d="M28.183 24.475L28.183 26.618 34.282 26.618 34.282 28.925 28.183 28.925 28.183 31.397 34.941 31.397 38.072 27.936 35.106 24.475z" transform="translate(.268 .39)"/>
        <path fill="#228FE0" d="M52.082 24.475H48.62v2.967h3.626c.988 0 1.648-.495 1.648-1.484-.165-.988-.824-1.483-1.813-1.483z" transform="translate(.268 .39)"/>
        <path fill="#0571C1" d="M103.01 27.277V19.86h-6.922c-1.484 0-2.638.33-3.462.99v-.99h-7.581c-1.154 0-2.637.33-3.296.99v-.99h-13.35v.99c-.99-.825-2.802-.99-3.626-.99h-8.9v.99c-.825-.825-2.802-.99-3.791-.99h-9.89l-2.307 2.473-2.142-2.473H22.909v16.152h14.504l2.308-2.472 2.142 2.472h8.9v-3.79h1.154c1.154 0 2.637 0 3.79-.495v4.45h7.417v-4.285h.33c.494 0 .494 0 .494.494v3.791h22.415c1.484 0 2.967-.33 3.791-.989v.989h7.087c1.484 0 2.967-.165 3.956-.824 1.648-.989 2.637-2.802 2.637-4.945 0-1.153-.33-2.307-.824-3.131zm-51.093 2.637H48.62v3.956h-5.274l-3.297-3.791-3.46 3.79H25.71V22.169h11.043l3.296 3.79 3.461-3.79h8.736c2.142 0 4.614.659 4.614 3.79-.164 3.297-2.472 3.956-4.944 3.956zm16.481-.66c.33.495.495 1.154.495 2.143v2.308H66.09V32.22c0-.659 0-1.813-.494-2.307-.33-.494-.99-.494-1.978-.494h-2.967v4.285H57.85V22.003h6.263c1.319 0 2.473 0 3.297.494.824.495 1.483 1.319 1.483 2.637 0 1.813-1.154 2.802-1.978 3.132.824.33 1.319.66 1.483.989zm11.373-4.779h-6.428v2.143h6.263v2.307h-6.263v2.308h6.428v2.472h-9.23V22.003h9.23v2.472zm6.922 9.23h-5.274v-2.472h5.274c.494 0 .824 0 1.154-.33.165-.165.33-.495.33-.824 0-.33-.165-.66-.33-.824-.165-.165-.495-.33-.99-.33-2.636-.165-5.768 0-5.768-3.626 0-1.648.99-3.46 3.956-3.46h5.439v2.8h-5.11c-.494 0-.824 0-1.153.166-.33.165-.33.494-.33.824 0 .494.33.66.66.824.33.165.659.165.988.165h1.484c1.483 0 2.472.33 3.131.989.495.494.824 1.318.824 2.472 0 2.472-1.483 3.626-4.285 3.626zm14.174-1.154c-.66.66-1.813 1.154-3.46 1.154h-5.275v-2.472h5.274c.495 0 .824 0 1.154-.33.165-.165.33-.495.33-.824 0-.33-.165-.66-.33-.824-.165-.165-.495-.33-.99-.33-2.636-.165-5.768 0-5.768-3.626 0-1.648.99-3.46 3.956-3.46h5.439v2.8h-4.945c-.494 0-.824 0-1.153.166-.33.165-.33.494-.33.824 0 .494.165.66.66.824.329.165.659.165.988.165h1.484c1.483 0 2.472.33 3.131.989.165 0 .165.164.165.164.494.66.66 1.484.66 2.308 0 .989-.33 1.813-.99 2.472z" transform="translate(.268 .39)"/>
        <path fill="#228FE0" d="M65.432 24.805c-.33-.165-.824-.165-1.319-.165h-3.296v2.637h3.296c.495 0 .99 0 1.319-.165.33-.165.494-.66.494-1.154.165-.659-.165-.988-.494-1.153z" transform="translate(.268 .39)"/>
        <g fill="#228FE0">
            <path d="M12.485.7c-.33-.164-.824-.164-1.319-.164H7.87v2.637h3.296c.495 0 .99 0 1.319-.165.33-.165.494-.66.494-1.154.165-.66-.165-.989-.494-1.154zM32.427 4.656L36.218 4.656 34.405.041zM4.409 28.389L4.409 18.995.124 23.61z" transform="translate(.268 .39) translate(41.41 4.326)"/>
        </g>
        <path fill="#228FE0" d="M52.082 24.475H48.62v2.967h3.626c.988 0 1.648-.495 1.648-1.484-.165-.988-.824-1.483-1.813-1.483zM65.432 24.805c-.33-.165-.824-.165-1.319-.165h-3.296v2.637h3.296c.495 0 .99 0 1.319-.165.33-.165.494-.66.494-1.154.165-.659-.165-.988-.494-1.153z" transform="translate(.268 .39)"/>
        <g fill="#2FABF7">
            <path d="M50.928 33.375L48.621 30.903 48.621 33.705 43.182 33.705 39.885 29.914 36.259 33.705 25.382 33.705 25.382 22.168 36.424 22.168 39.885 25.958 41.534 23.981 37.413 19.86 22.909 19.86 22.909 36.012 37.413 36.012 39.885 33.54 42.028 36.012 50.928 36.012zM33.787 16.234L31.645 13.927 30.656 13.927 30.656 12.938 28.183 10.466 26.535 13.927 24.228 13.927 20.272 4.862 20.272 13.927 14.669 13.927 13.515 11.455 7.911 11.455 6.757 13.927 3.791 13.927 8.735 2.39 12.856 2.39 17.47 13.432 17.47 2.39 19.943 2.39 17.635.082 15.163.082 15.163 2.06 14.339.082 7.087.082 3.791 7.829 0 16.234 3.791 16.234 8.57 16.234 9.559 13.762 11.867 13.762 13.02 16.234 22.25 16.234 22.25 14.257 23.074 16.234 27.854 16.234 28.678 14.257 28.678 16.234z" transform="translate(.268 .39)"/>
            <path d="M26.206 8.653L23.569 6.016 25.546 10.301z" transform="translate(.268 .39)"/>
        </g>
        <g fill="#228FE0">
            <path d="M84.921 34.982c1.484-.989 2.473-2.637 2.637-4.45l-2.307-2.307c.165.494.33.989.33 1.648 0 .989-.33 1.813-.99 2.472-.659.66-1.812 1.154-3.46 1.154h-5.275v-2.472h5.275c.494 0 .824 0 1.153-.33.165-.165.33-.495.33-.824 0-.33-.165-.66-.33-.824-.165-.165-.494-.33-.989-.33-2.637-.165-5.768 0-5.768-3.626 0-1.648.989-3.131 3.46-3.46l-1.812-1.814c-.33.165-.495.33-.66.33v-.99h-7.58c-1.155 0-2.638.33-3.297.99v-.99H52.123v.99c-.989-.824-2.802-.99-3.626-.99h-8.9v.99c-.824-.824-2.802-.99-3.79-.99h-9.89l-2.307 2.473-2.143-2.472h-1.813l4.945 4.944 2.472-2.637h8.735c2.143 0 4.615.66 4.615 3.791 0 3.296-2.307 3.956-4.78 3.956h-3.296v2.472l2.472 2.472v-2.472h.824c1.154 0 2.637 0 3.791-.495v4.45h7.417v-4.285h.33c.494 0 .494 0 .494.495v3.79h22.415c1.483 0 2.967-.33 3.79-.989v.99h7.088c1.318.164 2.802 0 3.955-.66zM52.123 29.05c.33.494.494 1.153.494 2.142V33.5h-2.801v-1.484c0-.659 0-1.813-.495-2.307-.33-.494-.989-.494-1.978-.494h-2.966v4.285h-2.802V21.797h6.263c1.318 0 2.472 0 3.296.494.824.495 1.483 1.319 1.483 2.637 0 1.813-1.153 2.802-1.977 3.132.824.33 1.318.66 1.483.989zm11.372-4.78h-6.428v2.143h6.263v2.307h-6.263v2.308h6.428v2.472h-9.23V21.797h9.23v2.472zm6.922 9.23h-5.274v-2.472h5.274c.495 0 .825 0 1.154-.33.165-.165.33-.495.33-.824 0-.33-.165-.66-.33-.824-.165-.165-.494-.33-.989-.33-2.637-.165-5.768 0-5.768-3.626 0-1.648.989-3.46 3.955-3.46h5.44v2.8h-5.11c-.494 0-.824 0-1.154.166-.33.165-.33.494-.33.824 0 .494.33.66.66.824.33.165.66.165.989.165h1.483c1.483 0 2.472.33 3.132.989.494.494.824 1.318.824 2.472 0 2.472-1.484 3.626-4.286 3.626z" transform="translate(.268 .39) translate(16.276 .206)"/>
            <path d="M78.329 25.423c0 .494.164.66.659.824.33.165.66.165.989.165h1.483c.989 0 1.648.165 2.308.494l-2.473-2.472h-1.483c-.494 0-.824 0-1.154.165-.165.165-.33.494-.33.824zM72.56 15.534L72.89 16.028 73.055 16.028zM63.495 6.469L66.297 13.226 66.297 9.271z" transform="translate(.268 .39) translate(16.276 .206)"/>
            <path d="M35.312 11.908h.33c.329 0 .329 0 .329.494v3.626h11.867v-.989c.989.495 2.472.99 4.45.99h4.944l.99-2.638h2.307l.988 2.637h9.56V14.38l-2.308-2.307v1.813h-5.603l-.824-2.637h-5.769l-.989 2.637h-3.131c-1.319 0-2.967-.33-3.956-1.319-.989-.989-1.483-2.307-1.483-4.45 0-1.648.33-3.296 1.483-4.615.824-.989 2.307-1.318 4.12-1.318h2.637v2.472h-2.637c-.988 0-1.483.165-2.142.66-.495.494-.824 1.483-.824 2.636 0 1.319.165 2.143.824 2.802.494.495 1.154.66 1.978.66h1.153l3.791-9.065h1.648L56.738.04h-4.285c-1.813 0-3.297.33-4.615.99V.04h-7.252v.99c-.824-.66-1.813-.99-3.132-.99H10.92l-1.813 4.12L7.293.042H.041L2.35 2.35h3.296l2.802 6.098.989.989 2.966-7.252h4.615v11.702h-2.802V4.82l-2.802 6.592 4.78 4.78h18.954l.165-4.285zm7.581-9.724h2.802v11.702h-2.802V2.184zM28.39 4.656h-6.427v2.143h6.263v2.307h-6.263v2.307h6.427v2.473h-9.23V2.184h9.23v2.472zm4.615 9.065h-2.802V2.019h6.263c1.484 0 2.473 0 3.297.494.824.495 1.318 1.319 1.318 2.637 0 1.813-1.153 2.802-1.977 3.132.659.165 1.153.66 1.318.989.33.66.494 1.154.494 2.142v2.308h-2.801v-1.483c0-.66 0-1.649-.495-2.308-.165-.33-.66-.33-1.648-.33h-2.967v4.12z" transform="translate(.268 .39) translate(16.276 .206)"/>
        </g>
    </g>
</svg>
