<svg xmlns="http://www.w3.org/2000/svg" width="30" height="30" viewBox="0 0 30 30">
    <g fill="none">
        <path fill="#FC5271" d="M4.665 25.334S.207 18.196 7.404 11l2.072-2.072C15.03 3.373 22.021-.476 29.15.848l.002.002c1.325 7.129-2.524 14.12-8.078 19.674l-2.072 2.072c-7.197 7.197-14.335 2.74-14.335 2.74l-.001-.002z"/>
        <path fill="#389BE8" d="M29.152.85h-.002V.848c-2.572-.477-5.126-.282-7.601.425l-.285.284c-4.288 4.288-1.632 8.541-1.632 8.541s4.253 2.657 8.542-1.631l.746-.747c.545-2.246.662-4.55.232-6.87z"/>
        <path fill="#A0E070" d="M15.217 14.783s-3.682-5.896 2.227-11.856c-2.857 1.485-5.548 3.58-7.968 6l-2.072 2.072c-7.197 7.197-2.74 14.335-2.74 14.335l.002.001s7.138 4.458 14.335-2.74l2.072-2.071c2.42-2.42 4.515-5.111 6-7.968-5.96 5.91-11.856 2.227-11.856 2.227z"/>
        <path fill="#CA6CD8" d="M9.993 20.008h-.001s-3.91-6.26 1.504-12.966c-.692.601-1.366 1.231-2.02 1.885l-2.072 2.072c-7.197 7.197-2.74 14.335-2.74 14.335l.002.001s7.138 4.458 14.335-2.74l2.072-2.071c.654-.654 1.284-1.328 1.885-2.02-6.706 5.413-12.965 1.504-12.965 1.504z"/>
        <path fill="#452650" d="M29.728.743c-.022-.118-.082-.228-.168-.312l-.02-.02c-.08-.071-.178-.12-.283-.139-3.478-.646-7.103-.14-10.774 1.502-3.22 1.44-6.39 3.707-9.42 6.738L6.99 10.585c-1.704 1.704-2.916 3.553-3.603 5.495-.553 1.566-.767 3.192-.636 4.833.165 2.062.831 3.614 1.189 4.318l-1.697 1.697c-.696-1.517-2.033-5.43.04-9.918.135-.294.007-.642-.287-.778-.294-.135-.642-.007-.777.287-1.522 3.294-1.344 6.292-.926 8.226.31 1.439.79 2.51 1.072 3.06l-.923.924c-.229.229-.229.6 0 .829.114.114.264.171.414.171.15 0 .3-.057.415-.171l.923-.923c.55.282 1.622.762 3.061 1.072C6.02 29.872 6.951 30 8 30c1.606 0 3.49-.299 5.481-1.219.294-.135.422-.483.287-.777-.136-.294-.484-.422-.778-.287-2.394 1.106-4.898 1.393-7.442.855-1.075-.228-1.93-.563-2.477-.815l1.697-1.697c.704.357 2.256 1.024 4.32 1.189.312.025.624.037.935.037 1.323 0 2.63-.225 3.897-.673 1.942-.686 3.791-1.899 5.495-3.603l2.073-2.072c3.03-3.031 5.298-6.2 6.739-9.42 1.642-3.672 2.147-7.297 1.5-10.775zM28.194 8.13c-.033.021-.064.047-.092.075-1.694 1.694-3.564 2.481-5.558 2.338-.761-.055-1.4-.241-1.846-.412l8.041-8.042c.207 1.965.02 3.992-.545 6.04zm-8.456-5.603c-.447.643-.795 1.312-1.039 2-.108.305.051.64.357.748.064.023.13.034.195.034.241 0 .467-.15.553-.39.375-1.059 1.045-2.075 1.99-3.02.03-.03.055-.06.076-.094 2.049-.565 4.075-.752 6.04-.544L19.869 9.3c-.108-.28-.221-.635-.304-1.048-.063-.318-.372-.523-.69-.46-.317.063-.523.372-.46.689.15.752.387 1.345.56 1.713l-3.678 3.678c-.254-.6-.574-1.558-.661-2.736-.199-2.693.857-5.215 3.137-7.495l.434-.434c.51-.25 1.021-.477 1.531-.681zm-9.615 16.52c-.277-.612-.651-1.613-.841-2.881-.431-2.877.266-5.64 2.071-8.215 1.262-1.14 2.543-2.14 3.831-2.998-1.593 2.419-1.843 4.696-1.712 6.33.13 1.624.64 2.865.94 3.475l-4.29 4.29zm-6.208 1.719c-.252-3.364 1.061-6.51 3.903-9.352l.874-.874c-.804 2.264-.794 4.302-.57 5.8.255 1.698.809 2.969 1.122 3.586L4.82 24.351c-.327-.727-.786-1.996-.905-3.585zm14.671 1.416c-2.842 2.842-5.988 4.155-9.352 3.903-1.59-.12-2.86-.58-3.586-.905l4.425-4.425c.501.255 1.435.669 2.678.952.044.01.088.015.131.014.267 0 .509-.184.57-.456.073-.315-.125-.63-.44-.701-.878-.2-1.585-.473-2.06-.688l4.289-4.289c.566.28 1.675.738 3.129.907.023.003.046.004.068.004.294 0 .547-.22.582-.518.037-.322-.193-.613-.515-.65-1.015-.118-1.842-.4-2.38-.628l3.68-3.678c.5.236 1.418.59 2.593.683.184.015.378.023.582.023 1.242 0 2.831-.317 4.494-1.47-.205.51-.433 1.022-.683 1.534l-.433.433c-1.349 1.349-2.805 2.278-4.328 2.763-.308.098-.479.427-.38.736.078.25.31.408.557.408.06 0 .12-.009.178-.027.915-.291 1.804-.723 2.66-1.29-.858 1.29-1.859 2.57-2.998 3.833-1.61 1.127-3.318 1.828-5.08 2.082-.32.046-.542.343-.496.663.042.292.292.503.58.503.027 0 .055-.002.083-.006.785-.113 1.56-.307 2.32-.578l-.868.868z"/>
        <path fill="#000" d="M20.44 16.508l.061-.003.015-.002c.322-.035.554-.325.519-.646-.036-.322-.327-.554-.647-.519h-.008l-.003.001c-.322.034-.554.322-.52.643.03.302.286.526.583.526zM14.978 20.887h-.02c-.324 0-.586.262-.586.586 0 .323.262.586.586.586h.012c.319 0 .58-.257.585-.577.005-.324-.253-.59-.577-.595zM18.821 7.18l.054.002c.3 0 .555-.23.583-.534V6.64c.03-.322-.208-.607-.53-.636-.323-.03-.608.208-.637.53v.01c-.03.322.208.607.53.636z"/>
    </g>
</svg>
