<svg xmlns="http://www.w3.org/2000/svg" width="190" height="24" viewBox="0 0 190 24">
    <g fill="none">
        <path fill="#262626" d="M34.756 17l1.554-2.45h5.236l.588 2.45h1.386l-2.478-9.8h-1.386L33.244 17h1.512zm6.51-3.57h-4.242l3.08-4.83 1.162 4.83zm6.678 3.654c.532 0 1.024-.086 1.477-.259.453-.173.847-.432 1.183-.777l-.182.952h1.288l1.47-7.42h-1.344l-.784 3.934c-.159.775-.474 1.363-.945 1.764s-1.062.602-1.771.602c-.56 0-.982-.128-1.267-.385-.285-.257-.427-.628-.427-1.113 0-.168.023-.378.07-.63l.826-4.172h-1.344l-.826 4.158c-.056.308-.084.593-.084.854 0 .784.238 1.395.714 1.834.476.439 1.125.658 1.946.658zm8.876 0c.7 0 1.274-.154 1.722-.462l-.28-1.022c-.317.233-.672.35-1.064.35-.327 0-.572-.08-.735-.238-.163-.159-.245-.387-.245-.686 0-.121.014-.252.042-.392l.798-3.948h2.128l.224-1.106h-2.128l.322-1.624H56.26l-.322 1.624h-1.274l-.21 1.106h1.26l-.798 3.976c-.037.177-.056.364-.056.56 0 .579.18 1.034.539 1.365.36.331.833.497 1.421.497zM61.412 17l.784-3.92c.159-.784.474-1.374.945-1.771.471-.397 1.071-.595 1.799-.595.57 0 .999.13 1.288.392.29.261.434.635.434 1.12 0 .159-.023.364-.07.616L65.766 17h1.344l.826-4.158c.056-.308.084-.597.084-.868 0-.784-.236-1.39-.707-1.82-.471-.43-1.132-.644-1.981-.644-1.083 0-1.955.313-2.618.938l.77-3.836H62.14L60.068 17h1.344zm11.732.084c.579 0 1.13-.093 1.652-.28.523-.187.966-.448 1.33-.784l-.574-.966c-.27.261-.607.469-1.008.623-.401.154-.83.231-1.288.231-.784 0-1.372-.18-1.764-.539-.392-.36-.588-.884-.588-1.575v-.084h6.09c.065-.364.098-.695.098-.994 0-.99-.301-1.771-.903-2.345-.602-.574-1.407-.861-2.415-.861-.793 0-1.51.187-2.149.56-.64.373-1.139.891-1.498 1.554-.36.663-.539 1.41-.539 2.24 0 .653.145 1.223.434 1.708.29.485.7.859 1.232 1.12.532.261 1.162.392 1.89.392zm2.688-4.354h-4.788c.168-.653.49-1.167.966-1.54s1.045-.56 1.708-.56c.672 0 1.202.184 1.589.553.387.369.562.884.525 1.547zM79.5 17l.784-3.92c.159-.784.474-1.374.945-1.771.471-.397 1.071-.595 1.799-.595.57 0 .999.13 1.288.392.29.261.434.635.434 1.12 0 .159-.023.364-.07.616L83.854 17h1.344l.826-4.158c.056-.308.084-.597.084-.868 0-.784-.236-1.39-.707-1.82-.471-.43-1.132-.644-1.981-.644-1.12 0-2.016.34-2.688 1.022l.182-.952h-1.288L78.156 17H79.5zm10.738.084c.7 0 1.274-.154 1.722-.462l-.28-1.022c-.317.233-.672.35-1.064.35-.327 0-.572-.08-.735-.238-.163-.159-.245-.387-.245-.686 0-.121.014-.252.042-.392l.798-3.948h2.128l.224-1.106H90.7l.322-1.624h-1.344l-.322 1.624h-1.274l-.21 1.106h1.26l-.798 3.976c-.037.177-.056.364-.056.56 0 .579.18 1.034.539 1.365.36.331.833.497 1.421.497zm5.782-8.932c.29 0 .525-.089.707-.266.182-.177.273-.41.273-.7 0-.215-.082-.399-.245-.553-.163-.154-.366-.231-.609-.231-.28 0-.511.091-.693.273-.182.182-.273.404-.273.665 0 .224.08.415.238.574.159.159.36.238.602.238zM94.83 17l1.47-7.42h-1.344L93.486 17h1.344zm6.076.084c.663 0 1.283-.135 1.862-.406.579-.27 1.04-.644 1.386-1.12l-.98-.7c-.252.345-.572.607-.959.784-.387.177-.805.266-1.253.266-.71 0-1.258-.184-1.645-.553-.387-.369-.581-.88-.581-1.533 0-.607.126-1.148.378-1.624.252-.476.6-.847 1.043-1.113.443-.266.94-.399 1.491-.399.952 0 1.624.355 2.016 1.064l1.134-.63c-.57-1.073-1.587-1.61-3.052-1.61-.84 0-1.591.189-2.254.567-.663.378-1.18.898-1.554 1.561-.373.663-.56 1.41-.56 2.24 0 .644.145 1.206.434 1.687.29.48.7.854 1.232 1.12.532.266 1.153.399 1.862.399zm9.828-.084l1.96-9.8h-1.4l-1.96 9.8h1.4zm4.102 0l.784-3.92c.159-.784.474-1.374.945-1.771.471-.397 1.071-.595 1.799-.595.57 0 .999.13 1.288.392.29.261.434.635.434 1.12 0 .159-.023.364-.07.616L119.19 17h1.344l.826-4.158c.056-.308.084-.597.084-.868 0-.784-.236-1.39-.707-1.82-.471-.43-1.132-.644-1.981-.644-1.12 0-2.016.34-2.688 1.022l.182-.952h-1.288l-1.47 7.42h1.344zm11.452.084c.523 0 1.006-.086 1.449-.259.443-.173.833-.418 1.169-.735l-.182.91h1.288l2.072-10.388h-1.344l-.84 4.242c-.233-.439-.581-.772-1.043-1.001-.462-.229-1.01-.343-1.645-.343-.793 0-1.51.187-2.149.56-.64.373-1.141.891-1.505 1.554-.364.663-.546 1.414-.546 2.254 0 .653.14 1.223.42 1.708.28.485.667.856 1.162 1.113.495.257 1.06.385 1.694.385zm.294-1.176c-.7 0-1.244-.184-1.631-.553-.387-.369-.581-.88-.581-1.533 0-.607.126-1.148.378-1.624.252-.476.597-.847 1.036-1.113.439-.266.933-.399 1.484-.399.71 0 1.255.182 1.638.546.383.364.574.877.574 1.54 0 .607-.124 1.148-.371 1.624-.247.476-.593.847-1.036 1.113-.443.266-.94.399-1.491.399zm8.526-7.756c.29 0 .525-.089.707-.266.182-.177.273-.41.273-.7 0-.215-.082-.399-.245-.553-.163-.154-.366-.231-.609-.231-.28 0-.511.091-.693.273-.182.182-.273.404-.273.665 0 .224.08.415.238.574.159.159.36.238.602.238zM133.918 17l1.47-7.42h-1.344l-1.47 7.42h1.344zm5.418 2.8c1.25 0 2.238-.303 2.961-.91.723-.607 1.216-1.573 1.477-2.898l1.274-6.412h-1.274l-.266 1.358c-.233-.476-.595-.833-1.085-1.071s-1.052-.357-1.687-.357c-.812 0-1.54.182-2.184.546-.644.364-1.146.863-1.505 1.498-.36.635-.539 1.34-.539 2.114 0 .616.138 1.153.413 1.61.275.457.663.807 1.162 1.05.5.243 1.076.364 1.729.364 1.083 0 1.979-.34 2.688-1.022l-.112.532c-.168.821-.488 1.428-.959 1.82-.471.392-1.136.588-1.995.588-.57 0-1.094-.082-1.575-.245-.48-.163-.87-.38-1.169-.651l-.742 1.036c.401.336.891.595 1.47.777.579.182 1.218.273 1.918.273zm.742-4.284c-.69 0-1.232-.17-1.624-.511-.392-.34-.588-.814-.588-1.421 0-.55.124-1.048.371-1.491.247-.443.593-.789 1.036-1.036.443-.247.945-.371 1.505-.371.7 0 1.244.17 1.631.511.387.34.581.81.581 1.407 0 .56-.124 1.062-.371 1.505-.247.443-.593.789-1.036 1.036-.443.247-.945.371-1.505.371zm9.604 1.568c.579 0 1.13-.093 1.652-.28.523-.187.966-.448 1.33-.784l-.574-.966c-.27.261-.607.469-1.008.623-.401.154-.83.231-1.288.231-.784 0-1.372-.18-1.764-.539-.392-.36-.588-.884-.588-1.575v-.084h6.09c.065-.364.098-.695.098-.994 0-.99-.301-1.771-.903-2.345-.602-.574-1.407-.861-2.415-.861-.793 0-1.51.187-2.149.56-.64.373-1.139.891-1.498 1.554-.36.663-.539 1.41-.539 2.24 0 .653.145 1.223.434 1.708.29.485.7.859 1.232 1.12.532.261 1.162.392 1.89.392zm2.688-4.354h-4.788c.168-.653.49-1.167.966-1.54s1.045-.56 1.708-.56c.672 0 1.202.184 1.589.553.387.369.562.884.525 1.547zm3.668 4.27l.784-3.92c.159-.784.474-1.374.945-1.771.471-.397 1.071-.595 1.799-.595.57 0 .999.13 1.288.392.29.261.434.635.434 1.12 0 .159-.023.364-.07.616L160.392 17h1.344l.826-4.158c.056-.308.084-.597.084-.868 0-.784-.236-1.39-.707-1.82-.471-.43-1.132-.644-1.981-.644-1.12 0-2.016.34-2.688 1.022l.182-.952h-1.288l-1.47 7.42h1.344zm11.662.084c.83 0 1.575-.189 2.233-.567.658-.378 1.174-.9 1.547-1.568.373-.667.56-1.416.56-2.247 0-.644-.142-1.206-.427-1.687-.285-.48-.688-.852-1.211-1.113-.523-.261-1.134-.392-1.834-.392-.83 0-1.577.189-2.24.567-.663.378-1.18.898-1.554 1.561-.373.663-.56 1.41-.56 2.24 0 .635.145 1.195.434 1.68.29.485.695.861 1.218 1.127s1.134.399 1.834.399zm.084-1.176c-.7 0-1.244-.184-1.631-.553-.387-.369-.581-.88-.581-1.533 0-.607.126-1.148.378-1.624.252-.476.597-.847 1.036-1.113.439-.266.933-.399 1.484-.399.71 0 1.255.182 1.638.546.383.364.574.877.574 1.54 0 .607-.124 1.148-.371 1.624-.247.476-.593.847-1.036 1.113-.443.266-.94.399-1.491.399zm8.484 1.176c.532 0 1.024-.086 1.477-.259.453-.173.847-.432 1.183-.777l-.182.952h1.288l1.47-7.42h-1.344l-.784 3.934c-.159.775-.474 1.363-.945 1.764s-1.062.602-1.771.602c-.56 0-.982-.128-1.267-.385-.285-.257-.427-.628-.427-1.113 0-.168.023-.378.07-.63l.826-4.172h-1.344l-.826 4.158c-.056.308-.084.593-.084.854 0 .784.238 1.395.714 1.834.476.439 1.125.658 1.946.658zm8.666 0c1.027 0 1.85-.212 2.471-.637.62-.425.931-1.015.931-1.771 0-.43-.114-.77-.343-1.022-.229-.252-.506-.434-.833-.546-.327-.112-.747-.224-1.26-.336-.57-.121-.99-.245-1.26-.371s-.406-.338-.406-.637c0-.336.163-.604.49-.805.327-.2.793-.301 1.4-.301.401 0 .793.049 1.176.147.383.098.719.245 1.008.441l.532-1.064c-.299-.205-.681-.369-1.148-.49-.467-.121-.947-.182-1.442-.182-.672 0-1.262.098-1.771.294-.509.196-.9.476-1.176.84-.275.364-.413.789-.413 1.274 0 .439.117.786.35 1.043.233.257.516.443.847.56.331.117.758.231 1.281.343.56.121.973.243 1.239.364.266.121.399.322.399.602 0 .345-.166.614-.497.805-.331.191-.814.287-1.449.287-.504 0-.987-.068-1.449-.203-.462-.135-.838-.32-1.127-.553l-.602 1.064c.308.252.74.457 1.295.616.555.159 1.141.238 1.757.238z"/>
        <path fill="#FC5271" d="M3.732 20.268S.165 14.558 5.923 8.799l1.658-1.657C12.024 2.699 17.617-.381 23.32.678l.001.001c1.06 5.703-2.02 11.296-6.463 15.739l-1.657 1.658c-5.758 5.758-11.469 2.191-11.469 2.191z"/>
        <path fill="#389BE8" d="M23.321.68L23.32.679c-2.058-.383-4.101-.226-6.081.34l-.228.227c-3.43 3.43-1.306 6.833-1.306 6.833s3.403 2.125 6.834-1.306l.597-.597c.436-1.796.53-3.64.185-5.496z"/>
        <path fill="#A0E070" d="M12.174 11.827S9.227 7.11 13.955 2.34c-2.286 1.189-4.44 2.865-6.375 4.8L5.923 8.8C.165 14.557 3.732 20.268 3.732 20.268s5.71 3.567 11.469-2.191l1.657-1.658c1.936-1.935 3.612-4.089 4.8-6.375-4.768 4.728-9.484 1.783-9.484 1.783z"/>
        <path fill="#CA6CD8" d="M7.994 16.006S4.865 10.999 9.196 5.634c-.554.48-1.093.984-1.616 1.507L5.923 8.8C.165 14.557 3.732 20.268 3.732 20.268s5.71 3.567 11.469-2.191l1.657-1.658c.524-.523 1.027-1.062 1.508-1.616-5.365 4.33-10.372 1.203-10.372 1.203z"/>
        <path fill="#452650" d="M23.782.595c-.017-.095-.065-.183-.134-.25l-.016-.016c-.064-.057-.142-.095-.227-.111-2.782-.517-5.682-.113-8.619 1.2C12.21 2.572 9.675 4.386 7.25 6.81L5.592 8.468C4.229 9.83 3.259 11.31 2.71 12.864c-.443 1.253-.614 2.553-.51 3.866.133 1.65.666 2.892.952 3.455l-1.358 1.357c-.556-1.213-1.626-4.344.032-7.934.109-.235.006-.514-.23-.622-.234-.109-.513-.006-.621.229-1.217 2.636-1.075 5.033-.74 6.58.247 1.152.631 2.01.857 2.45l-.739.738c-.183.183-.183.48 0 .663.092.091.212.137.332.137.12 0 .24-.046.331-.137l.739-.738c.44.225 1.297.61 2.45.858.61.132 1.356.234 2.195.234 1.285 0 2.791-.239 4.385-.975.235-.108.338-.387.23-.622-.11-.235-.388-.338-.623-.23-1.915.885-3.918 1.115-5.953.684-.86-.182-1.545-.45-1.982-.651l1.358-1.358c.562.286 1.805.819 3.455.951.25.02.5.03.749.03 1.058 0 2.103-.18 3.117-.539 1.554-.549 3.033-1.518 4.396-2.882l1.658-1.658c2.425-2.425 4.239-4.96 5.391-7.536 1.314-2.937 1.718-5.837 1.201-8.62zm-1.227 5.909c-.026.017-.05.037-.074.06-1.355 1.356-2.85 1.985-4.446 1.87-.609-.043-1.12-.192-1.477-.33l6.433-6.433c.166 1.572.016 3.194-.436 4.833zm-6.764-4.483c-.358.515-.636 1.05-.832 1.6-.086.245.041.512.285.6.052.017.105.026.157.026.193 0 .374-.12.442-.312.3-.847.836-1.66 1.593-2.416.023-.023.043-.048.06-.075 1.639-.452 3.26-.601 4.832-.436l-6.433 6.433c-.086-.224-.177-.508-.243-.839-.05-.254-.298-.418-.552-.368-.254.05-.418.298-.368.552.12.601.31 1.075.449 1.37l-2.943 2.943c-.204-.48-.46-1.247-.53-2.19-.158-2.154.686-4.171 2.51-5.996l.347-.347c.409-.2.818-.381 1.226-.545zM8.098 15.238c-.222-.49-.52-1.291-.673-2.305-.344-2.302.213-4.512 1.658-6.572 1.01-.912 2.033-1.712 3.064-2.399-1.274 1.935-1.474 3.757-1.37 5.065.104 1.299.512 2.291.753 2.78l-3.432 3.431zm-4.966 1.375c-.202-2.691.849-5.208 3.123-7.482l.699-.699c-.644 1.811-.635 3.441-.456 4.64.204 1.358.646 2.375.898 2.869l-3.54 3.54c-.261-.582-.628-1.597-.724-2.868zm11.737 1.132c-2.274 2.274-4.79 3.324-7.482 3.123-1.272-.096-2.287-.463-2.868-.724l3.54-3.54c.4.204 1.147.535 2.142.761.035.008.07.012.105.012.214 0 .407-.147.456-.365.058-.252-.1-.503-.353-.56-.701-.16-1.267-.38-1.647-.551l3.43-3.431c.454.223 1.341.59 2.504.725.018.002.036.004.055.004.234 0 .437-.176.465-.415.03-.257-.155-.49-.412-.52-.812-.094-1.474-.32-1.903-.502l2.942-2.943c.401.19 1.136.472 2.076.547.147.012.302.018.465.018.994 0 2.265-.253 3.595-1.176-.164.409-.346.818-.546 1.227l-.346.346c-1.08 1.08-2.245 1.823-3.463 2.21-.247.08-.383.343-.305.59.064.199.248.326.447.326.047 0 .095-.007.142-.022.732-.232 1.443-.578 2.129-1.03-.687 1.03-1.488 2.055-2.4 3.065-1.287.902-2.654 1.463-4.063 1.665-.256.037-.434.275-.397.531.033.234.234.402.463.402.022 0 .045-.001.068-.005.627-.09 1.247-.245 1.855-.462l-.694.694z"/>
        <path fill="#000" d="M16.352 13.206c.016 0 .032 0 .049-.002l.012-.002c.257-.028.443-.26.415-.517-.029-.257-.261-.443-.517-.415l-.007.001h-.003c-.257.027-.443.257-.416.515.025.241.23.42.467.42zM11.982 16.71h-.016c-.259 0-.468.21-.468.468 0 .259.21.469.468.469H11.975c.256 0 .465-.205.469-.462.004-.259-.203-.472-.462-.476zM15.057 5.744l.043.001c.24 0 .444-.183.466-.426V5.31c.024-.258-.166-.486-.424-.509-.258-.023-.486.167-.509.425v.007c-.024.258.166.486.424.51z"/>
    </g>
</svg>
