<svg xmlns="http://www.w3.org/2000/svg" width="36" height="36" viewBox="0 0 36 36">
    <g fill="none">
        <path fill="#3DC9AE" d="M33.245 5.441H1.774l-1.765 27.5c-.073 1.25.956 2.353 2.206 2.353h30.588c1.25 0 2.28-1.103 2.206-2.353l-1.764-27.5z" transform="translate(.353 .353)"/>
        <path fill="#F2F2F2" d="M33.245 5.441L1.774 5.441 6.847 2.5 3.833 0 31.186 0 28.171 2.5z" transform="translate(.353 .353)"/>
        <path fill="#CDD6E0" d="M28.171 2.5L28.244 5.441 33.245 5.441z" transform="translate(.353 .353)"/>
        <path fill="#3DC9AE" d="M31.186 0L31.406 4.412 28.171 2.5z" transform="translate(.353 .353)"/>
        <path fill="#CDD6E0" d="M6.847 2.5L6.774 5.441 1.774 5.441z" transform="translate(.353 .353)"/>
        <path fill="#3DC9AE" d="M3.833 0L3.612 4.412 6.847 2.5z" transform="translate(.353 .353)"/>
        <path fill="#FFF" d="M17.51 25.074c-4.78 0-8.53-6.618-8.53-15.148 0-.294.294-.588.588-.588s.588.294.588.588c0 7.721 3.31 13.971 7.353 13.971 4.044 0 7.353-6.25 7.353-13.97 0-.295.294-.589.588-.589s.589.294.589.588c0 8.53-3.75 15.148-8.53 15.148z" transform="translate(.353 .353)"/>
    </g>
</svg>
