<svg xmlns="http://www.w3.org/2000/svg" width="36" height="36" viewBox="0 0 36 36">
    <path fill="#5F5F5F" fill-rule="evenodd" d="M31.28 9.248c-.032-.39-.353-.688-.736-.684h-5.596V6.396c0-3.532-2.803-6.396-6.26-6.396-3.456 0-6.259 2.864-6.259 6.396v2.168H6.833c-.381.001-.7.297-.737.684L4.167 31.914c-.088 1.051.26 2.092.959 2.868.698.777 1.683 1.219 2.716 1.218h21.7c1.033 0 2.018-.44 2.717-1.218.698-.776 1.046-1.817.958-2.868L31.281 9.248zM13.903 6.396c0-2.701 2.143-4.891 4.787-4.891 2.643 0 4.786 2.19 4.786 4.891v2.168h-9.573V6.396zm17.268 27.37c-.416.468-1.008.733-1.627.729H7.834c-.62 0-1.21-.265-1.629-.731-.418-.467-.626-1.092-.573-1.722l1.87-21.973h4.927v4.695c-1.184.373-1.923 1.574-1.74 2.826.185 1.252 1.238 2.178 2.477 2.178 1.239 0 2.291-.926 2.476-2.178.184-1.252-.556-2.453-1.74-2.826v-4.703h9.573v4.703c-1.184.373-1.924 1.574-1.74 2.826.185 1.252 1.238 2.178 2.476 2.178 1.24 0 2.292-.926 2.476-2.178.184-1.252-.555-2.453-1.74-2.826v-4.703h4.92l1.87 21.973c.06.633-.146 1.263-.567 1.731zM13.055 16.163c.074.01.148.01.221 0 .545.06.949.545.92 1.104-.03.559-.483.997-1.03.997-.548 0-1-.438-1.03-.997-.03-.559.374-1.044.92-1.104zm11.046 0c.073.01.148.01.22 0 .545.06.95.545.92 1.104-.03.559-.482.997-1.03.997s-1-.438-1.03-.997c-.028-.559.375-1.044.92-1.104z"/>
</svg>
