<svg xmlns="http://www.w3.org/2000/svg" width="40" height="40" viewBox="0 0 40 40">
    <g fill="none" fill-rule="evenodd" transform="translate(.024)">
        <path fill="#FFB50D" fill-rule="nonzero" d="M38.644 22.188l-.602-.822c-.662-.903-.672-2.127-.02-3.04l.592-.832c.902-1.274.481-3.059-.893-3.801l-.902-.481c-.983-.532-1.525-1.625-1.334-2.729l.17-1.012c.26-1.545-.893-2.97-2.457-3.03l-1.023-.04c-1.113-.05-2.076-.802-2.387-1.875l-.281-.983c-.431-1.504-2.086-2.287-3.53-1.665l-.943.401c-1.023.442-2.217.18-2.969-.652l-.682-.762c-1.043-1.163-2.879-1.153-3.902.03l-.672.772c-.732.843-1.925 1.124-2.958.703l-.943-.392c-1.444-.601-3.09.211-3.5 1.715l-.271.983C8.846 5.75 7.893 6.522 6.78 6.592l-1.023.06c-1.565.09-2.698 1.535-2.407 3.07l.18 1.002c.2 1.103-.32 2.207-1.293 2.748l-.893.502C-.03 14.736-.421 16.52.5 17.785l.602.822c.662.903.672 2.127.02 3.04l-.592.832c-.902 1.274-.48 3.059.893 3.801l.903.482c.983.531 1.524 1.624 1.334 2.728l-.17 1.013c-.262 1.544.892 2.968 2.456 3.028l1.023.04c1.114.05 2.077.803 2.388 1.876l.28.983c.432 1.504 2.086 2.287 3.53 1.665l.944-.401c1.023-.442 2.216-.18 2.968.652l.682.762c1.043 1.163 2.879 1.153 3.902-.03l.672-.772c.732-.843 1.925-1.124 2.959-.703l.942.392c1.445.601 3.09-.211 3.5-1.715l.271-.983c.291-1.073 1.244-1.846 2.357-1.916l1.023-.06c1.565-.09 2.698-1.535 2.408-3.07l-.181-1.002c-.2-1.103.32-2.207 1.294-2.748l.892-.502c1.374-.752 1.766-2.547.843-3.811zM19.558 33.02c-7.192 0-13.039-5.847-13.039-13.038 0-7.192 5.847-13.039 13.039-13.039 7.19 0 13.038 5.847 13.038 13.039 0 7.19-5.847 13.038-13.038 13.038z"/>
        <circle cx="19.559" cy="19.583" r="13.75" fill="#FFB50D"/>
        <path fill="#FFF" fill-rule="nonzero" d="M30.434 11.208H26.81V10h-14.5v1.208H8.684c-.725 0-1.208.484-1.208 1.209v2.9c0 2.779 2.054 5.075 4.833 5.437v.121c0 3.504 2.417 6.404 5.68 7.13l-.846 2.537h-2.78c-.483 0-.966.362-1.087.845l-.967 2.78h14.5l-.966-2.78c-.121-.483-.605-.845-1.088-.845h-2.78l-.845-2.538c3.263-.725 5.68-3.625 5.68-7.129v-.12c2.778-.363 4.833-2.66 4.833-5.438v-2.9c0-.725-.484-1.209-1.209-1.209zm-18.125 7.13c-1.329-.363-2.416-1.571-2.416-3.021v-1.692h2.416v4.712zm9.667 3.745l-2.417-1.329-2.416 1.33.604-2.417-1.813-2.417h2.538l1.087-2.417 1.088 2.417h2.537l-1.812 2.417.604 2.416zm7.25-6.766c0 1.45-1.088 2.779-2.417 3.02v-4.712h2.417v1.692z"/>
    </g>
</svg>
