<svg xmlns="http://www.w3.org/2000/svg" width="104" height="24" viewBox="0 0 104 24">
    <g fill="none" fill-rule="evenodd">
        <path fill="#FFB50D" fill-rule="nonzero" d="M23.68 13.313l-.37-.494c-.405-.541-.41-1.275-.011-1.823l.362-.5c.553-.764.295-1.835-.547-2.28l-.553-.29c-.602-.318-.934-.974-.817-1.636l.104-.608c.16-.926-.547-1.781-1.505-1.817l-.627-.024c-.683-.03-1.273-.482-1.463-1.125l-.172-.59c-.264-.903-1.278-1.372-2.163-1l-.578.242c-.627.264-1.358.108-1.82-.392L13.104.52c-.64-.698-1.764-.692-2.39.018L10.3 1c-.448.506-1.18.674-1.813.422l-.577-.235c-.885-.361-1.893.126-2.145 1.03l-.166.589c-.178.644-.762 1.107-1.445 1.15l-.626.035c-.96.054-1.654.921-1.475 1.842l.11.602c.123.661-.196 1.323-.793 1.648l-.547.301c-.841.458-1.081 1.529-.516 2.287l.369.493c.406.542.412 1.276.012 1.824l-.362.5c-.553.764-.295 1.835.547 2.28l.553.289c.602.319.934.975.817 1.637l-.104.608c-.16.926.547 1.78 1.505 1.817l.627.024c.682.03 1.272.481 1.463 1.125l.172.59c.264.903 1.278 1.372 2.163.999l.578-.24c.627-.266 1.358-.11 1.82.39l.417.458c.64.698 1.764.692 2.39-.018l.413-.464c.448-.505 1.18-.674 1.813-.42l.577.234c.885.36 1.893-.127 2.145-1.03l.166-.589c.178-.644.762-1.107 1.444-1.15l.627-.035c.959-.055 1.653-.921 1.475-1.842l-.11-.602c-.123-.662.196-1.324.792-1.649l.547-.3c.842-.452 1.082-1.529.517-2.287zm-11.696 6.499c-4.406 0-7.99-3.508-7.99-7.823s3.584-7.823 7.99-7.823c4.407 0 7.99 3.508 7.99 7.823s-3.583 7.823-7.99 7.823z"/>
        <ellipse cx="11.985" cy="11.75" fill="#FFB50D" rx="8.426" ry="8.25"/>
        <path fill="#FFF" fill-rule="nonzero" d="M18.65 6.725h-2.222V6H7.543v.725H5.32c-.444 0-.74.29-.74.725v1.74c0 1.667 1.259 3.045 2.962 3.262v.073c0 2.102 1.48 3.842 3.48 4.277l-.519 1.523H8.801c-.296 0-.592.217-.666.507L7.543 20.5h8.885l-.593-1.668c-.074-.29-.37-.507-.666-.507h-1.703l-.518-1.523c1.999-.435 3.48-2.175 3.48-4.277v-.073c1.703-.217 2.962-1.595 2.962-3.262V7.45c0-.435-.297-.725-.74-.725zM7.542 11.002c-.815-.217-1.481-.942-1.481-1.812V8.175h1.48v2.827zm5.923 2.248l-1.48-.798-1.482.798.37-1.45-1.11-1.45h1.555l.666-1.45.667 1.45h1.555l-1.111 1.45.37 1.45zm4.443-4.06c0 .87-.667 1.667-1.481 1.812V8.175h1.48V9.19z"/>
        <path fill="#262626" fill-rule="nonzero" d="M39.446 17c1.316 0 2.354-.264 3.115-.791.76-.527 1.141-1.286 1.141-2.275 0-.504-.121-.924-.364-1.26-.243-.336-.583-.579-1.022-.728.541-.205.978-.53 1.309-.973.331-.443.497-.982.497-1.617 0-.7-.268-1.234-.805-1.603s-1.3-.553-2.289-.553h-4.34l-1.96 9.8h4.718zm.644-5.53h-2.87l.63-3.136h2.884c.625 0 1.104.103 1.435.308.331.205.497.518.497.938 0 .616-.231 1.085-.693 1.407-.462.322-1.09.483-1.883.483zm-.546 4.396h-3.192l.644-3.262h3.276c.681 0 1.192.103 1.533.308.34.205.511.55.511 1.036 0 .616-.24 1.09-.721 1.421-.48.331-1.164.497-2.051.497zm9.142 1.218c.579 0 1.13-.093 1.652-.28.523-.187.966-.448 1.33-.784l-.574-.966c-.27.261-.607.469-1.008.623-.401.154-.83.231-1.288.231-.784 0-1.372-.18-1.764-.539-.392-.36-.588-.884-.588-1.575v-.084h6.09c.065-.364.098-.695.098-.994 0-.99-.301-1.771-.903-2.345-.602-.574-1.407-.861-2.415-.861-.793 0-1.51.187-2.149.56-.64.373-1.139.891-1.498 1.554-.36.663-.539 1.41-.539 2.24 0 .653.145 1.223.434 1.708.29.485.7.859 1.232 1.12.532.261 1.162.392 1.89.392zm2.688-4.354h-4.788c.168-.653.49-1.167.966-1.54s1.045-.56 1.708-.56c.672 0 1.202.184 1.589.553.387.369.562.884.525 1.547zm4.662 4.354c1.027 0 1.85-.212 2.471-.637.62-.425.931-1.015.931-1.771 0-.43-.114-.77-.343-1.022-.229-.252-.506-.434-.833-.546-.327-.112-.747-.224-1.26-.336-.57-.121-.99-.245-1.26-.371s-.406-.338-.406-.637c0-.336.163-.604.49-.805.327-.2.793-.301 1.4-.301.401 0 .793.049 1.176.147.383.098.719.245 1.008.441l.532-1.064c-.299-.205-.681-.369-1.148-.49-.467-.121-.947-.182-1.442-.182-.672 0-1.262.098-1.771.294-.509.196-.9.476-1.176.84-.275.364-.413.789-.413 1.274 0 .439.117.786.35 1.043.233.257.516.443.847.56.331.117.758.231 1.281.343.56.121.973.243 1.239.364.266.121.399.322.399.602 0 .345-.166.614-.497.805-.331.191-.814.287-1.449.287-.504 0-.987-.068-1.449-.203-.462-.135-.838-.32-1.127-.553l-.602 1.064c.308.252.74.457 1.295.616.555.159 1.141.238 1.757.238zm7.224 0c.7 0 1.274-.154 1.722-.462l-.28-1.022c-.317.233-.672.35-1.064.35-.327 0-.572-.08-.735-.238-.163-.159-.245-.387-.245-.686 0-.121.014-.252.042-.392l.798-3.948h2.128l.224-1.106h-2.128l.322-1.624H62.7l-.322 1.624h-1.274l-.21 1.106h1.26l-.798 3.976c-.037.177-.056.364-.056.56 0 .579.18 1.034.539 1.365.36.331.833.497 1.421.497zm5.586 0c1.027 0 1.85-.212 2.471-.637.62-.425.931-1.015.931-1.771 0-.43-.114-.77-.343-1.022-.229-.252-.506-.434-.833-.546-.327-.112-.747-.224-1.26-.336-.57-.121-.99-.245-1.26-.371s-.406-.338-.406-.637c0-.336.163-.604.49-.805.327-.2.793-.301 1.4-.301.401 0 .793.049 1.176.147.383.098.719.245 1.008.441l.532-1.064c-.299-.205-.681-.369-1.148-.49-.467-.121-.947-.182-1.442-.182-.672 0-1.262.098-1.771.294-.509.196-.9.476-1.176.84-.275.364-.413.789-.413 1.274 0 .439.117.786.35 1.043.233.257.516.443.847.56.331.117.758.231 1.281.343.56.121.973.243 1.239.364.266.121.399.322.399.602 0 .345-.166.614-.497.805-.331.191-.814.287-1.449.287-.504 0-.987-.068-1.449-.203-.462-.135-.838-.32-1.127-.553l-.602 1.064c.308.252.74.457 1.295.616.555.159 1.141.238 1.757.238zm8.218 0c.579 0 1.13-.093 1.652-.28.523-.187.966-.448 1.33-.784l-.574-.966c-.27.261-.607.469-1.008.623-.401.154-.83.231-1.288.231-.784 0-1.372-.18-1.764-.539-.392-.36-.588-.884-.588-1.575v-.084h6.09c.065-.364.098-.695.098-.994 0-.99-.301-1.771-.903-2.345-.602-.574-1.407-.861-2.415-.861-.793 0-1.51.187-2.149.56-.64.373-1.139.891-1.498 1.554-.36.663-.539 1.41-.539 2.24 0 .653.145 1.223.434 1.708.29.485.7.859 1.232 1.12.532.261 1.162.392 1.89.392zm2.688-4.354h-4.788c.168-.653.49-1.167.966-1.54s1.045-.56 1.708-.56c.672 0 1.202.184 1.589.553.387.369.562.884.525 1.547zM83.42 17l2.072-10.388h-1.344L82.076 17h1.344zm3.906 0l2.072-10.388h-1.344L85.982 17h1.344zm6.104.084c.579 0 1.13-.093 1.652-.28.523-.187.966-.448 1.33-.784l-.574-.966c-.27.261-.607.469-1.008.623-.401.154-.83.231-1.288.231-.784 0-1.372-.18-1.764-.539-.392-.36-.588-.884-.588-1.575v-.084h6.09c.065-.364.098-.695.098-.994 0-.99-.301-1.771-.903-2.345-.602-.574-1.407-.861-2.415-.861-.793 0-1.51.187-2.149.56-.64.373-1.139.891-1.498 1.554-.36.663-.539 1.41-.539 2.24 0 .653.145 1.223.434 1.708.29.485.7.859 1.232 1.12.532.261 1.162.392 1.89.392zm2.688-4.354H91.33c.168-.653.49-1.167.966-1.54s1.045-.56 1.708-.56c.672 0 1.202.184 1.589.553.387.369.562.884.525 1.547zM99.786 17l.742-3.71c.327-1.661 1.26-2.492 2.8-2.492.15 0 .266.005.35.014l.252-1.302c-.681 0-1.26.093-1.736.28-.476.187-.877.485-1.204.896l.21-1.106h-1.288L98.442 17h1.344z"/>
    </g>
</svg>
