<svg xmlns="http://www.w3.org/2000/svg" width="30" height="30" viewBox="0 0 30 30">
    <g fill="none" fill-rule="evenodd">
        <path fill="#FFB50D" fill-rule="nonzero" d="M28.983 16.641l-.451-.617c-.497-.677-.504-1.595-.015-2.279l.443-.624c.677-.956.361-2.295-.67-2.851l-.676-.361c-.737-.399-1.143-1.219-1-2.046l.127-.76c.196-1.159-.67-2.227-1.843-2.272l-.767-.03c-.835-.038-1.557-.602-1.79-1.407l-.21-.737C21.806 1.53 20.565.942 19.481 1.41l-.707.3c-.767.331-1.662.136-2.226-.488l-.512-.572c-.782-.873-2.159-.865-2.926.022l-.504.58c-.549.631-1.444.842-2.219.526l-.707-.293c-1.083-.452-2.317.158-2.625 1.286l-.203.737c-.218.805-.933 1.384-1.768 1.437l-.767.045c-1.174.068-2.024 1.151-1.806 2.302l.136.752c.15.828-.241 1.655-.97 2.061l-.67.376c-1.03.572-1.324 1.911-.632 2.859l.451.617c.497.677.504 1.594.015 2.279l-.443.624c-.677.955-.361 2.294.67 2.851l.676.361c.737.399 1.143 1.219 1 2.046l-.127.76c-.196 1.158.67 2.226 1.843 2.272l.767.03c.835.037 1.557.601 1.79 1.406l.21.738c.324 1.128 1.565 1.715 2.649 1.248l.707-.3c.767-.332 1.662-.136 2.226.488l.512.572c.782.873 2.159.865 2.926-.023l.504-.579c.549-.632 1.444-.842 2.219-.526l.707.293c1.083.451 2.317-.158 2.625-1.286l.203-.737c.218-.805.933-1.385 1.768-1.437l.767-.045c1.174-.068 2.024-1.151 1.806-2.302l-.136-.752c-.15-.828.24-1.655.97-2.061l.67-.377c1.03-.564 1.324-1.91.632-2.858zm-14.315 8.124c-5.393 0-9.779-4.385-9.779-9.779 0-5.393 4.386-9.779 9.78-9.779 5.393 0 9.778 4.386 9.778 9.78 0 5.393-4.385 9.778-9.779 9.778z"/>
        <circle cx="14.669" cy="14.687" r="10.313" fill="#FFB50D"/>
        <path fill="#FFF" fill-rule="nonzero" d="M22.826 8.406h-2.719V7.5H9.232v.906H6.513c-.544 0-.906.363-.906.906v2.175c0 2.085 1.54 3.807 3.625 4.079v.09c0 2.628 1.812 4.803 4.26 5.347l-.635 1.903h-2.084c-.363 0-.725.272-.816.635l-.725 2.084h10.875l-.725-2.084c-.09-.363-.453-.635-.816-.635h-2.084l-.634-1.903c2.446-.544 4.259-2.719 4.259-5.347v-.09c2.084-.272 3.625-1.994 3.625-4.079V9.312c0-.543-.363-.906-.906-.906zM9.232 13.753c-.997-.272-1.813-1.178-1.813-2.266V10.22h1.813v3.534zm7.25 2.81l-1.813-.997-1.812.996.453-1.812-1.36-1.813h1.904l.815-1.812.816 1.812h1.903l-1.36 1.813.454 1.812zm5.437-5.076c0 1.088-.815 2.085-1.812 2.266V10.22h1.812v1.268z"/>
    </g>
</svg>
