<svg xmlns="http://www.w3.org/2000/svg" width="113" height="37" viewBox="0 0 113 37">
    <g fill="none" transform="translate(.447 .39)">
        <circle cx="59.337" cy="9.604" r="9.379" fill="#EF9122"/>
        <path fill="#F26E21" d="M49.959 9.604c0-5.23 4.148-9.379 9.378-9.379s9.379 4.149 9.379 9.379c0 5.23-4.148 9.379-9.379 9.379"/>
        <path fill="#F44500" d="M52.844 2.93c3.608-3.606 9.56-3.606 13.167 0 3.607 3.608 3.607 9.56 0 13.167"/>
        <path fill="#595A5B" d="M5.05.767H0V18.44h5.05c2.705 0 4.69-.721 6.312-1.983 1.984-1.624 3.247-4.149 3.247-6.854 0-5.23-3.788-8.837-9.559-8.837zm4.148 13.346c-1.082.902-2.525 1.443-4.69 1.443H3.428V3.833h.902c2.164 0 3.607.36 4.689 1.442 1.262 1.083 1.984 2.706 1.984 4.329.18 1.623-.541 3.427-1.804 4.509zM16.232.767H19.659V18.442H16.232zM28.316 7.62c-2.164-.721-2.705-1.262-2.705-2.164 0-1.082 1.082-1.984 2.525-1.984 1.082 0 1.984.36 2.885 1.443l1.804-2.345C31.382 1.308 29.578.586 27.595.586c-3.067 0-5.591 2.164-5.591 5.05 0 2.525 1.082 3.607 4.328 4.87 1.443.54 1.984.721 2.345 1.082.721.36 1.082 1.082 1.082 1.803 0 1.443-1.082 2.525-2.706 2.525-1.623 0-3.066-.901-3.787-2.344l-2.164 2.164c1.623 2.345 3.607 3.427 6.132 3.427 3.607 0 6.132-2.345 6.132-5.772 0-3.066-1.082-4.328-5.05-5.77z"/>
        <path fill="#3B3D3F" d="M34.448 9.604c0 5.23 4.148 9.198 9.379 9.198 1.443 0 2.705-.36 4.328-1.082v-4.148c-1.443 1.443-2.705 1.984-4.148 1.984-3.427 0-5.952-2.525-5.952-6.132 0-3.427 2.525-6.132 5.772-6.132 1.623 0 2.885.54 4.328 1.983V1.127C46.712.406 45.45.045 43.827.045c-5.05.36-9.379 4.509-9.379 9.559z"/>
        <path fill="#000" d="M76.471 12.67L71.782.767 67.994.767 75.389 18.983 77.373 18.983 85.128.767 81.341.767zM86.571 18.441L96.491 18.441 96.491 15.556 90.178 15.556 90.178 10.686 96.31 10.686 96.31 7.62 90.178 7.62 90.178 3.833 96.491 3.833 96.491.767 86.571.767z"/>
        <g fill="#595A5B">
            <path d="M106.23 10.37c2.705-.54 4.148-2.344 4.148-5.05 0-3.246-2.344-5.23-6.312-5.23h-5.23v17.675h3.426v-7.034h.541l4.87 7.034h4.148l-5.591-7.394zm-2.886-2.164h-1.082v-5.41h1.082c2.165 0 3.427.901 3.427 2.705 0 1.803-1.262 2.705-3.427 2.705zM5.05.09H0v17.675h5.05c2.705 0 4.69-.721 6.312-1.984 1.984-1.623 3.247-4.148 3.247-6.853C14.609 3.698 10.82.09 5.05.09zm4.148 13.347c-1.082.901-2.525 1.442-4.69 1.442H3.428V3.156h.902c2.164 0 3.607.361 4.689 1.443 1.262 1.082 1.984 2.705 1.984 4.329.18 1.623-.541 3.426-1.804 4.509z" transform="translate(0 .676)"/>
        </g>
        <path fill="#595A5B" d="M16.232 0.767H19.659V18.442H16.232z"/>
        <g fill="#595A5B">
            <path d="M7.35 7.17c-2.165-.722-2.706-1.263-2.706-2.165 0-1.082 1.082-1.984 2.525-1.984 1.082 0 1.984.36 2.886 1.443l1.803-2.345C10.416.857 8.612.135 6.628.135c-3.066 0-5.59 2.165-5.59 5.05 0 2.525 1.081 3.607 4.328 4.87 1.442.54 1.984.721 2.344 1.082.722.36 1.082 1.082 1.082 1.804 0 1.442-1.082 2.525-2.705 2.525S3.021 14.564 2.3 13.12L.135 15.285c1.623 2.345 3.607 3.427 6.132 3.427 3.608 0 6.133-2.345 6.133-5.771 0-3.066-1.083-4.329-5.05-5.772zM23.04 18.351c1.443 0 2.706-.36 4.33-1.082v-4.148c-1.444 1.443-2.706 1.984-4.15 1.984-3.426 0-5.95-2.525-5.95-6.132 0-1.804.72-3.247 1.803-4.51L16.728 2.12c-1.803 1.623-3.066 4.148-3.066 6.854-.18 5.41 3.968 9.378 9.379 9.378z" transform="translate(20.966 .45)"/>
        </g>
        <path fill="#000" d="M106.23 11.047c2.705-.541 4.148-2.345 4.148-5.05 0-3.247-2.344-5.23-6.312-5.23h-5.23V18.44h3.426v-7.033h.541l4.87 7.033h4.148l-5.591-7.394zm-2.886-2.164h-1.082V3.472h1.082c2.165 0 3.427.902 3.427 2.705 0 1.804-1.262 2.706-3.427 2.706z"/>
        <g fill="#F26E21">
            <path d="M.18 10.055L.18.135 7.034 7.169 7.034.676 8.477.676 8.477 10.596 1.623 3.562 1.623 10.055zM15.691 2.119L11.904 2.119 11.904 4.283 15.511 4.283 15.511 5.726 11.904 5.726 11.904 8.792 15.691 8.792 15.691 10.055 10.461 10.055 10.461.676 15.691.676zM20.2 2.119L20.2 10.055 18.757 10.055 18.757 2.119 16.593 2.119 16.593.857 22.364.857 22.364 2.119zM24.528.857L26.873 7.169 29.398.496 31.743 7.169 34.268.857 36.071.857 31.923 10.776 29.578 4.103 27.053 10.776 23.086.857zM36.252 5.366c0-1.263.54-2.525 1.443-3.427.901-.902 2.164-1.443 3.426-1.443 1.263 0 2.525.541 3.427 1.443.902.902 1.443 2.164 1.443 3.427 0 1.262-.541 2.525-1.443 3.426-.902.902-2.164 1.443-3.427 1.443-1.262 0-2.344-.36-3.246-1.262-1.082-.902-1.623-1.984-1.623-3.607zm1.443 0c0 1.082.36 1.803 1.082 2.525.721.721 1.443 1.082 2.344 1.082.902 0 1.804-.361 2.525-1.082.722-.722 1.082-1.443 1.082-2.525 0-1.083-.36-1.804-1.082-2.525-.721-.722-1.443-1.083-2.525-1.083-.901 0-1.803.361-2.525 1.083-.54.721-.901 1.623-.901 2.525zM51.04 6.087l2.887 3.968h-1.804l-2.705-3.788h-.18v3.788h-1.444V.676h1.624c1.262 0 2.164.18 2.705.722.541.54.902 1.262.902 1.984 0 .721-.18 1.262-.541 1.623-.36.721-.902 1.082-1.443 1.082zm-1.803-1.082h.361c1.263 0 1.984-.541 1.984-1.443s-.721-1.443-1.984-1.443h-.541v2.886h.18zM56.632 4.464L60.239.676 62.043.676 57.894 4.825 62.043 9.875 60.239 9.875 56.812 5.726 56.452 6.087 56.452 9.875 55.009 9.875 55.009.496 56.452.496 56.452 4.464z" transform="translate(25.25 24.799)"/>
        </g>
        <g fill="#3B3D3F">
            <path d="M25.566 14.879L22.319 14.879 22.319 11.633 18.712 8.026 18.712 17.765 28.451 17.765zM12.58 1.894L8.612 11.994 3.923.09.135.09 7.53 18.306 9.514 18.306 15.285 4.599z" transform="translate(67.86 .676)"/>
        </g>
    </g>
</svg>
