<?xml version="1.0" encoding="UTF-8"?>
<svg width="80px" height="80px" viewBox="0 0 80 80" version="1.1" xmlns="http://www.w3.org/2000/svg" xmlns:xlink="http://www.w3.org/1999/xlink">
    <title>21A5A5F7-35F8-4F9C-82D4-052B516E4AB3</title>
    <g id="Step-1" stroke="none" stroke-width="1" fill="none" fill-rule="evenodd">
        <g id="ICraft-Product-Page-Collection-1440" transform="translate(-829.000000, -2598.000000)" fill="#80AA85">
            <g id="Group-2" transform="translate(165.000000, 2508.000000)">
                <g id="icons/eco" transform="translate(664.000000, 90.000000)">
                    <g id="seeding" transform="translate(0.000000, -0.000000)">
                        <path d="M27.1679287,42.724098 C29.9730958,42.724098 32.6015145,43.3854788 34.8821381,44.5514477 C37.5732739,45.9910913 41.7411136,45.5777283 47.5310468,45.5777283 C50.6811581,45.5777283 54.2075724,47.4022272 54.2075724,51.2792873 C54.2075724,54.9282851 50.6811581,56.9808463 47.5310468,56.9808463 L47.5310468,56.9808463 L38.2945212,56.9808463 C37.5675724,56.9808463 37.0601336,57.4341203 37.0601336,58.5972383 C37.0601336,59.2785746 37.6131849,59.8316258 38.2945212,59.8316258 L38.2945212,59.8316258 L53.2411581,59.8287751 C69.4421381,46.6695768 73.4503341,41.637951 78.8240535,45.284098 C80.1439644,46.1820935 80.2123831,48.1320267 79.0179065,49.1925167 L79.0179065,49.1925167 L59.4701114,71.1207127 C57.3234744,73.0278842 54.5496659,74.0826726 51.6760802,74.0826726 L51.6760802,74.0826726 L22.8062361,74.0826726 L17.1046771,79.7842316 L2.48908586e-12,62.6795546 L15.3514477,47.5647216 C18.2421381,44.6027617 22.458441,42.724098 27.1679287,42.724098 Z M27.1679287,45.5748775 C23.4220045,45.5748775 19.8585301,47.0259243 17.3926058,49.5517149 L17.3926058,49.5517149 L4.0481069,62.6909577 L17.1046771,75.7475278 C18.6241425,74.2280624 20.1293541,72.7228508 21.6260134,71.2261915 L21.6260134,71.2261915 L51.6760802,71.2261915 C53.7999109,71.2261915 55.8496214,70.4678842 57.4603118,69.0852561 L57.4603118,69.0852561 L76.8,47.3908241 C73.5387082,45.7858352 71.2837416,48.83902 54.2531849,62.673853 C51.992924,62.673853 46.5895332,62.6753075 42.4220343,62.6761386 L38.2945212,62.6767038 C36.0367038,62.6767038 34.2093541,60.8493541 34.2093541,58.5915367 C34.2093541,55.717951 36.150735,54.1243653 38.2945212,54.1243653 L38.2945212,54.1243653 L47.5310468,54.1243653 C49.0733185,54.1243653 51.3567929,53.2178174 51.3567929,51.2735857 C51.3567929,48.4541648 47.5681069,48.4228062 47.5310468,48.4228062 C40.1475278,48.4228062 36.7379955,48.7734521 33.5365702,47.0601336 C31.6465033,46.0965702 29.4257461,45.5748775 27.1679287,45.5748775 Z M58.1844098,0.0821380846 C58.6832962,3.95919822 60.236971,10.1054788 56.8873051,16.0978174 C55.2509577,19.2536303 52.0723385,22.1699777 48.7540312,22.0816036 C48.2950557,24.9152784 47.8987973,28.7296214 47.6365256,34.8188864 C48.4261915,33.8610245 49.312784,32.9972383 50.2791982,32.2360802 C49.803118,30.337461 50.4644989,27.7945657 51.4423163,26.3976837 C52.8277951,24.2168374 55.3307795,22.9054788 57.7225835,22.9054788 C62.1213363,22.9054788 66.0725167,27.5151893 68.4130067,28.5671269 C68.3902004,28.5899332 67.5150111,29.4822272 65.5622272,32.8575501 C63.469755,36.4751893 60.5020935,38.1514477 57.6912249,38.1514477 C55.7013808,38.1514477 53.8056125,37.3446771 52.1578619,35.5885969 C50.35902,37.1365702 49.2529176,38.8242316 48.5744321,40.4548775 C48.1297105,41.5267706 47.1347884,42.2651225 45.9716704,42.2793764 L45.9716704,42.2793764 L45.9346102,42.2793764 C44.3467261,42.2793764 43.0667261,40.9594655 43.1094878,39.3658797 C43.3717595,29.7387973 43.907706,24.7727394 44.5405791,21.234922 C43.4202227,20.6961247 41.3134967,19.4132739 40.2929176,18.067706 C38.1947439,15.2995991 37.6046325,10.8381292 39.6058797,7.40864143 C44.1386192,-0.35688196 55.5673942,2.63073497 58.1844098,0.0821380846 Z M33.5935857,22.9482405 C36.421559,22.9482405 38.8304677,24.4534521 40.1019154,26.9564365 C40.8887305,28.282049 41.2593318,30.1920713 41.0540757,31.6887305 C40.7804009,33.7013808 39.1269488,35.7967038 37.8925612,36.634833 C36.2961247,37.823608 34.1580401,38.3766592 32.051314,37.9946548 C27.0767038,37.2534521 24.798931,30.5598218 22.8033853,28.5642762 C22.8318931,28.5528731 23.9693541,28.0283296 26.996882,25.5709577 C29.2318931,23.7550111 31.5239198,22.9482405 33.5935857,22.9482405 Z M57.7254343,25.7505568 C56.371314,25.7505568 54.7321158,26.5373719 53.8512249,27.9228508 C53.2668151,28.7638307 52.8620045,30.3146548 53.0330512,31.3437862 C55.453363,30.0751893 58.1929621,29.3396882 61.1121604,29.3767483 C58.3041425,29.9725612 55.8068597,31.2924722 53.7257906,33.0827617 C54.9174165,34.3570601 55.7954566,35.2978174 57.6940757,35.2978174 C59.7067261,35.2978174 61.6766147,33.8866815 63.0991537,31.4264588 C63.5809354,30.5911804 64.0085523,29.8898886 64.3848552,29.2969265 C62.6173719,27.9513586 59.9376392,25.7505568 57.7254343,25.7505568 Z M33.590735,25.79902 C32.051314,25.79902 30.3921604,26.4860579 28.7928731,27.7831626 C28.043118,28.3932294 27.3959911,28.8949666 26.8372383,29.3111804 C28.134343,31.3951002 30.0557684,34.8160356 32.4732294,35.1752339 C33.9071715,35.4289532 35.2099777,35.0811581 36.1934967,34.3485078 C36.9489532,33.8325167 38.0151448,32.4726949 38.2004454,31.3865479 C35.7544766,30.0267261 32.9635635,29.2171047 29.970245,29.2171047 C32.7383519,28.592784 35.4808018,28.7410245 38.0465033,29.4280624 C37.4763474,27.3412918 35.8742094,25.79902 33.590735,25.79902 Z M55.8638753,3.93639198 C54.9601782,4.08178174 53.9880624,4.17585746 52.9674833,4.27563474 C48.8766147,4.67474388 44.2383964,5.12516704 42.0689532,8.8454343 C40.6036526,11.356971 41.2308241,14.5840535 42.5649889,16.3458352 C43.0040089,16.9245434 44.0046325,17.6628953 44.9453898,18.2159465 C45.8889978,13.0788419 48.1126058,8.47768374 51.3368374,7.37158129 C49.4610245,10.5102895 48.563029,14.5869042 48.6228953,19.2251225 C51.0204009,19.2906904 53.2383073,16.9530512 54.3586637,14.7864588 C56.4454343,11.0462361 56.294343,7.23474388 55.8638753,3.93639198 Z" id="Combined-Shape"></path>
                    </g>
                </g>
            </g>
        </g>
    </g>
</svg>