<svg xmlns="http://www.w3.org/2000/svg" width="20" height="20" viewBox="0 0 20 20">
    <path fill-rule="evenodd" d="M17.699.845c-1.072-1.07-2.809-1.07-3.881 0l-.972.977L2.505 12.158l-.022.022c-.005.006-.005.011-.011.011-.011.017-.028.033-.038.05 0 .005-.006.005-.006.01-.011.017-.016.028-.028.045-.005.005-.005.01-.01.016l-.017.044c0 .005-.005.005-.005.011l-2.295 6.9c-.067.196-.016.414.132.56.104.102.244.16.39.159.06-.001.118-.01.175-.028l6.895-2.3c.005 0 .005 0 .01-.005.018-.005.035-.012.05-.022.004 0 .008-.002.011-.005.016-.011.038-.022.055-.033.016-.011.033-.028.05-.039.005-.005.01-.005.01-.01.006-.006.017-.012.022-.023L19.186 6.208c1.07-1.072 1.07-2.808 0-3.88L17.7.844zM7.489 16.368l-3.82-3.82 9.562-9.562 3.82 3.82-9.562 9.562zM3.13 13.564L6.468 16.9 1.456 18.57l1.674-5.006zM18.412 5.44l-.581.587-3.821-3.82.588-.588c.642-.642 1.684-.642 2.327 0l1.493 1.493c.638.646.635 1.685-.006 2.328z"/>
</svg>
