<svg xmlns="http://www.w3.org/2000/svg" width="30" height="30" viewBox="0 0 30 30">
    <g fill="none">
        <path fill="#FFB400" d="M27.92 3.259c-1.008-.187-1.975.477-2.163 1.484L25.505 6.1l-5.699 4.085-3.044-6.507V2.046c0-1.024-.83-1.854-1.855-1.854-1.024 0-1.854.83-1.854 1.854v1.632l-3.045 6.507-5.696-4.083-.264-1.418C3.86 3.678 2.893 3.014 1.886 3.2.879 3.388.214 4.356.402 5.363l.4 2.151 1.997 10.74c-.543.322-.908.914-.908 1.592 0 1.024.83 1.854 1.854 1.854H26.07c1.024 0 1.854-.83 1.854-1.854 0-.678-.365-1.27-.908-1.593L28.993 7.62c.003-.015.008-.03.01-.046l.4-2.152c.188-1.007-.476-1.975-1.483-2.162z" transform="translate(0 3)"/>
        <path fill="#C90000" d="M12.955 13.636L16.364 13.636 16.364 17.045 12.955 17.045z" transform="translate(0 3) rotate(-45 14.66 15.34)"/>
        <path fill="#C90000" d="M20.455 14.201L23.182 14.201 23.182 16.928 20.455 16.928z" transform="translate(0 3) rotate(45 21.818 15.565)"/>
        <path fill="#C90000" d="M6.019 14.201L8.747 14.201 8.747 16.929 6.019 16.929z" transform="translate(0 3) rotate(45 7.383 15.565)"/>
    </g>
</svg>
