<svg xmlns="http://www.w3.org/2000/svg" width="42" height="42" viewBox="0 0 42 42">
    <g fill="none" fill-rule="evenodd">
        <path fill="red" fill-rule="nonzero" d="M36.935 15.687c-.566-.417-1.28-.94-1.367-1.28.037-.66.225-1.303.551-1.878.5-1.146 1.015-2.334.442-3.321-.573-.988-1.876-1.148-3.13-1.281-.65-.004-1.29-.157-1.87-.447-.29-.583-.443-1.226-.446-1.877-.14-1.254-.286-2.55-1.28-3.13-.995-.58-2.184-.072-3.33.434-.576.326-1.219.514-1.88.55-.345-.092-.865-.8-1.28-1.366C22.618 1.11 21.8 0 20.62 0s-2 1.11-2.721 2.09c-.42.569-.94 1.281-1.28 1.37-.66-.04-1.303-.229-1.88-.551-1.153-.508-2.34-1.014-3.325-.444-.984.57-1.15 1.876-1.29 3.138-.005.649-.157 1.289-.445 1.87-.58.286-1.218.436-1.865.44-1.255.14-2.553.286-3.131 1.28-.578.994-.07 2.182.435 3.33.327.577.516 1.222.551 1.884-.093.346-.8.867-1.367 1.28-.98.72-2.09 1.54-2.09 2.722 0 1.181 1.11 2 2.092 2.721.566.418 1.28.94 1.367 1.28-.037.66-.225 1.303-.55 1.878-.5 1.146-1.016 2.334-.443 3.322s1.876 1.148 3.13 1.28c.65.005 1.29.158 1.871.447.29.584.442 1.226.445 1.878.14 1.253.287 2.55 1.28 3.13.995.579 2.175.057 3.322-.443.582-.322 1.229-.508 1.892-.544.346.093.866.8 1.281 1.367.722.98 1.54 2.09 2.721 2.09 1.182 0 2-1.11 2.722-2.09.419-.568.94-1.28 1.28-1.368.66.037 1.303.225 1.88.55 1.146.5 2.333 1.012 3.32.444.985-.569 1.149-1.876 1.29-3.131.004-.65.156-1.29.445-1.872.581-.287 1.22-.439 1.87-.443 1.254-.14 2.552-.287 3.13-1.28.578-.995.056-2.175-.442-3.322-.325-.58-.512-1.228-.544-1.892.093-.346.8-.868 1.367-1.281.98-.722 2.093-1.541 2.093-2.721 0-1.18-1.113-2.001-2.095-2.722z" transform="translate(0 2.52)"/>
        <path fill="#FFF" d="M2.211 12.525H39.053V24.314H2.211z" transform="translate(0 2.52)"/>
        <path fill="#000" fill-rule="nonzero" d="M3.485 21.367v-1.013H1.24v-1.297h2.01v-1.005H1.24v-1.135h2.132v-1.013H0v5.463h3.485zm2.368 0l.454-.989c.17-.38.308-.665.422-.98h.016c.154.315.284.6.486.98l.495.989h1.426l-1.62-2.796 1.54-2.667H7.66l-.462.997c-.138.316-.243.56-.373.908H6.81c-.13-.308-.251-.576-.413-.908l-.479-.997H4.5l1.524 2.699-1.58 2.764h1.41zm7.118.081c.665 0 1.176-.122 1.403-.235l-.187-.965c-.243.098-.656.179-1.03.179-1.102 0-1.75-.69-1.75-1.783 0-1.216.762-1.808 1.743-1.808.437 0 .786.097 1.037.203l.251-.981c-.218-.114-.705-.243-1.345-.243-1.654 0-2.983 1.037-2.983 2.901 0 1.557.973 2.732 2.861 2.732zm5.838-.081v-1.038h-2.173v-4.425h-1.24v5.463h3.413zm3.146.09c1.426 0 2.278-.803 2.278-2.49v-3.063H23v3.145c0 .964-.357 1.418-1.006 1.418-.632 0-.988-.478-.988-1.418v-3.145h-1.24v3.048c0 1.742.81 2.504 2.188 2.504zm4.784-.009c1.499 0 2.204-.778 2.204-1.694 0-.77-.454-1.273-1.418-1.63-.705-.267-1.013-.42-1.013-.77 0-.283.259-.526.794-.526s.924.154 1.143.26l.275-.998c-.324-.146-.778-.275-1.394-.275-1.289 0-2.067.713-2.067 1.645 0 .794.592 1.297 1.5 1.613.656.235.916.43.916.77 0 .357-.3.592-.868.592-.526 0-1.037-.17-1.37-.34l-.25 1.02c.307.17.923.333 1.548.333zm4.402-.081v-5.463h-1.24v5.463h1.24zm4.152 0l1.84-5.463h-1.314l-.697 2.334c-.186.624-.356 1.273-.494 1.93h-.024c-.13-.682-.3-1.306-.487-1.954l-.664-2.31h-1.354l1.75 5.463h1.444zm6.283 0v-1.013H39.33v-1.297h2.01v-1.005h-2.01v-1.135h2.132v-1.013H38.09v5.463h3.486z" transform="translate(0 2.52)"/>
    </g>
</svg>
