<svg xmlns="http://www.w3.org/2000/svg" width="100" height="24" viewBox="0 0 100 24">
    <g fill="none" fill-rule="evenodd">
        <g fill-rule="nonzero">
            <path fill="#FFB400" d="M22.336 2.54c-.806-.146-1.58.371-1.73 1.156l-.202 1.057-4.559 3.183-2.436-5.07V1.594c0-.798-.664-1.445-1.483-1.445-.82 0-1.484.647-1.484 1.445v1.27L8.006 7.936 3.45 4.755 3.24 3.65c-.15-.785-.925-1.302-1.73-1.156C.703 2.64.17 3.394.32 4.178l.32 1.677 1.598 8.367c-.434.252-.726.713-.726 1.241 0 .798.664 1.445 1.483 1.445h17.859c.82 0 1.484-.647 1.484-1.445 0-.528-.293-.989-.727-1.24l1.582-8.286.009-.037.32-1.676c.15-.784-.382-1.539-1.187-1.685z" transform="translate(0 3)"/>
            <path fill="#C90000" d="M10.364 10.589L13.055 10.625 13.091 13.317 10.399 13.281z" transform="translate(0 3) rotate(-45 11.727 11.953)"/>
            <path fill="#C90000" d="M16.392 11.065L18.545 11.037 18.517 13.19 16.364 13.219z" transform="translate(0 3) rotate(45 17.455 12.128)"/>
            <path fill="#C90000" d="M4.844 11.065L6.997 11.037 6.969 13.19 4.816 13.219z" transform="translate(0 3) rotate(45 5.906 12.128)"/>
        </g>
        <text fill="#262626" font-family="Montserrat-MediumItalic, Montserrat" font-size="14" font-style="italic" font-weight="500">
            <tspan x="34" y="17">Exclusive</tspan>
        </text>
    </g>
</svg>
