<svg xmlns="http://www.w3.org/2000/svg" width="33" height="32" viewBox="0 0 33 32">
    <defs>
        <linearGradient id="y51sxma8qa" x1="33.202%" x2="58.495%" y1="14.06%" y2="68.175%">
            <stop offset="0%" stop-color="#3457A0"/>
            <stop offset="100%" stop-color="#3B5998"/>
        </linearGradient>
        <linearGradient id="tr80hxypeb" x1="71.377%" x2="-27.135%" y1="64.688%" y2="-2.999%">
            <stop offset="0%" stop-color="#3457A0" stop-opacity="0"/>
            <stop offset="100%" stop-color="#1F3F77"/>
        </linearGradient>
        <linearGradient id="mn7o4byo9c" x1="50%" x2="50%" y1="17.68%" y2="85.475%">
            <stop offset="0%" stop-color="#3457A0" stop-opacity="0"/>
            <stop offset="100%" stop-color="#1F3F77"/>
        </linearGradient>
        <linearGradient id="sp9jwh6wnd" x1="85.571%" x2="28.576%" y1="79.108%" y2="37.114%">
            <stop offset="0%" stop-color="#3457A0" stop-opacity="0"/>
            <stop offset="32.51%" stop-color="#2A4C8D" stop-opacity=".325"/>
            <stop offset="70.45%" stop-color="#22427D" stop-opacity=".706"/>
            <stop offset="100%" stop-color="#1F3F77"/>
        </linearGradient>
    </defs>
    <g fill="none">
        <path fill="url(#y51sxma8qa)" d="M26.276 31.452c-6.844.73-13.708.73-20.552 0-2.73-.291-4.885-2.447-5.176-5.176-.73-6.844-.73-13.708 0-20.552C.839 2.994 2.995.839 5.724.548c6.844-.73 13.708-.73 20.552 0 2.73.291 4.885 2.447 5.176 5.176.73 6.844.73 13.708 0 20.552-.291 2.73-2.446 4.885-5.176 5.176z" transform="translate(.5)"/>
        <path fill="url(#tr80hxypeb)" d="M29.712 6.881c-.259-2.422-2.171-4.334-4.593-4.593-6.073-.648-12.165-.648-18.238 0-2.422.259-4.334 2.171-4.593 4.593-.648 6.073-.648 12.165 0 18.238.259 2.422 2.171 4.334 4.593 4.593 6.073.648 12.165.648 18.238 0 2.422-.259 4.334-2.171 4.593-4.593.648-6.073.648-12.165 0-18.238z" transform="translate(.5)"/>
        <path fill="url(#mn7o4byo9c)" d="M.48 25.613c.021.221.044.442.068.663.291 2.73 2.447 4.885 5.176 5.176 6.844.73 13.708.73 20.552 0 2.73-.291 4.885-2.447 5.176-5.176.024-.22.047-.442.069-.663H.479z" transform="translate(.5)"/>
        <path fill="url(#sp9jwh6wnd)" d="M21.513 5.33c-2.788 0-5.048 2.26-5.048 5.048v3.77H13.75v4.67l2.716 2.432V32c3.272-.016 6.544-.198 9.811-.547 2.73-.291 4.885-2.447 5.176-5.176.544-5.092.683-10.196.417-15.294L26.216 5.33h-4.703z" transform="translate(.5)"/>
        <path fill="#FFF" d="M16.465 31.999c1.865-.01 3.73-.073 5.593-.19V18.817h3.71l.448-4.669h-4.158v-2.964c0-.655.53-1.186 1.185-1.186h2.973V5.33h-4.703c-2.788 0-5.048 2.26-5.048 5.049v3.77H13.75v4.67h2.716v13.18z" transform="translate(.5)"/>
    </g>
</svg>
