<?xml version="1.0" encoding="UTF-8"?>
<svg width="200px" height="40px" viewBox="0 0 200 40" version="1.1" xmlns="http://www.w3.org/2000/svg" xmlns:xlink="http://www.w3.org/1999/xlink">
    <title>4263332E-9748-41C8-BF6C-E5F163EA172D</title>
    <g id="Pages" stroke="none" stroke-width="1" fill="none" fill-rule="evenodd">
        <g id="ICraft-Product-Page-Collection-Filter" transform="translate(-863.000000, -882.000000)" fill="#C90000">
            <g id="Elements/title" transform="translate(403.000000, 796.000000)">
                <g id="Group-3" transform="translate(0.000000, 1.000000)">
                    <g id="Elements/for-title-2" transform="translate(460.000000, 85.000000)">
                        <g id="Ресурс-1" transform="translate(34.000000, 0.000000)">
                            <path d="M136.901722,18.1972216 C136.165082,17.0521561 135.162172,16.1024513 133.978692,15.4292591 C132.681646,14.6851329 131.280239,14.139938 129.821321,13.8119006 C128.25612,13.4486588 126.65435,13.2665508 125.047554,13.2691628 C121.798627,13.2631297 118.562507,13.67644 115.419387,14.4988515 C112.249793,15.3339801 109.158367,16.4416742 106.179664,17.8095518 C103.151187,19.1958591 100.148297,20.7359421 97.1709925,22.4298008 C94.1936883,24.1236595 91.2166425,25.791932 88.2398551,27.4346182 C84.9539657,26.3057237 81.6954715,25.1515014 78.4643728,23.9719514 C75.233274,22.7924013 72.0238847,21.5859728 68.836205,20.3526659 L77.4564312,15.7331922 C80.3313906,14.1933677 83.257264,12.7047155 86.2340514,11.2672358 C86.5565103,11.9169069 86.8395058,12.5854288 87.0814977,13.2691628 C87.3399442,13.9881611 87.4691675,14.6554701 87.4691675,15.2710898 C87.4691675,18.248394 86.1348079,20.0451145 83.4660889,20.661251 C83.2593316,20.7646297 83.2076423,20.8938529 83.3110209,21.0489209 C83.4133149,21.2040906 83.5907126,21.2927894 83.7762247,21.2815228 C85.1108427,21.0747655 86.3681852,20.4074565 87.5482521,19.2795958 C88.7283191,18.151735 89.318611,16.7132215 89.3191279,14.9640553 C89.3191279,13.2185073 88.9081979,11.6272519 88.0863378,10.190289 C91.1670207,8.75280933 94.2727729,7.36676048 97.4035944,6.03214249 C98.8886283,5.39843155 100.4039,4.79961089 101.949411,4.23568052 L101.943983,4.23568052 C102.776603,3.8923695 103.309401,3.06910531 103.281549,2.16891561 C103.253696,1.26872591 102.67102,0.479975506 101.818769,0.188795881 C100.966518,-0.102383745 100.023026,0.164936782 99.450177,0.859891127 C98.8773282,1.55484547 98.7949918,2.53201436 99.2434754,3.31302633 C97.2415485,4.02788949 95.2941537,4.77996895 93.4012912,5.56926472 C91.1941576,6.49346958 89.0126103,7.46884687 86.8566492,8.49539657 C84.8009653,5.82616059 81.7709379,3.77280275 77.7665671,2.33532303 C73.7621962,0.897843317 69.7586007,0.179361906 65.7557805,0.179878799 C60.5196534,0.179878799 55.3866465,1.10382522 50.3567597,2.95171805 C45.3268729,4.79961089 41.3227605,7.52001928 38.3444225,11.1129432 C34.7514985,10.3944618 30.9006449,10.0352211 26.7918617,10.0352211 C24.2254874,10.0352211 21.3766311,10.2662723 18.2452927,10.7283748 C15.1139543,11.1904772 12.2147009,11.9603895 9.54753247,13.0381116 C6.8777796,14.1153168 4.6192152,15.5011072 2.77183926,17.1954828 C0.924463312,18.8898584 0,20.91763 0,23.2787977 C0,25.2305861 0.718481411,26.9244447 2.15544423,28.3603738 C3.59240705,29.7963028 5.44055834,31.0027313 7.69989808,31.9796593 C9.95820404,32.9550366 12.4478197,33.6993626 15.1687449,34.2126375 C17.8336805,34.7206891 20.540283,34.9784484 23.2532115,34.9825498 C28.38596,34.9825498 33.2111571,34.4692749 37.7288028,33.4427252 C39.6795574,35.4958246 42.3487933,37.08708 45.7365107,38.2164914 C49.1242281,39.3459029 53.2821162,39.9103501 58.210175,39.9098336 C63.1382339,39.9098336 68.2456546,38.8321111 73.5324372,36.6766669 C78.9347989,34.4657994 84.20571,31.9464484 89.3191279,29.1310614 C93.8199308,30.5380711 98.3952465,31.6945834 103.024032,32.595279 C107.540332,33.4681732 112.129829,33.9066899 116.729711,33.9048276 C119.187629,33.8949401 121.63826,33.6367329 124.044265,33.13414 C126.5605,32.6213821 128.84491,31.8514698 130.897492,30.8244032 C132.950075,29.7973366 134.644192,28.5655803 135.979843,27.1291344 C137.314461,25.6916547 137.98177,24.0489684 137.98177,22.2010756 C137.98177,20.661251 137.620721,19.3266331 136.901722,18.1972216 Z M45.8132693,6.87803805 C47.8113014,5.59707642 49.957353,4.56323303 52.2043941,3.79916429 C54.4349452,3.03630273 56.7277845,2.46944893 59.0568459,2.10504715 C61.2726476,1.75345265 63.5122687,1.57329794 65.7557805,1.5661861 C69.6572897,1.5661861 73.3530753,2.28492595 76.8431376,3.72240567 C80.3331998,5.15988538 83.0538666,7.00777822 85.0051381,9.26608418 C81.7202824,10.9087705 78.5121854,12.5514567 75.380847,14.194143 C72.2495086,15.8368293 69.1437564,17.5304295 66.0635904,19.2749437 C61.752185,17.6327744 57.5172798,16.1182776 53.3588748,14.7314534 C49.202844,13.3456578 44.9587098,12.2396185 40.6549346,11.4207531 C42.1262897,9.64612713 43.8668864,8.11326132 45.8132693,6.87803805 Z M23.4059534,33.750535 C21.3538878,33.750535 19.121168,33.5709147 16.7077942,33.211674 C14.2944203,32.8524333 12.0617005,32.2877276 10.0096349,31.5175568 C7.95653551,30.747903 6.21124595,29.6955087 4.77376624,28.3603738 C3.33628652,27.0252389 2.61754666,25.3828111 2.61754666,23.4330903 C2.61754666,21.6880592 3.41330359,20.0709591 5.00481745,18.5817901 C6.59633131,17.0926211 8.59799985,15.8091755 11.0098231,14.7314534 C13.4226801,13.6537313 16.091916,12.8068019 19.017531,12.1906653 C21.9431459,11.5745288 24.7408298,11.2664374 27.4105827,11.2664374 C29.1092249,11.2646587 30.8063431,11.3682362 32.4921588,11.5765963 C34.135362,11.7833536 35.8294791,12.039991 37.5745102,12.3465086 C35.0096866,15.5285025 33.7272749,19.2752022 33.7272749,23.5866075 C33.7272749,26.5649456 34.6512213,29.3882157 36.4991141,32.0564179 C32.2258572,33.1810751 27.8255044,33.750535 23.4067287,33.750535 L23.4059534,33.750535 Z M36.3432708,23.7409001 C36.3432708,21.5854559 36.6510807,19.5835289 37.2667004,17.7351192 C37.8575475,15.9388723 38.6862541,14.2298279 39.7307298,12.6535431 C43.8122839,13.494894 47.8471999,14.5484597 51.8190503,15.8099508 C55.8745936,17.0933964 60.0583263,18.5564623 64.3702486,20.1991486 C60.0578094,22.5603163 55.8229043,24.7418636 51.665533,26.7437906 C47.576395,28.7192697 43.3260535,30.3420048 38.9608175,31.5943155 C37.2157864,29.3365264 36.3432708,26.7187213 36.3432708,23.7409001 Z M71.6848029,35.6757034 C66.7421507,37.7723656 61.4260053,38.846092 56.0570568,38.8322459 C53.0449756,38.8276538 50.0535864,38.3343259 47.1995766,37.3713712 C44.2734448,36.3949602 41.8350016,34.8804634 39.884247,32.8278809 C44.6237264,31.5900453 49.2379581,29.9145733 53.66746,27.8230634 C58.1328995,25.7177578 62.6252175,23.4845212 67.1444138,21.1233535 C70.4297864,22.3545928 73.6634696,23.6121938 76.8454636,24.8961562 C80.0274575,26.1801187 83.2616576,27.3348579 86.548064,28.3603738 C81.7348556,31.0758217 76.772583,33.5181295 71.6848029,35.6757034 L71.6848029,35.6757034 Z M132.666817,26.8205492 C131.588578,28.0523055 130.177202,29.1046999 128.432687,29.9777323 C126.688173,30.8507647 124.763522,31.4924875 122.658733,31.9029007 C120.553389,32.3132634 118.413347,32.5194262 116.268384,32.5185559 C112.003186,32.522967 107.747775,32.110332 103.562893,31.2865056 C99.4055214,30.4656794 95.2223056,29.4391297 91.013245,28.2068565 C94.0918603,26.5631365 97.0678724,24.894864 99.9412811,23.2020391 C102.81469,21.5092142 105.612374,20.020562 108.334333,18.7360827 C111.054741,17.4526371 113.595529,16.4002428 115.956697,15.5788996 C118.317865,14.7575565 120.474343,14.3458511 122.426131,14.3437836 C126.019572,14.3437836 128.894014,15.0369372 131.049459,16.4232445 C133.204903,17.8095518 134.283142,19.7856341 134.284176,22.3514915 C134.284176,24.0985902 133.745056,25.5882761 132.666817,26.8205492 Z" id="Shape"></path>
                        </g>
                    </g>
                </g>
            </g>
        </g>
    </g>
</svg>