<svg xmlns="http://www.w3.org/2000/svg" xmlns:xlink="http://www.w3.org/1999/xlink" width="42" height="42" viewBox="0 0 42 42">
    <defs>
        <path id="prefix__a" d="M6.661 4.57c.38 0 .688.311.688.696 0 .385-.307.696-.688.696H4.6v1.393h1.375c.38 0 .687.311.687.696 0 .385-.307.696-.687.696H4.598v2.09c0 .384-.307.696-.687.696-.38 0-.688-.312-.688-.697v-5.57c0-.385.308-.696.688-.696h2.75zm4.126 0c1.138 0 2.063.936 2.063 2.088 0 .535-.199 1.023-.527 1.393.328.37.527.858.527 1.393v1.392c0 .385-.308.697-.688.697-.38 0-.687-.312-.687-.697V9.444c0-.385-.31-.697-.688-.697H10.1v2.09c0 .384-.307.696-.687.696-.38 0-.688-.312-.688-.697v-5.57c0-.385.308-.697.688-.697h1.375zm6.876 0c.38 0 .688.311.688.696 0 .385-.308.696-.688.696h-2.062v1.393h1.375c.38 0 .687.311.687.696 0 .385-.307.696-.687.696H15.6v1.393h2.062c.38 0 .688.311.688.696 0 .385-.308.697-.688.697h-2.75c-.38 0-.688-.312-.688-.697v-5.57c0-.385.308-.696.688-.696h2.75zm5.501 0c.38 0 .688.31.688.696 0 .385-.307.696-.688.696h-2.062v1.393h1.375c.38 0 .687.311.687.696 0 .385-.307.696-.687.696h-1.375v1.393h2.062c.38 0 .688.311.688.696 0 .385-.307.697-.688.697h-2.75c-.38 0-.688-.312-.688-.697v-5.57c0-.385.308-.697.688-.697h2.75zM10.787 5.961H10.1v1.393h.688c.379 0 .688-.312.688-.697 0-.384-.31-.696-.688-.696z"/>
    </defs>
    <g fill="none" fill-rule="evenodd">
        <path fill="#3D9DFF" fill-rule="nonzero" d="M39.586 17.885c-.646-.476-1.46-1.07-1.558-1.46.041-.752.256-1.485.628-2.14.57-1.307 1.157-2.66.503-3.787-.653-1.126-2.138-1.308-3.567-1.46-.74-.005-1.47-.179-2.133-.509-.331-.665-.505-1.397-.508-2.14-.16-1.43-.326-2.907-1.46-3.568-1.133-.66-2.489-.082-3.795.495-.657.37-1.39.586-2.143.627-.394-.105-.987-.912-1.46-1.558-.828-1.117-1.76-2.383-3.107-2.383-1.347 0-2.28 1.266-3.103 2.383-.478.648-1.07 1.46-1.46 1.56-.752-.045-1.484-.26-2.142-.628-1.314-.578-2.668-1.155-3.79-.505-1.122.65-1.31 2.139-1.47 3.577-.006.74-.18 1.47-.508 2.133-.662.325-1.389.496-2.126.5-1.43.16-2.91.327-3.57 1.46-.658 1.133-.08 2.487.497 3.796.373.657.587 1.393.628 2.147-.106.395-.913.99-1.559 1.46C1.266 18.707 0 19.641 0 20.988c0 1.346 1.266 2.28 2.385 3.102.646.476 1.46 1.071 1.559 1.46-.042.752-.257 1.485-.628 2.14-.57 1.307-1.157 2.66-.504 3.787.653 1.126 2.139 1.308 3.568 1.46.74.005 1.47.179 2.133.509.33.665.504 1.398.507 2.14.16 1.43.327 2.907 1.46 3.568 1.133.66 2.478.066 3.787-.504.663-.367 1.4-.579 2.157-.62.394.106.987.912 1.46 1.558.823 1.117 1.755 2.384 3.102 2.384s2.28-1.267 3.102-2.384c.478-.647 1.071-1.46 1.46-1.56.753.043 1.486.258 2.142.628 1.307.57 2.661 1.153 3.785.505 1.124-.647 1.31-2.138 1.471-3.569.005-.74.179-1.47.507-2.133.663-.328 1.392-.501 2.132-.506 1.43-.16 2.91-.326 3.57-1.46.658-1.133.063-2.478-.504-3.786-.372-.661-.584-1.4-.62-2.157.105-.394.912-.99 1.558-1.46 1.116-.823 2.385-1.757 2.385-3.102s-1.269-2.281-2.388-3.103z"/>
        <g transform="translate(6.72 11.76)">
            <path fill="#FFF" fill-rule="nonzero" d="M21.515.326c.15 0 .293.06.399.168l5.64 5.712c.106.107.166.252.166.403v7.426c0 1.26-1.012 2.285-2.256 2.285h-.772c-.467 1.326-1.708 2.284-3.177 2.284s-2.71-.958-3.176-2.284h-8.313c-.467 1.326-1.708 2.284-3.177 2.284-1.468 0-2.709-.958-3.176-2.284H2.337c-.933 0-1.692-.769-1.692-1.714L.575 2.611C.575 1.351 1.587.326 2.83.326zm0 12.566c-1.244 0-2.256 1.025-2.256 2.285 0 1.26 1.012 2.285 2.256 2.285 1.244 0 2.257-1.025 2.257-2.285 0-1.26-1.013-2.285-2.257-2.285zm-14.666 0c-1.243 0-2.256 1.025-2.256 2.285 0 1.26 1.013 2.285 2.256 2.285 1.244 0 2.257-1.025 2.257-2.285 0-1.26-1.013-2.285-2.257-2.285z"/>
            <use fill="#D8D8D8" xlink:href="#prefix__a"/>
            <use fill="#3D9DFF" xlink:href="#prefix__a"/>
        </g>
    </g>
</svg>
