<svg xmlns="http://www.w3.org/2000/svg" width="33" height="32" viewBox="0 0 33 32">
    <g fill="none">
        <path fill="#FBBD00" d="M7.5 16c0-1.585.437-3.07 1.196-4.342V6.263H3.3C1.161 9.043 0 12.433 0 16s1.16 6.956 3.301 9.737h5.395v-5.395C7.936 19.071 7.5 17.585 7.5 16z" transform="translate(.5)"/>
        <path fill="#0F9D58" d="M16 24.5l-3.75 3.75L16 32c3.567 0 6.956-1.16 9.737-3.301V23.31h-5.389c-1.283.762-2.774 1.19-4.348 1.19z" transform="translate(.5)"/>
        <path fill="#31AA52" d="M8.696 20.342L3.3 25.737c.424.55.886 1.077 1.385 1.577C7.708 30.336 11.726 32 16 32v-7.5c-3.101 0-5.82-1.67-7.304-4.158z" transform="translate(.5)"/>
        <path fill="#3C79E6" d="M32 16c0-.973-.088-1.949-.262-2.899l-.14-.768H16v7.5h7.59c-.736 1.466-1.87 2.662-3.242 3.477l5.389 5.389c.55-.424 1.077-.886 1.577-1.385C30.336 24.292 32 20.274 32 16z" transform="translate(.5)"/>
        <path fill="#CF2D48" d="M22.01 9.99l.663.662 5.304-5.303-.663-.663C24.292 1.664 20.274 0 16 0l-3.75 3.75L16 7.5c2.27 0 4.405.884 6.01 2.49z" transform="translate(.5)"/>
        <path fill="#EB4132" d="M16 7.5V0C11.726 0 7.708 1.664 4.686 4.686c-.5.5-.96 1.027-1.385 1.577l5.395 5.395C10.18 9.17 12.899 7.5 16 7.5z" transform="translate(.5)"/>
    </g>
</svg>
