<svg xmlns="http://www.w3.org/2000/svg" width="30" height="30" viewBox="0 0 30 30">
    <g fill="none">
        <path fill="#000" d="M29.915 15.9c-.188-1.098-.904-5.729-.974-8.34.011-1.107-.256-1.826-.794-2.137-.41-.238-.945-.204-1.466.094-.337.193-.613.508-.842.969l-.13-.204c-.195-.307-.392-.623-.581-.929-.447-.719-.909-1.463-1.411-2.169l-.2-.282C22.869 1.987 22.136.95 21.56.517c-.632-.474-1.313-.6-1.869-.342-.24.11-.436.285-.573.498L19.03.635c-.633-.252-1.353-.197-1.834.14-.405.284-.616.744-.594 1.296-.261.137-.611.386-.861.814-.317.542-.392 1.214-.224 2-.236.225-.406.494-.53.76-.124-.266-.295-.535-.53-.76.168-.786.093-1.458-.224-2-.25-.428-.6-.677-.861-.814.022-.552-.189-1.012-.595-1.296-.48-.338-1.2-.393-1.834-.14-.03.012-.059.024-.087.038-.137-.213-.334-.388-.573-.498-.556-.257-1.237-.132-1.869.342-.576.433-1.31 1.47-1.957 2.385l-.2.282c-.503.707-.966 1.452-1.413 2.172-.189.305-.384.62-.58.926l-.129.204c-.23-.461-.505-.776-.842-.969-.52-.297-1.055-.332-1.466-.094-.538.31-.805 1.03-.794 2.138C.963 10.166.247 14.8.06 15.9c-.113.66-.065 1.274.147 1.876C.628 18.98 2.3 21.528 3.26 22.94l.722-.48c-1.569-2.309-2.673-4.165-2.954-4.966-.163-.461-.199-.935-.111-1.45.19-1.113.917-5.815.986-8.469V7.56c-.012-1.091.275-1.342.363-1.393.195-.113.502.045.591.096.296.17.55.6.758 1.28.642 2.322.788 4.8.626 7.193 1.346-.268 2.645.681 3.521 1.6-.74-.884-1.98-1.979-3.237-1.901.288-2.207.272-4.529-.14-6.723.01-.011.018-.022.026-.034l.167-.266c.15-.24.286-.456.423-.67.198-.31.395-.628.585-.934.44-.71.896-1.442 1.383-2.127l.202-.285c.55-.777 1.302-1.841 1.77-2.192.366-.275.72-.366.974-.249.167.077.404.34.141 1.507-.573 2.544-2.132 4.846-3.486 7.05 1.56-2.11 4.216-5.038 4.403-7.877.03-.032.142-.14.296-.2.354-.142.768-.124 1.005.043.166.116.24.3.228.564-.002.06-.019.172-.028.23l-.001.012h-.001c-.547 2.583-1.696 5.002-2.914 7.332 1.332-2.152 2.6-4.39 3.36-6.811.32.144 1.041.644.632 2.126l-.002.013c-.51 1.87-1.236 3.684-2.054 5.442.914-1.547 1.752-3.15 2.423-4.816.442.482.515 1.275.52 1.33.035.775-.189 2.566-2.067 5.89-.549.97-.13 1.733.277 2.471.281.511.6 1.09.707 1.862.186 1.34-.537 3.615-1.756 5.532l.736.458c1.34-2.105 2.096-4.56 1.882-6.107-.128-.927-.503-1.608-.804-2.156-.414-.752-.584-1.107-.283-1.64 1.005-1.778 1.56-3.16 1.858-4.206.299 1.045.854 2.428 1.859 4.206.301.533.13.888-.283 1.64-.301.548-.676 1.23-.804 2.156-.215 1.547.542 4.002 1.882 6.107l.736-.458c-1.22-1.917-1.942-4.192-1.756-5.532.107-.771.425-1.35.707-1.862.406-.738.826-1.501.277-2.471-1.878-3.324-2.102-5.115-2.067-5.889.005-.055.078-.85.52-1.33.67 1.666 1.51 3.269 2.422 4.816-.817-1.758-1.543-3.572-2.053-5.442-.001-.005-.001-.01-.003-.013-.41-1.487.317-1.985.632-2.127.761 2.42 2.029 4.66 3.36 6.811-1.217-2.33-2.811-6.488-2.944-7.573-.032-.263.063-.45.228-.565.238-.167.651-.185 1.006-.044.155.062.268.173.295.2.187 2.84 2.842 5.768 4.404 7.878-1.435-2.335-3.634-5.275-3.628-8.145.014-.18.121-.337.283-.411.253-.118.608-.027.974.248.468.351 1.22 1.415 1.77 2.193l.202.284c.486.684.941 1.416 1.38 2.124.192.308.39.625.588.937.133.21.266.42.412.654l.178.282c.007.012.016.023.025.034-.412 2.194-.428 4.517-.14 6.723-1.257-.078-2.497 1.017-3.237 1.902.876-.92 2.175-1.868 3.522-1.6-.162-2.394-.017-4.872.625-7.193.208-.68.463-1.112.758-1.28.09-.052.396-.21.592-.097.088.051.374.302.362 1.393v.016c.07 2.66.796 7.357.986 8.47.088.514.052.988-.11 1.45-.282.8-1.386 2.656-2.955 4.965l.722.48c.96-1.411 2.632-3.96 3.054-5.163.212-.601.26-1.215.147-1.876z" transform="translate(0 .75)"/>
        <g>
            <path fill="#4A94CC" d="M9.728 9.539c-1.838-4.177.047-7.65.047-7.818h-6.92c0 .167 1.885 3.64.047 7.818h.018s-5.422 2.412-.334 11.927h7.477C15.15 11.951 9.728 9.54 9.728 9.54z" transform="translate(0 .75) translate(8.864 4.09)"/>
            <path fill="#378BBF" d="M3.58 9.998c.105-.06.265-.218.392-.481 1.592-4.038-.145-7.633-.145-7.796h-.972c0 .167 1.885 3.64.047 7.818h.018s-5.422 2.412-.334 11.927h.972c-4.385-8.2-.998-10.883.021-11.468z" transform="translate(0 .75) translate(8.864 4.09)"/>
            <path fill="#49B5CE" d="M.844 17.276h10.96c.354-1.268.468-2.343.428-3.252H.416c-.04.909.075 1.984.428 3.252z" transform="translate(0 .75) translate(8.864 4.09)"/>
            <path fill="#36A1B2" d="M1.805 17.276c-.361-1.283-.473-2.357-.426-3.252H.416c-.052 1.186.151 2.173.428 3.252h.96z" transform="translate(0 .75) translate(8.864 4.09)"/>
            <path fill="#49B5CE" d="M9.04 4.267c.232-1.491.735-2.46.735-2.546h-6.92c0 .086.503 1.055.736 2.546h5.448z" transform="translate(0 .75) translate(8.864 4.09)"/>
            <path fill="#36A1B2" d="M3.03 2.183c.299.778.437 1.366.56 2.084h.923c-.231-1.48-.686-2.463-.686-2.546h-.972c0 .026.166.435.176.462z" transform="translate(0 .75) translate(8.864 4.09)"/>
            <g fill="#2571A0">
                <path d="M9.638 1.017v-.22c0-.44-.356-.797-.796-.797H.815C.375 0 .02.357.02.796v.221c0 .44.356.797.796.797h8.027c.44 0 .796-.357.796-.797zM9.638 22.386v-.222c0-.44-.356-.796-.796-.796H.815c-.44 0-.796.356-.796.796v.222c0 .44.356.796.796.796h8.027c.44 0 .796-.357.796-.796z" transform="translate(0 .75) translate(8.864 4.09) translate(1.449)"/>
            </g>
            <g fill="#1A678E">
                <path d="M8.842.452H.815C.5.452.226.267.098 0c-.05.104-.08.22-.08.344v.22c0 .44.357.797.797.797h8.027c.44 0 .796-.356.796-.796V.344C9.638.22 9.61.104 9.56 0c-.128.267-.4.452-.717.452zM8.842 21.82H.815c-.316 0-.589-.185-.717-.452-.095.196-.08.335-.08.565 0 .44.357.796.797.796h8.027c.44 0 .796-.357.796-.796v-.222c0-.123-.029-.24-.079-.343-.128.267-.4.452-.717.452z" transform="translate(0 .75) translate(8.864 4.09) translate(1.449 .453)"/>
            </g>
            <g fill="#2571A0">
                <path d="M12.291.7H.387C.194.7.037.543.037.35c0-.193.157-.349.35-.349H12.29c.193 0 .35.156.35.35 0 .192-.157.349-.35.349zM11.867 3.952H.768c-.193 0-.35-.157-.35-.35 0-.193.157-.35.35-.35h11.1c.192 0 .349.157.349.35 0 .193-.157.35-.35.35z" transform="translate(0 .75) translate(8.864 4.09) translate(0 13.674)"/>
            </g>
        </g>
    </g>
</svg>
