<?xml version="1.0" encoding="UTF-8"?>
<svg width="80px" height="80px" viewBox="0 0 80 80" version="1.1" xmlns="http://www.w3.org/2000/svg" xmlns:xlink="http://www.w3.org/1999/xlink">
    <title>2D8596EF-5C66-47C5-B20F-9A5E67B2EB95</title>
    <g id="Step-1" stroke="none" stroke-width="1" fill="none" fill-rule="evenodd">
        <g id="ICraft-Product-Page-Collection-1440" transform="translate(-235.000000, -2598.000000)" fill="#D1B3AB">
            <g id="Group-2" transform="translate(165.000000, 2508.000000)">
                <g id="gloves" transform="translate(70.000000, 90.000000)">
                    <path d="M19.4336706,2.3003476 C24.4187519,-0.691704005 30.6299537,-0.762782009 35.6821997,2.11440726 C40.8426253,4.79293558 44.1577801,10.0459076 44.3549883,15.8567263 C44.4769323,18.3446835 44.2443918,20.8373391 43.6643528,23.259808 C46.3220574,24.0634022 48.1971184,26.4384763 48.3619699,29.2101151 C48.5268213,31.9817538 46.9465132,34.5623462 44.4028016,35.67531 L44.4028016,35.67531 L36.0554086,39.3157562 C33.8564862,42.2494557 31.1428473,44.7592342 28.0466926,46.7228223 L28.0466926,46.7228223 L26.3068223,49.9369339 C25.8045625,50.8672938 24.9508327,51.5579301 23.936083,51.8547756 C23.5678531,51.9637571 23.1858653,52.0192214 22.801847,52.0194656 C22.6796576,52.0194656 22.5614527,51.9849339 22.4405914,51.9729805 C19.9314707,55.6174061 19.2237491,60.2080587 20.5187652,64.438952 C22.2016165,69.4087207 26.2980682,73.1803591 31.3896342,74.4478547 C35.1568676,75.3092552 39.1071864,74.8149951 42.5460545,73.0519741 C42.2066052,72.2948583 42.1136844,71.4502082 42.2804254,70.637406 L42.2804254,70.637406 L43.0148898,67.0620389 C41.914632,63.5646833 41.4583229,59.8966596 41.6681505,56.2363268 L41.6681505,56.2363268 L37.6372296,48.0775305 C36.4047824,45.5879337 36.8554056,42.593947 38.7660671,40.5774177 C40.6767285,38.5608883 43.6420891,37.9496153 46.1944695,39.0461427 C50.6477406,30.4570272 57.6869105,26.3384488 65.9373489,28.031834 C71.6543764,29.089457 76.3566861,33.1480041 78.2386304,38.6490272 C80.1431907,43.7145733 80.3596783,50.2384228 78.8681712,57.50869 C77.8316315,63.186575 75.3393761,68.4982917 71.6350921,72.9244721 L71.6350921,72.9244721 L70.9006278,76.5011673 C70.5197597,78.3541964 68.8902995,79.6852734 66.998537,79.688716 C66.7307974,79.688716 66.4637832,79.6608743 66.2016498,79.6063709 L66.2016498,79.6063709 L45.3843009,75.3350558 C45.0736642,75.2671425 44.7722532,75.162362 44.4864747,75.0229416 C41.5939077,76.6478818 38.3345082,77.5077598 35.016799,77.5211829 C27.2820557,77.5455376 20.4098964,72.5902926 17.9899767,65.243808 C16.482571,60.4405752 17.181513,55.2162633 19.8985214,50.9781997 L19.8985214,50.9781997 L2.23418936,41.371725 C0.301912428,40.319364 -0.411598248,37.8999682 0.640415045,35.9675019 L0.640415045,35.9675019 L2.38692607,32.7600311 C2.40943633,26.9891931 3.92874319,21.3229106 6.79636835,16.3149364 C10.3411881,9.79507134 14.7134423,4.94866926 19.4336706,2.3003476 Z M45.4135201,68.5628431 L44.882262,71.1646796 C44.8113135,71.5098947 44.8804818,71.8691543 45.0745353,72.1633487 C45.268589,72.457543 45.5716153,72.6625474 45.9168872,72.7332192 L45.9168872,72.7332192 L66.7329079,77.0045344 C67.0779332,77.075516 67.4370247,77.0065277 67.7311839,76.8127462 C68.0253432,76.6189648 68.2304735,76.3162643 68.3014475,75.9712374 L68.3014475,75.9712374 L68.8327056,73.3680726 L45.4135201,68.5628431 Z M51.0939974,60.9206952 C50.7303619,60.5735603 50.2018938,60.4614922 49.7286641,60.6311595 L49.7286641,60.6311595 L48.0299663,61.2407782 C46.8213792,61.6808364 45.4744905,61.5080823 44.416083,60.7772555 C44.5782097,62.4993583 44.916441,64.2003057 45.4254734,65.8534267 L45.4254734,65.8534267 L69.8952218,70.875144 C71.0140135,69.5545849 71.9952726,68.1234153 72.8237821,66.6038288 C71.5565575,66.8700418 70.239591,66.4938366 69.3041971,65.5984228 L69.3041971,65.5984228 L68.0065992,64.3911388 C67.6441647,64.0426831 67.1150101,63.9308755 66.642594,64.1029313 L66.642594,64.1029313 L64.9452244,64.7125499 C63.5286054,65.2269219 61.942998,64.8979791 60.8478962,63.862537 L60.8478962,63.862537 L59.5502983,62.6565811 C59.1866628,62.3094461 58.6581947,62.197378 58.184965,62.3670454 L58.184965,62.3670454 L56.4875953,62.9766641 C55.0715716,63.4933868 53.4850819,63.1641542 52.3915953,62.1266511 L52.3915953,62.1266511 Z M55.7252399,38.3408975 C55.3632691,37.9915672 54.8335806,37.8796466 54.3612348,38.05269 L54.3612348,38.05269 L52.6638651,38.6623087 C51.6434354,39.0310955 50.5167404,38.9677817 49.5440519,38.4869935 C47.4025295,42.2472473 45.8817401,46.3283982 45.0403113,50.5731154 C44.5958087,52.7121458 44.3424626,54.8864768 44.2832685,57.0704021 L44.2832685,57.0704021 L45.7681349,58.4622983 C46.1303699,58.8063006 46.6560017,58.91585 47.1254994,58.7451933 L47.1254994,58.7451933 L48.8241971,58.1355746 C50.2401972,57.618528 51.8268611,57.9477968 52.9201971,58.9855875 L52.9201971,58.9855875 L54.2177951,60.1915435 C54.5814306,60.5386784 55.1098987,60.6507465 55.5831284,60.4810791 L55.5831284,60.4810791 L57.2804981,59.8714604 C58.6967065,59.3544873 60.2834911,59.6831601 61.3778262,60.7201453 L61.3778262,60.7201453 L62.6754241,61.9274293 C63.037395,62.2767597 63.5670835,62.3886802 64.0394293,62.2156368 L64.0394293,62.2156368 L65.736799,61.6060182 C67.153418,61.0916462 68.7390254,61.420589 69.8341271,62.4560311 L69.8341271,62.4560311 L71.131725,63.6633152 C71.4940056,64.0120616 72.0233374,64.1239068 72.4957302,63.9515227 L72.4957302,63.9515227 L74.4109157,63.250262 C75.214923,61.2188488 75.8371623,59.1201247 76.2703191,56.9787601 L76.2703191,56.9787601 C77.2102971,52.7502066 77.4143102,48.3913376 76.8693126,44.0944228 C76.8068898,44.0970791 76.7444669,44.1103606 76.6820441,44.1103606 C75.6616323,44.1110334 74.6797197,43.7208348 73.938096,43.0199533 L73.938096,43.0199533 L72.6391699,41.8126693 C72.2764712,41.4636914 71.7466376,41.3518489 71.2738366,41.5244617 L71.2738366,41.5244617 L69.5777951,42.1327523 C68.1611761,42.6471242 66.5755687,42.3181814 65.4804669,41.2827393 L65.4804669,41.2827393 L64.182869,40.0767834 C63.819863,39.7283863 63.290383,39.6166188 62.8175357,39.7885759 L62.8175357,39.7885759 L61.120166,40.3968664 C59.7037937,40.9115833 58.1182196,40.5831614 57.0228379,39.5481816 L57.0228379,39.5481816 Z M71.842772,54.0454224 C72.1369312,53.851641 72.4960227,53.7826526 72.841048,53.8536342 C73.5582725,54.0014712 74.020505,54.7019494 73.874345,55.4195175 L73.874345,55.4195175 L73.608716,56.7197717 C73.5236647,57.1943368 73.1881173,57.5855425 72.7320381,57.7418672 C72.2759588,57.8981919 71.7709813,57.7950826 71.412693,57.4724756 C71.0544048,57.1498686 70.8990802,56.6584339 71.0068794,56.1885136 L71.0068794,56.1885136 L71.2725084,54.8869313 C71.3434824,54.5419044 71.5486127,54.2392038 71.842772,54.0454224 Z M60.1321221,51.6419646 C60.4263165,51.4479111 60.7855761,51.3787429 61.1307912,51.4496913 C61.8481042,51.5981295 62.3098096,52.2993037 62.1627601,53.0169027 L62.1627601,53.0169027 L61.897131,54.3184851 C61.7709858,54.9364688 61.2276035,55.3804993 60.5968768,55.3810013 C60.5076156,55.380763 60.4186117,55.3714177 60.3312477,55.3531102 C59.6128548,55.2059159 59.1497009,54.5043476 59.2966226,53.7858988 L59.2966226,53.7858988 L59.5622516,52.4843165 C59.6329234,52.1390447 59.8379278,51.8360184 60.1321221,51.6419646 Z M68.1875815,50.8580678 C68.5101885,50.4997796 69.0016232,50.344455 69.4715435,50.4522542 L69.4715435,50.4522542 L70.7717977,50.7178833 C71.4901906,50.8650776 71.9533445,51.5666459 71.8064228,52.2850947 L71.8064228,52.2850947 C71.7384073,52.6303665 71.5334029,52.9333928 71.2392086,53.1274465 C70.9450142,53.3215001 70.5857547,53.3906683 70.2405396,53.3197198 L70.2405396,53.3197198 L68.9402853,53.0540908 C68.4657203,52.9690396 68.0745146,52.6334922 67.9181899,52.1774129 C67.7618652,51.7213337 67.8649744,51.2163561 68.1875815,50.8580678 Z M47.8546511,50.0817017 C48.0018455,49.3633087 48.7034138,48.9001548 49.4218625,49.0470765 C50.1396269,49.1942916 50.6025835,49.8949669 50.4564877,50.6129598 L50.4564877,50.6129598 L50.1908586,51.913214 C50.1058074,52.387779 49.77026,52.7789848 49.3141807,52.9353094 C48.8581015,53.0916341 48.3531239,52.9885249 47.9948356,52.6659179 C47.6365475,52.3433109 47.4812229,51.8518761 47.589022,51.3819559 L47.589022,51.3819559 Z M62.7309502,50.4247072 C62.8752031,49.7182284 63.556795,49.2558968 64.2665422,49.3830973 L64.2665422,49.3830973 L65.5681245,49.6487263 C66.2709251,49.809948 66.7167113,50.5024743 66.5724584,51.208953 C66.4282055,51.9154317 65.7466136,52.3777634 65.0368664,52.2505629 L65.0368664,52.2505629 L63.735284,51.9849339 C63.0324835,51.8237122 62.5866972,51.1311859 62.7309502,50.4247072 Z M45.0668742,41.4500856 C44.0227412,41.0275383 42.8477736,41.071521 41.838153,41.5709468 C39.8655821,42.5425872 39.0530334,44.9285202 40.0225785,46.9021219 L40.0225785,46.9021219 L42.2113619,51.3394553 C42.285738,50.907808 42.349489,50.4788171 42.4384747,50.0445136 C43.0275406,47.0996574 43.9080062,44.2206815 45.0668742,41.4500856 Z M73.177558,47.5401669 C73.4717172,47.3463854 73.8308087,47.2773971 74.175834,47.3483787 C74.8920673,47.4980574 75.3523264,48.1988392 75.2051466,48.9155901 L75.2051466,48.9155901 L74.9395175,50.2158444 C74.8134728,50.83334 74.2708191,51.2772286 73.6405914,51.2783646 C73.5513058,51.2785887 73.4622533,51.2692383 73.3749624,51.2504695 C72.6571094,51.1026528 72.1946801,50.4012817 72.3416654,49.6832581 L72.3416654,49.6832581 L72.6072944,48.3816757 C72.6782684,48.0366488 72.8833987,47.7339483 73.177558,47.5401669 Z M56.2270228,49.0899212 C56.3712757,48.3834424 57.0528676,47.9211108 57.7626148,48.0483113 L57.7626148,48.0483113 L59.062869,48.3139403 C59.4078959,48.3849143 59.7105964,48.5900446 59.9043779,48.8842039 C60.0981593,49.1783632 60.1671477,49.5374546 60.096166,49.8824799 C59.9696741,50.4989603 59.4278897,50.9420367 58.7985681,50.943676 C58.7092778,50.9439891 58.6202153,50.9346375 58.532939,50.9157769 L58.532939,50.9157769 L57.2313567,50.6501479 C56.5285561,50.4889262 56.0827699,49.7963999 56.2270228,49.0899212 Z M51.2736515,47.3862961 C51.5962585,47.0280079 52.0876932,46.8726833 52.5576135,46.9804825 L52.5576135,46.9804825 L53.8591958,47.2461115 C54.5619964,47.4073332 55.0077826,48.0998595 54.8635297,48.8063382 C54.7192768,49.512817 54.0376849,49.9751486 53.3279377,49.8479481 L53.3279377,49.8479481 L52.0263554,49.5823191 C51.5517904,49.4972678 51.1605846,49.1617204 51.0042599,48.7056412 C50.8479353,48.2495619 50.9510445,47.7445844 51.2736515,47.3862961 Z M4.24367315,34.907642 L2.97396628,37.2411933 C2.62359579,37.8812609 2.86139385,38.6873963 3.50522438,39.0381738 L3.50522438,39.0381738 L22.1736342,49.1945006 C22.8176863,49.5448711 23.6238217,49.307073 23.9745992,48.6632425 L23.9745992,48.6632425 L25.242978,46.3296913 L4.24367315,34.907642 Z M61.7737155,44.9582937 C62.2297947,44.801969 62.7347723,44.9050782 63.0930606,45.2276852 C63.4513488,45.5502922 63.6066734,46.041727 63.4988742,46.5116472 L63.4988742,46.5116472 L63.2332451,47.8132296 C63.1481939,48.2877946 62.8126465,48.6790003 62.3565673,48.835325 C61.900488,48.9916497 61.3955105,48.8885405 61.0372222,48.5659335 C60.678934,48.2433264 60.5236094,47.7518917 60.6314086,47.2819715 L60.6314086,47.2819715 L60.8970376,45.9803891 C60.9820888,45.5058241 61.3176363,45.1146184 61.7737155,44.9582937 Z M50.066115,42.5556789 C50.5221942,42.3993542 51.0271718,42.5024634 51.3854601,42.8250704 C51.7437483,43.1476775 51.8990728,43.6391122 51.7912737,44.1090324 L51.7912737,44.1090324 L51.5256446,45.4092866 C51.3995999,46.0267823 50.8569462,46.4706709 50.2267185,46.4718061 C50.1375028,46.4720015 50.0484992,46.4631012 49.9610895,46.4452399 C49.6156084,46.3751581 49.3121609,46.1706039 49.1175977,45.8766416 C48.9230344,45.5826792 48.8533183,45.2234268 48.923808,44.8780285 L48.923808,44.8780285 L49.1894371,43.5777743 C49.2744883,43.1032093 49.6100357,42.7120036 50.066115,42.5556789 Z M5.55455253,27.1645551 C5.20859056,28.8589993 5.03680903,30.58438 5.04177904,32.3137743 L5.04177904,32.3137743 L26.9841764,44.2498158 C28.4462886,43.3070768 29.80809,42.2171906 31.0483009,40.9971881 C29.7573585,40.8875668 28.6016499,40.1534685 27.9537224,39.0315331 L27.9537224,39.0315331 L27.0638651,37.4988534 C26.8169633,37.0617636 26.3447175,36.801232 25.8432996,36.8254838 L25.8432996,36.8254838 L24.0410065,36.9118132 C22.5361777,36.9929447 21.1147911,36.2164274 20.370013,34.9063139 L20.370013,34.9063139 L19.4801556,33.3736342 C19.2359115,32.9337184 18.7620272,32.6717671 18.2595901,32.6989364 L18.2595901,32.6989364 L16.4586252,32.7879222 C14.9539416,32.8669014 13.533413,32.090339 12.7876316,30.7810947 L12.7876316,30.7810947 L11.8977743,29.2470869 C11.6506543,28.8095551 11.1777662,28.5489527 10.6758807,28.5737173 L10.6758807,28.5737173 L8.87491569,28.662703 C7.59127423,28.728095 6.35491894,28.1702514 5.55455253,27.1645551 Z M65.4021064,30.6336706 C58.8038807,29.2789624 54.2284202,32.1703346 51.0886848,36.2251621 C51.3111094,36.2650071 51.5400967,36.2457723 51.7527575,36.16938 L51.7527575,36.16938 L53.448799,35.5597613 C54.8652312,35.0428094 56.4522231,35.3720394 57.5461271,36.4097743 L57.5461271,36.4097743 L58.843725,37.6157302 C59.2059587,37.9655849 59.7363283,38.0775404 60.2090584,37.9039377 L60.2090584,37.9039377 L61.906428,37.2956472 C63.3228838,36.7790188 64.9097019,37.1082127 66.0037562,38.1456602 L66.0037562,38.1456602 L67.3000259,39.3516161 C67.6622596,39.7014708 68.1926292,39.8134263 68.6653593,39.6398236 L68.6653593,39.6398236 L70.3627289,39.0315331 C71.7789609,38.5148832 73.365572,38.8435199 74.4600571,39.8802179 L74.4600571,39.8802179 L75.757655,41.0875019 C75.9202687,41.2395064 76.1184787,41.3482023 76.33407,41.4036005 C76.1658383,40.7731742 75.9714864,40.1648837 75.7510143,39.5787289 C74.1988473,34.9261363 70.2258836,31.4954035 65.3967938,30.637655 L65.3967938,30.637655 Z M16.9646485,7.35792477 C13.7815218,10.2886136 11.1302858,13.7487012 9.12859144,17.5846433 C8.08002697,19.5016963 7.20355891,21.5079725 6.50948898,23.5798911 L6.50948898,23.5798911 L7.51755123,25.3449961 C7.76648634,25.7776198 8.23695975,26.0341484 8.73546044,26.0090687 L8.73546044,26.0090687 L10.5364254,25.9214112 C12.0424012,25.8367335 13.4657368,26.6148305 14.2074189,27.9282387 L14.2074189,27.9282387 L15.0972763,29.4609183 C15.3443963,29.8984501 15.8172844,30.1590525 16.3191699,30.1342879 L16.3191699,30.1342879 L18.1201349,30.0466304 C19.6259666,29.9625905 21.0489873,30.7405153 21.7911284,32.0534578 L21.7911284,32.0534578 L22.6796576,33.5861375 C22.9287896,34.0209676 23.3995272,34.2806673 23.9002231,34.2595071 L23.9002231,34.2595071 L25.7038444,34.1718495 C27.209101,34.0903491 28.6308693,34.8675894 29.3748379,36.178677 L29.3748379,36.178677 L30.2580545,37.7126848 C30.5051745,38.1502166 30.9780626,38.4108191 31.4799481,38.3860545 L31.4799481,38.3860545 L33.5159948,38.2731621 C34.8780431,36.5644639 36.0856441,34.7381731 37.1245655,32.8158132 C39.2593152,29.0496702 40.7251462,24.9420178 41.4569754,20.6752374 C40.4042862,20.4120773 39.5044574,19.7309704 38.9653748,18.7892711 L38.9653748,18.7892711 L38.0755175,17.2565914 C37.8287532,16.8185472 37.3557941,16.5573916 36.8536239,16.5818936 L36.8536239,16.5818936 L35.0526589,16.6708794 C33.5479754,16.7498586 32.1274467,15.9732962 31.3816654,14.6640519 L31.3816654,14.6640519 L30.491808,13.1313722 C30.2425837,12.6958174 29.7712883,12.4355804 29.2699144,12.4566744 L29.2699144,12.4566744 L27.4689494,12.5456602 C25.9642659,12.6246394 24.5437372,11.848077 23.7979559,10.5388327 L23.7979559,10.5388327 L22.9080986,9.0048249 C22.6627976,8.56612164 22.189462,8.3049888 21.6875331,8.33145525 L21.6875331,8.33145525 L19.8865681,8.42044099 C18.8082512,8.48091836 17.752249,8.09691755 16.9646485,7.35792477 Z M42.9909831,25.819144 C42.094484,28.685216 40.9145725,31.4548046 39.4687419,34.0868482 C39.2535824,34.477323 39.0251414,34.8465473 38.8046693,35.2263969 L38.8046693,35.2263969 L43.3389572,33.243476 C45.3502462,32.3589254 46.2658629,30.0131405 45.3856291,27.9999585 C44.9369957,26.9633183 44.0649468,26.1691396 42.9909831,25.819144 Z M32.9608301,29.3586511 C33.3114499,28.7142588 34.1180667,28.4761091 34.7624591,28.8267289 C35.4068515,29.1773488 35.6450012,29.9839657 35.2943813,30.628358 L35.2943813,30.628358 L34.6595279,31.7944695 C34.308908,32.438862 33.5022913,32.6770116 32.8578988,32.3263917 C32.2135064,31.9757718 31.9753568,31.1691551 32.3259767,30.5247626 L32.3259767,30.5247626 Z M30.7315383,25.1212036 C31.0821581,24.4768112 31.8887749,24.2386616 32.5331673,24.5892815 L32.5331673,24.5892815 L33.6992789,25.2241349 C34.3436713,25.5747547 34.5818209,26.3813715 34.231201,27.0257639 C33.8805812,27.6701564 33.0739644,27.908306 32.429572,27.5576861 L32.429572,27.5576861 L31.2634604,26.9228327 C30.619068,26.5722128 30.3809184,25.7655961 30.7315383,25.1212036 Z M22.4684825,23.6409857 C22.8191023,22.9965933 23.6257191,22.7584437 24.2701115,23.1090636 C24.914504,23.4596834 25.1526536,24.2663002 24.8020337,24.9106926 L24.8020337,24.9106926 L24.1671803,26.0781323 C23.8165604,26.7225247 23.0099437,26.9606743 22.3655512,26.6100545 C21.7211588,26.2594346 21.4830092,25.4528179 21.8336291,24.8084254 L21.8336291,24.8084254 Z M36.1350973,23.5267652 C36.4912882,22.8945676 37.2889414,22.6652679 37.9264853,23.0117986 C38.5640293,23.3583293 38.8054388,24.1524013 38.4686485,24.795144 L38.4686485,24.795144 L37.8351232,25.9625837 C37.4843457,26.6064142 36.6782103,26.8442122 36.0341582,26.4938418 C35.3906219,26.1435595 35.1523115,25.3382964 35.501572,24.6942049 L35.501572,24.6942049 Z M26.0650999,22.5784695 C26.4153821,21.9349332 27.2206452,21.6966228 27.8647367,22.0458833 L27.8647367,22.0458833 L29.0308482,22.6807367 C29.4644478,22.8981559 29.7450358,23.334661 29.762783,23.8193926 C29.7805302,24.3041241 29.5326137,24.7599789 29.1160743,25.0085239 C28.6995348,25.2570689 28.180629,25.2587693 27.7624695,25.0129598 L27.7624695,25.0129598 L26.596358,24.3794345 C25.9525275,24.028657 25.7147294,23.2225216 26.0650999,22.5784695 Z M20.2312218,19.4088508 C20.5818416,18.7644584 21.3884584,18.5263088 22.0328508,18.8769287 L22.0328508,18.8769287 L23.2002905,19.5117821 C23.7349282,19.8017979 24.0042406,20.417924 23.8539934,21.007307 C23.7037462,21.5966901 23.1723398,22.0086945 22.5641089,22.0073703 C22.3426367,22.00774 22.1246804,21.9519943 21.9305837,21.8453333 L21.9305837,21.8453333 L20.763144,21.2104799 C20.1187515,20.85986 19.8806019,20.0532433 20.2312218,19.4088508 Z M11.9615253,17.9299611 C12.3132454,17.2855688 13.1207541,17.048311 13.7651466,17.4000311 C14.4095389,17.7517512 14.6467966,18.55926 14.2950765,19.2036524 L14.2950765,19.2036524 L13.6602231,20.3697639 C13.4278873,20.7978576 12.9798605,21.0644311 12.4927834,21.0643845 C12.2717536,21.0645902 12.0542675,21.0088479 11.8605863,20.9023502 C11.5497474,20.7341209 11.3187835,20.4489328 11.2188244,20.1099195 C11.1188653,19.7709062 11.1581565,19.4060324 11.328,19.0960726 L11.328,19.0960726 Z M25.6361089,17.8130843 C25.99642,17.1891396 26.7885041,16.966271 27.4213096,17.3107824 C28.0541152,17.6552939 28.2968261,18.4415248 27.968332,19.0827912 L27.968332,19.0827912 L27.3334786,20.2502309 C26.9827011,20.8940614 26.1765657,21.1318594 25.5325136,20.781489 C24.8886831,20.4307115 24.6508851,19.624576 25.0012555,18.980524 L25.0012555,18.980524 Z M15.5621271,16.8674449 C15.9124094,16.2239086 16.7176725,15.9855981 17.3617639,16.3348586 L17.3617639,16.3348586 L18.5278755,16.9697121 C19.1600732,17.325903 19.3893728,18.1235562 19.0428422,18.7611001 C18.6963114,19.398644 17.9022394,19.6400536 17.2594968,19.3032633 L17.2594968,19.3032633 L16.0933852,18.6684099 C15.4495547,18.3176323 15.2117567,17.5114969 15.5621271,16.8674449 Z M34.4217899,4.4479585 C30.1752562,1.99383063 24.9266262,2.05854675 20.7418936,4.61663294 C20.1946978,4.92387721 19.6541427,5.26343969 19.1202283,5.63532036 C19.315042,5.72922521 19.529622,5.77478361 19.7457847,5.76813489 L19.7457847,5.76813489 L21.5467497,5.67914916 C23.0514332,5.6001699 24.4719619,6.37673237 25.2177432,7.68597665 L25.2177432,7.68597665 L26.1076005,9.21998444 C26.3545023,9.65707425 26.8267481,9.91760595 27.328166,9.89335409 L27.328166,9.89335409 L29.129131,9.80436835 C30.6342814,9.72487546 32.0554529,10.5015084 32.8014527,11.8111958 L32.8014527,11.8111958 L33.69131,13.3438755 C33.9353202,13.7840257 34.4093643,14.0460654 34.9118755,14.0185733 L34.9118755,14.0185733 L36.7128405,13.9295875 C38.2193521,13.8456107 39.6429325,14.6240748 40.3851621,15.9377432 L40.3851621,15.9377432 L41.2776757,17.4690947 C41.3895809,17.6615254 41.548058,17.8227427 41.7385422,17.93793 C41.760678,17.2862533 41.7522663,16.6483009 41.7133074,16.0240726 C41.5873588,11.1208694 38.7896928,6.67925609 34.4217899,4.4479585 Z M15.1344643,12.1007315 C15.4850842,11.4563392 16.2917009,11.2181895 16.9360934,11.5688094 C17.5804857,11.9194292 17.8186354,12.726046 17.4680156,13.3704384 L17.4680156,13.3704384 L16.8331621,14.5378781 C16.6647058,14.8474216 16.3801322,15.0773242 16.0420992,15.1769655 C15.704066,15.2766068 15.3402905,15.2378167 15.030869,15.0691362 C14.3870385,14.7183587 14.1492405,13.9122232 14.4996109,13.2681712 L14.4996109,13.2681712 Z" id="Combined-Shape"></path>
                </g>
            </g>
        </g>
    </g>
</svg>