<svg xmlns="http://www.w3.org/2000/svg" width="117" height="24" viewBox="0 0 117 24">
    <g fill="none">
        <g>
            <path fill="#000" d="M23.932 12.474c-.15-.862-.723-4.495-.78-6.543.01-.869-.204-1.433-.634-1.677-.33-.186-.757-.16-1.173.074-.27.152-.49.399-.674.76l-.104-.16c-.156-.241-.313-.489-.465-.728-.357-.565-.727-1.148-1.129-1.702l-.16-.221C18.295 1.559 17.71.745 17.248.406c-.506-.372-1.05-.47-1.495-.269-.192.087-.35.224-.459.39l-.07-.029c-.506-.198-1.082-.155-1.467.11-.325.223-.493.584-.475 1.017-.21.107-.49.303-.69.638-.253.425-.313.953-.178 1.57-.189.175-.326.387-.424.596-.1-.21-.236-.42-.425-.597.135-.617.075-1.144-.179-1.57-.2-.334-.48-.53-.689-.637.018-.433-.15-.794-.475-1.017C9.837.343 9.262.3 8.755.498l-.07.03C8.575.36 8.418.224 8.226.137c-.444-.201-.99-.103-1.495.269-.46.34-1.047 1.153-1.565 1.87l-.16.222c-.403.555-.773 1.139-1.13 1.704-.152.239-.308.486-.464.726l-.104.16c-.183-.361-.404-.608-.674-.76-.416-.233-.844-.26-1.173-.074-.43.244-.644.808-.635 1.677-.055 2.044-.628 5.68-.779 6.543-.09.519-.052 1 .118 1.472.338.944 1.676 2.943 2.443 4.05l.578-.376C1.93 15.808 1.047 14.352.822 13.724c-.13-.362-.159-.734-.088-1.137.152-.874.733-4.562.789-6.644V5.93c-.01-.856.22-1.053.29-1.093.156-.088.401.036.473.076.236.132.44.47.606 1.003.514 1.822.63 3.766.5 5.644 1.078-.21 2.117.534 2.818 1.255-.592-.694-1.584-1.553-2.59-1.492.23-1.73.218-3.553-.112-5.274.007-.008.014-.017.02-.027l.134-.208.339-.526c.158-.244.316-.492.468-.733.352-.556.716-1.13 1.106-1.668l.161-.223c.44-.61 1.043-1.445 1.417-1.72.292-.216.576-.287.779-.195.133.06.323.266.113 1.181-.459 1.996-1.706 3.802-2.79 5.531 1.25-1.655 3.374-3.952 3.523-6.18.025-.024.114-.109.237-.157.284-.11.614-.096.805.034.132.091.192.236.182.443-.002.047-.015.135-.023.18v.01h-.001C9.54 3.817 8.62 5.715 7.646 7.543c1.066-1.688 2.08-3.444 2.688-5.343.256.113.833.505.506 1.668 0 .003 0 .007-.002.01-.408 1.467-.988 2.89-1.643 4.27.731-1.214 1.402-2.472 1.939-3.779.353.378.412 1 .415 1.044.028.607-.15 2.012-1.653 4.62-.44.76-.103 1.36.222 1.939.225.4.48.855.565 1.46.149 1.052-.43 2.836-1.405 4.34l.59.36c1.071-1.652 1.676-3.578 1.505-4.792-.103-.727-.403-1.261-.644-1.691-.33-.59-.467-.869-.226-1.287.804-1.394 1.248-2.479 1.487-3.299.239.82.683 1.905 1.486 3.3.242.417.105.696-.226 1.286-.24.43-.54.964-.643 1.691-.172 1.214.433 3.14 1.506 4.792l.589-.36c-.976-1.504-1.554-3.288-1.405-4.34.085-.605.34-1.06.565-1.46.325-.58.66-1.178.222-1.94-1.503-2.606-1.682-4.011-1.654-4.619.004-.043.063-.666.416-1.044.537 1.308 1.208 2.565 1.938 3.778-.654-1.379-1.234-2.802-1.643-4.269 0-.003 0-.007-.002-.01-.327-1.166.253-1.557.506-1.668.609 1.899 1.623 3.655 2.688 5.343-.974-1.828-2.25-5.09-2.355-5.941-.026-.206.05-.352.182-.443.19-.131.521-.145.805-.034.124.048.214.135.236.157.15 2.227 2.274 4.524 3.523 6.18-1.148-1.832-2.907-4.139-2.902-6.39.011-.141.096-.264.226-.323.203-.092.487-.02.78.195.373.275.976 1.11 1.415 1.72l.162.223c.389.537.753 1.11 1.104 1.666.153.241.311.49.47.735l.33.513.142.222c.006.01.013.018.02.027-.33 1.72-.342 3.542-.112 5.273-1.005-.06-1.997.799-2.59 1.492.702-.721 1.74-1.465 2.818-1.255-.13-1.877-.014-3.821.5-5.643.167-.533.37-.872.607-1.004.071-.04.317-.164.473-.076.07.04.3.237.29 1.093v.013c.056 2.086.636 5.771.789 6.644.07.403.041.775-.089 1.138-.225.627-1.108 2.084-2.363 3.895l.577.377c.768-1.108 2.106-3.107 2.444-4.05.169-.473.207-.954.117-1.473z" transform="translate(0 1)"/>
            <g>
                <path fill="#4A94CC" d="M7.783 7.483c-1.471-3.277.037-6.002.037-6.133H2.284c0 .131 1.508 2.856.037 6.133h.015S-2 9.375 2.07 16.84H8.05c4.07-7.465-.267-9.357-.267-9.357z" transform="translate(0 1) translate(7.09 3.21)"/>
                <path fill="#378BBF" d="M2.863 7.844c.085-.048.213-.172.314-.378 1.274-3.168-.116-5.988-.116-6.116h-.777c0 .131 1.508 2.856.037 6.133h.015S-2 9.375 2.07 16.84h.777c-3.508-6.433-.798-8.538.017-8.996z" transform="translate(0 1) translate(7.09 3.21)"/>
                <path fill="#49B5CE" d="M.675 13.553h8.769c.282-.994.374-1.838.342-2.551H.333c-.032.713.06 1.556.342 2.55z" transform="translate(0 1) translate(7.09 3.21)"/>
                <path fill="#36A1B2" d="M1.444 13.553c-.29-1.007-.379-1.849-.34-2.551H.332c-.041.93.12 1.705.342 2.55h.769z" transform="translate(0 1) translate(7.09 3.21)"/>
                <path fill="#49B5CE" d="M7.231 3.347c.187-1.17.59-1.93.59-1.997H2.283c0 .068.402.827.589 1.997H7.23z" transform="translate(0 1) translate(7.09 3.21)"/>
                <path fill="#36A1B2" d="M2.425 1.712c.238.611.349 1.072.448 1.635h.737c-.185-1.161-.549-1.932-.549-1.997h-.777c0 .02.133.342.14.362z" transform="translate(0 1) translate(7.09 3.21)"/>
                <g fill="#2571A0">
                    <path d="M7.71.798V.625C7.71.28 7.426 0 7.075 0H.652C.3 0 .015.28.015.625v.173c0 .345.285.625.637.625h6.422c.351 0 .637-.28.637-.625zM7.71 17.561v-.173c0-.345-.285-.625-.636-.625H.652c-.352 0-.637.28-.637.625v.173c0 .345.285.625.637.625h6.422c.351 0 .637-.28.637-.625z" transform="translate(0 1) translate(7.09 3.21) translate(1.16)"/>
                </g>
                <g fill="#1A678E">
                    <path d="M7.074.355H.652C.4.355.181.21.078 0 .038.082.015.173.015.27v.173c0 .345.285.625.637.625h6.422c.351 0 .637-.28.637-.625V.27c0-.097-.023-.188-.063-.27-.103.21-.321.355-.574.355zM7.074 17.118H.652c-.253 0-.471-.145-.574-.355-.075.154-.063.263-.063.443 0 .345.285.625.637.625h6.422c.351 0 .637-.28.637-.625v-.173c0-.097-.023-.188-.063-.27-.103.21-.321.355-.574.355z" transform="translate(0 1) translate(7.09 3.21) translate(1.16 .355)"/>
                </g>
                <g fill="#2571A0">
                    <path d="M9.833.55H.309C.155.55.03.425.03.274.03.124.156 0 .31 0h9.524c.154 0 .28.123.28.274 0 .151-.126.274-.28.274zM9.494 3.1H.614c-.154 0-.28-.123-.28-.274 0-.152.126-.274.28-.274h8.88c.154 0 .28.122.28.274 0 .151-.126.274-.28.274z" transform="translate(0 1) translate(7.09 3.21) translate(0 10.727)"/>
                </g>
            </g>
        </g>
        <path fill="#262626" d="M36.128 17l.868-4.34h5.628L41.756 17h1.4l1.96-9.8h-1.4l-.84 4.2h-5.628l.84-4.2h-1.4l-1.96 9.8h1.4zm13.048.084c.523 0 1.006-.086 1.449-.259.443-.173.833-.418 1.169-.735l-.182.91H52.9l1.47-7.42h-1.344l-.252 1.26c-.243-.439-.59-.77-1.043-.994-.453-.224-.996-.336-1.631-.336-.793 0-1.51.187-2.149.56-.64.373-1.141.891-1.505 1.554-.364.663-.546 1.414-.546 2.254 0 .653.14 1.223.42 1.708.28.485.667.856 1.162 1.113.495.257 1.06.385 1.694.385zm.294-1.176c-.7 0-1.244-.184-1.631-.553-.387-.369-.581-.88-.581-1.533 0-.607.126-1.148.378-1.624.252-.476.597-.847 1.036-1.113.439-.266.933-.399 1.484-.399.71 0 1.255.182 1.638.546.383.364.574.877.574 1.54 0 .607-.124 1.148-.371 1.624-.247.476-.593.847-1.036 1.113-.443.266-.94.399-1.491.399zM56.806 17l.784-3.92c.159-.784.474-1.374.945-1.771.471-.397 1.071-.595 1.799-.595.57 0 .999.13 1.288.392.29.261.434.635.434 1.12 0 .159-.023.364-.07.616L61.16 17h1.344l.826-4.158c.056-.308.084-.597.084-.868 0-.784-.236-1.39-.707-1.82-.471-.43-1.132-.644-1.981-.644-1.12 0-2.016.34-2.688 1.022l.182-.952h-1.288L55.462 17h1.344zm11.452.084c.523 0 1.006-.086 1.449-.259.443-.173.833-.418 1.169-.735l-.182.91h1.288l2.072-10.388H72.71l-.84 4.242c-.233-.439-.581-.772-1.043-1.001-.462-.229-1.01-.343-1.645-.343-.793 0-1.51.187-2.149.56-.64.373-1.141.891-1.505 1.554-.364.663-.546 1.414-.546 2.254 0 .653.14 1.223.42 1.708.28.485.667.856 1.162 1.113.495.257 1.06.385 1.694.385zm.294-1.176c-.7 0-1.244-.184-1.631-.553-.387-.369-.581-.88-.581-1.533 0-.607.126-1.148.378-1.624.252-.476.597-.847 1.036-1.113.439-.266.933-.399 1.484-.399.71 0 1.255.182 1.638.546.383.364.574.877.574 1.54 0 .607-.124 1.148-.371 1.624-.247.476-.593.847-1.036 1.113-.443.266-.94.399-1.491.399zM75.888 17l.784-3.92c.159-.793.46-1.386.903-1.778.443-.392 1.01-.588 1.701-.588.55 0 .964.128 1.239.385.275.257.413.628.413 1.113 0 .168-.023.378-.07.63L80.018 17h1.344l.798-3.962c.159-.775.46-1.356.903-1.743s1.01-.581 1.701-.581c.55 0 .961.126 1.232.378.27.252.406.62.406 1.106 0 .168-.023.383-.07.644L85.506 17h1.344l.826-4.158c.065-.373.098-.667.098-.882 0-.784-.236-1.388-.707-1.813-.471-.425-1.127-.637-1.967-.637-1.26 0-2.268.439-3.024 1.316-.187-.43-.485-.756-.896-.98-.41-.224-.905-.336-1.484-.336-1.064 0-1.923.331-2.576.994l.182-.924h-1.288L74.544 17h1.344zm16.716.084c.523 0 1.006-.086 1.449-.259.443-.173.833-.418 1.169-.735l-.182.91h1.288l1.47-7.42h-1.344l-.252 1.26c-.243-.439-.59-.77-1.043-.994-.453-.224-.996-.336-1.631-.336-.793 0-1.51.187-2.149.56-.64.373-1.141.891-1.505 1.554-.364.663-.546 1.414-.546 2.254 0 .653.14 1.223.42 1.708.28.485.667.856 1.162 1.113.495.257 1.06.385 1.694.385zm.294-1.176c-.7 0-1.244-.184-1.631-.553-.387-.369-.581-.88-.581-1.533 0-.607.126-1.148.378-1.624.252-.476.597-.847 1.036-1.113.439-.266.933-.399 1.484-.399.71 0 1.255.182 1.638.546.383.364.574.877.574 1.54 0 .607-.124 1.148-.371 1.624-.247.476-.593.847-1.036 1.113-.443.266-.94.399-1.491.399zm9.254 1.176c.523 0 1.006-.086 1.449-.259.443-.173.833-.418 1.169-.735l-.182.91h1.288l2.072-10.388h-1.344l-.84 4.242c-.233-.439-.581-.772-1.043-1.001-.462-.229-1.01-.343-1.645-.343-.793 0-1.51.187-2.149.56-.64.373-1.141.891-1.505 1.554-.364.663-.546 1.414-.546 2.254 0 .653.14 1.223.42 1.708.28.485.667.856 1.162 1.113.495.257 1.06.385 1.694.385zm.294-1.176c-.7 0-1.244-.184-1.631-.553-.387-.369-.581-.88-.581-1.533 0-.607.126-1.148.378-1.624.252-.476.597-.847 1.036-1.113.439-.266.933-.399 1.484-.399.71 0 1.255.182 1.638.546.383.364.574.877.574 1.54 0 .607-.124 1.148-.371 1.624-.247.476-.593.847-1.036 1.113-.443.266-.94.399-1.491.399zm9.534 1.176c.579 0 1.13-.093 1.652-.28.523-.187.966-.448 1.33-.784l-.574-.966c-.27.261-.607.469-1.008.623-.401.154-.83.231-1.288.231-.784 0-1.372-.18-1.764-.539-.392-.36-.588-.884-.588-1.575v-.084h6.09c.065-.364.098-.695.098-.994 0-.99-.301-1.771-.903-2.345-.602-.574-1.407-.861-2.415-.861-.793 0-1.51.187-2.149.56-.64.373-1.139.891-1.498 1.554-.36.663-.539 1.41-.539 2.24 0 .653.145 1.223.434 1.708.29.485.7.859 1.232 1.12.532.261 1.162.392 1.89.392zm2.688-4.354h-4.788c.168-.653.49-1.167.966-1.54s1.045-.56 1.708-.56c.672 0 1.202.184 1.589.553.387.369.562.884.525 1.547z"/>
    </g>
</svg>
