<svg xmlns="http://www.w3.org/2000/svg" width="26" height="26" viewBox="0 0 26 26">
    <path fill="#777" fill-rule="evenodd" d="M14.216 0c2.433.005 2.924.024 4.134.081 1.378.06 2.32.284 3.147.603.861.324 1.647.836 2.296 1.495.664.65 1.17 1.43 1.5 2.301.32.821.542 1.77.603 3.148.06 1.383.066 1.824.066 5.347 0 3.522-.015 3.963-.076 5.347-.06 1.378-.284 2.32-.603 3.147-.674 1.743-2.053 3.122-3.796 3.796-.821.32-1.769.542-3.148.603-1.205.053-1.695.072-4.128.075h-2.437c-2.433-.003-2.924-.022-4.129-.075-1.378-.06-2.32-.284-3.147-.603-.862-.324-1.647-.836-2.296-1.495-.659-.649-1.17-1.43-1.5-2.3-.32-.822-.542-1.77-.603-3.148-.053-1.205-.072-1.695-.075-4.13v-2.436c.004-2.433.023-2.924.08-4.133.06-1.379.284-2.322.603-3.148.324-.861.836-1.647 1.495-2.296.649-.664 1.43-1.17 2.301-1.5C5.324.36 6.272.137 7.65.076 8.856.023 9.346.005 11.78.001zm-.284 2.357h-1.847c-2.627.003-3.082.02-4.318.076-1.262.056-1.951.268-2.407.446-.563.207-1.07.537-1.49.968-.436.415-.766.927-.974 1.49-.177.456-.39 1.14-.445 2.407-.057 1.276-.074 1.722-.076 4.608v1.266c.002 2.885.019 3.327.076 4.607.055 1.262.268 1.952.445 2.408.208.562.538 1.07.969 1.49.415.43.927.76 1.49.968.456.177 1.14.39 2.407.446 1.231.055 1.69.072 4.318.075h1.845c2.628-.003 3.082-.02 4.318-.075 1.262-.056 1.951-.269 2.407-.446 1.13-.436 2.028-1.333 2.464-2.463.177-.456.39-1.14.446-2.408.055-1.236.072-1.686.075-4.312v-1.846c-.003-2.627-.02-3.082-.075-4.318-.056-1.262-.269-1.951-.446-2.407-.208-.563-.538-1.07-.968-1.49-.416-.431-.928-.76-1.49-.968-.457-.178-1.14-.39-2.408-.446-1.231-.055-1.685-.073-4.316-.076zm-.935 3.953c3.68 0 6.665 2.985 6.665 6.665s-2.985 6.664-6.665 6.664c-3.679 0-6.664-2.985-6.664-6.664 0-3.68 2.985-6.665 6.664-6.665zm0 2.341c-2.387 0-4.323 1.936-4.323 4.324 0 2.387 1.936 4.323 4.323 4.323 2.388 0 4.324-1.936 4.324-4.323 0-2.388-1.936-4.324-4.324-4.324zm6.929-4.16c.86 0 1.556.696 1.556 1.555 0 .86-.697 1.556-1.556 1.556-.86 0-1.556-.696-1.556-1.556 0-.859.696-1.555 1.556-1.555z"/>
</svg>
