<svg xmlns="http://www.w3.org/2000/svg" width="26" height="26" viewBox="0 0 26 26">
    <path fill-rule="evenodd" d="M12.357 0c3.025 0 5.485 2.41 5.485 5.371v4.176h1.83c1.68 0 3.047 1.367 3.047 3.047v10.36c0 1.68-1.367 3.046-3.047 3.046H5.047C3.367 26 2 24.633 2 22.953v-10.36c0-1.68 1.367-3.046 3.047-3.046h1.826V5.37C6.873 2.41 9.333 0 12.357 0zm7.315 11.578H5.047c-.56 0-1.016.456-1.016 1.016v10.36c0 .56.456 1.015 1.016 1.015h14.625c.56 0 1.015-.456 1.015-1.016v-10.36c0-.56-.455-1.015-1.015-1.015zm-7.313 2.945c1.038 0 1.88.842 1.88 1.88 0 .664-.346 1.247-.866 1.58v2.228c0 .56-.455 1.016-1.016 1.016-.56 0-1.015-.455-1.015-1.016v-2.23c-.518-.334-.862-.916-.862-1.579 0-1.037.842-1.879 1.88-1.879zm-.002-12.492c-1.904 0-3.453 1.498-3.453 3.34v4.176h6.907V5.37c0-1.842-1.55-3.34-3.454-3.34z"/>
</svg>
