<svg xmlns="http://www.w3.org/2000/svg" width="30" height="30" viewBox="0 0 30 30">
    <g fill="none">
        <path fill="#E82934" d="M30 14.319c0 7.477-6.006 13.616-13.665 14.26-.105.01-.195-.075-.195-.18v-1.312c0-.093.072-.17.165-.18 6.708-.625 11.95-6.023 11.95-12.588C28.253 7.33 22.32 1.667 15 1.667c-7.32 0-13.254 5.664-13.254 12.652 0 6.163 4.618 11.296 10.73 12.42 1.085-1.207 1.6-3.938 1.752-6.236v-.004c.01-.134-.132-.227-.251-.165l-3.495 1.814c-.067.037-.147-.009-.154-.088-.05-.488-.405-1.81-2.823-.89-.094.037-.18-.074-.128-.166.373-.653 1.095-2.23-.17-2.914-.072-.04-.08-.147-.012-.196l1.156-.843.014-.011c.314-.289.229-.83-.16-.993l-2.48-1.04c-.077-.032-.092-.142-.026-.196.454-.367 1.579-1.589-.4-3.562-.08-.08-.006-.223.1-.193 1.016.285 3.29.647 3.061-1.924-.008-.097.093-.16.168-.105l2.503 1.832c.433.316 1.01-.078.922-.628l-.524-3.228c-.015-.095.08-.167.16-.118.446.273 1.537.734 2.179-.772.564-1.324.888-2.083 1.034-2.429.039-.089.158-.089.196 0l1.034 2.429c.642 1.506 1.732 1.045 2.18.772.079-.049.174.023.159.118l-.523 3.228c-.09.55.488.944.921.628l2.504-1.832c.074-.054.175.008.167.105-.229 2.57 2.046 2.209 3.06 1.924.108-.03.181.113.1.193-1.977 1.973-.853 3.195-.4 3.562.067.054.052.164-.025.197l-2.48 1.039c-.389.163-.474.704-.16.993l.014.011 1.156.843c.067.049.06.156-.012.196-1.264.683-.543 2.261-.17 2.914.053.092-.033.203-.128.166-2.418-.92-2.772.402-2.823.89-.007.08-.088.125-.154.088l-3.65-1.708c-.111-.052-.24.025-.246.147-.009.173-.02.358-.034.553-.115 1.638-.416 3.986-.819 5.942 0 0-.452 1.898-.798 2.215-.314-.018-.445-.727-.753-.761-.438-.05-.87-.117-1.295-.202C5.114 26.979 0 21.219 0 14.319 0 6.41 6.716 0 15 0c8.284 0 15 6.41 15 14.319z"/>
        <g fill="#C7232C">
            <path d="M11.562 6.942l.05-.045c-.019.012-.036.027-.05.045zM24.6 11.056c-.422.118-1.063.25-1.651.178l-.016.019c-1.977 1.973-.853 3.195-.4 3.562.068.054.053.164-.025.197l-2.48 1.04c-.39.162-.474.707-.157.994l.012.01 1.156.841c.067.05.06.157-.013.196-1.182.64-.627 2.062-.245 2.778.406-.057.96.012 1.714.3.095.036.18-.075.128-.166-.373-.654-1.094-2.231.17-2.915.073-.04.08-.147.012-.196l-1.156-.842-.011-.01c-.317-.287-.233-.831.157-.995l2.48-1.039c.077-.032.092-.143.026-.196-.454-.368-1.578-1.59.4-3.563.08-.08.007-.224-.1-.193zM15.588 21.14c-.115 1.638-.416 3.986-.819 5.942 0 0-.452 1.898-.798 2.215-.314-.018-.445-.727-.753-.761-.438-.05-.87-.117-1.295-.202 0-.032-.01-.05-.027-.052.217-.633.58-1.542.58-1.542 1.085-1.208 1.6-3.939 1.752-6.237l1.36.637z"/>
            <path d="M15 0c-.307 0-.612.01-.914.028 7.157.382 12.973 5.554 13.99 12.212.116.677.178 1.37.178 2.078 0 .687-.058 1.361-.169 2.019-.89 6.04-5.73 10.869-11.945 12.034v.028c0 .106.09.19.195.18C23.995 27.936 30 21.797 30 14.32 30 6.41 23.284 0 15 0zM.151 12.286C.052 12.95 0 13.628 0 14.318c0 .706.054 1.4.157 2.077.9 5.214 4.534 8.979 9.946 9.974.456.075.887.01.887.01-5.36-1.622-9.244-6.408-9.244-12.06 0-6.694 5.447-12.173 12.34-12.621-.282-.018-.566-.027-.853-.027C6.64 1.67 1.172 6.267.151 12.286z"/>
        </g>
    </g>
</svg>
