<svg xmlns="http://www.w3.org/2000/svg" width="127" height="24" viewBox="0 0 127 24">
    <g fill="none">
        <path fill="#FF637B" d="M12 0C5.405 0 0 5.405 0 12s5.405 12 12 12 12-5.405 12-12S18.595 0 12 0z"/>
        <path fill="#E63950" d="M24 12c0 6.595-5.405 12-12 12V0c6.595 0 12 5.405 12 12z"/>
        <path fill="#F2F6FC" d="M12 2.86c-5.034 0-9.14 4.106-9.14 9.14 0 5.034 4.106 9.14 9.14 9.14 5.034 0 9.14-4.106 9.14-9.14 0-5.034-4.106-9.14-9.14-9.14z"/>
        <path fill="#DCE1EB" d="M21.14 12c0 5.034-4.106 9.14-9.14 9.14V2.86c5.034 0 9.14 4.106 9.14 9.14z"/>
        <path fill="#0082FF" d="M12 5.672c-3.487 0-6.328 2.84-6.328 6.328 0 3.487 2.84 6.328 6.328 6.328 3.487 0 6.328-2.84 6.328-6.328 0-3.488-2.84-6.328-6.328-6.328z"/>
        <path fill="#0050C3" d="M18.328 12c0 3.487-2.84 6.328-6.328 6.328V5.672c3.487 0 6.328 2.84 6.328 6.328z"/>
        <path fill="#F2F6FC" d="M16.177 10.65L13.294 10.214 12 7.612 10.706 10.214 7.823 10.65 9.905 12.689 9.427 15.544 12 14.208 14.573 15.544 14.095 12.689z"/>
        <path fill="#DCE1EB" d="M14.095 12.689L14.573 15.544 12 14.208 12 7.612 13.294 10.214 16.177 10.65z"/>
        <path fill="#262626" d="M36.072 17l1.442-7.224 2.45 6.034h.644l4.634-5.894L43.814 17h1.344l1.96-9.8h-1.204l-5.362 6.902-2.73-6.902h-1.134l-1.96 9.8h1.344zm15.106.084c.523 0 1.006-.086 1.449-.259.443-.173.833-.418 1.169-.735l-.182.91h1.288l1.47-7.42h-1.344l-.252 1.26c-.243-.439-.59-.77-1.043-.994-.453-.224-.996-.336-1.631-.336-.793 0-1.51.187-2.149.56-.64.373-1.141.891-1.505 1.554-.364.663-.546 1.414-.546 2.254 0 .653.14 1.223.42 1.708.28.485.667.856 1.162 1.113.495.257 1.06.385 1.694.385zm.294-1.176c-.7 0-1.244-.184-1.631-.553-.387-.369-.581-.88-.581-1.533 0-.607.126-1.148.378-1.624.252-.476.597-.847 1.036-1.113.439-.266.933-.399 1.484-.399.71 0 1.255.182 1.638.546.383.364.574.877.574 1.54 0 .607-.124 1.148-.371 1.624-.247.476-.593.847-1.036 1.113-.443.266-.94.399-1.491.399zm9.254 1.176c.523 0 1.006-.086 1.449-.259.443-.173.833-.418 1.169-.735l-.182.91h1.288l2.072-10.388h-1.344l-.84 4.242c-.233-.439-.581-.772-1.043-1.001-.462-.229-1.01-.343-1.645-.343-.793 0-1.51.187-2.149.56-.64.373-1.141.891-1.505 1.554-.364.663-.546 1.414-.546 2.254 0 .653.14 1.223.42 1.708.28.485.667.856 1.162 1.113.495.257 1.06.385 1.694.385zm.294-1.176c-.7 0-1.244-.184-1.631-.553-.387-.369-.581-.88-.581-1.533 0-.607.126-1.148.378-1.624.252-.476.597-.847 1.036-1.113.439-.266.933-.399 1.484-.399.71 0 1.255.182 1.638.546.383.364.574.877.574 1.54 0 .607-.124 1.148-.371 1.624-.247.476-.593.847-1.036 1.113-.443.266-.94.399-1.491.399zm9.534 1.176c.579 0 1.13-.093 1.652-.28.523-.187.966-.448 1.33-.784l-.574-.966c-.27.261-.607.469-1.008.623-.401.154-.83.231-1.288.231-.784 0-1.372-.18-1.764-.539-.392-.36-.588-.884-.588-1.575v-.084h6.09c.065-.364.098-.695.098-.994 0-.99-.301-1.771-.903-2.345-.602-.574-1.407-.861-2.415-.861-.793 0-1.51.187-2.149.56-.64.373-1.139.891-1.498 1.554-.36.663-.539 1.41-.539 2.24 0 .653.145 1.223.434 1.708.29.485.7.859 1.232 1.12.532.261 1.162.392 1.89.392zm2.688-4.354h-4.788c.168-.653.49-1.167.966-1.54s1.045-.56 1.708-.56c.672 0 1.202.184 1.589.553.387.369.562.884.525 1.547zm8.624-4.578c.29 0 .525-.089.707-.266.182-.177.273-.41.273-.7 0-.215-.082-.399-.245-.553-.163-.154-.366-.231-.609-.231-.28 0-.511.091-.693.273-.182.182-.273.404-.273.665 0 .224.08.415.238.574.159.159.36.238.602.238zM80.676 17l1.47-7.42h-1.344L79.332 17h1.344zm3.906 0l.784-3.92c.159-.784.474-1.374.945-1.771.471-.397 1.071-.595 1.799-.595.57 0 .999.13 1.288.392.29.261.434.635.434 1.12 0 .159-.023.364-.07.616L88.936 17h1.344l.826-4.158c.056-.308.084-.597.084-.868 0-.784-.236-1.39-.707-1.82-.471-.43-1.132-.644-1.981-.644-1.12 0-2.016.34-2.688 1.022l.182-.952h-1.288L83.238 17h1.344zm16.478.112c1.27 0 2.298-.357 3.087-1.071.789-.714 1.328-1.78 1.617-3.199l1.12-5.642h-1.372l-1.106 5.544c-.215 1.073-.586 1.862-1.113 2.366s-1.23.756-2.107.756c-.784 0-1.381-.184-1.792-.553-.41-.369-.616-.912-.616-1.631 0-.299.033-.607.098-.924l1.12-5.558h-1.4l-1.106 5.572c-.075.401-.112.756-.112 1.064 0 1.027.324 1.83.973 2.408.649.579 1.552.868 2.709.868zm9.758 0c.812 0 1.53-.124 2.156-.371.625-.247 1.113-.6 1.463-1.057.35-.457.525-.999.525-1.624 0-.504-.133-.915-.399-1.232-.266-.317-.588-.558-.966-.721-.378-.163-.875-.338-1.491-.525-.495-.15-.884-.28-1.169-.392-.285-.112-.523-.266-.714-.462-.191-.196-.287-.439-.287-.728 0-.523.238-.94.714-1.253.476-.313 1.115-.469 1.918-.469.504 0 .982.065 1.435.196.453.13.861.327 1.225.588l.56-1.148c-.401-.261-.875-.464-1.421-.609-.546-.145-1.122-.217-1.729-.217-.793 0-1.498.124-2.114.371-.616.247-1.097.6-1.442 1.057-.345.457-.518.994-.518 1.61 0 .541.138.978.413 1.309.275.331.604.581.987.749.383.168.887.345 1.512.532.495.15.877.28 1.148.392.27.112.5.261.686.448.187.187.28.42.28.7 0 .523-.24.931-.721 1.225-.48.294-1.122.441-1.925.441-.607 0-1.195-.1-1.764-.301-.57-.2-1.04-.474-1.414-.819l-.616 1.12c.364.345.884.63 1.561.854.677.224 1.379.336 2.107.336zm5.698-.112l1.554-2.45h5.236l.588 2.45h1.386l-2.478-9.8h-1.386l-6.412 9.8h1.512zm6.51-3.57h-4.242l3.08-4.83 1.162 4.83z"/>
    </g>
</svg>
