<svg xmlns="http://www.w3.org/2000/svg" width="30" height="30" viewBox="0 0 30 30">
    <g fill="none">
        <path fill="#FF637B" d="M15 0C6.756 0 0 6.756 0 15s6.756 15 15 15 15-6.756 15-15S23.244 0 15 0z"/>
        <path fill="#E63950" d="M30 15c0 8.244-6.756 15-15 15V0c8.244 0 15 6.756 15 15z"/>
        <path fill="#F2F6FC" d="M15 3.574C8.707 3.574 3.574 8.707 3.574 15S8.707 26.426 15 26.426 26.426 21.293 26.426 15 21.293 3.574 15 3.574z"/>
        <path fill="#DCE1EB" d="M26.426 15c0 6.293-5.133 11.426-11.426 11.426V3.574c6.293 0 11.426 5.133 11.426 11.426z"/>
        <path fill="#0082FF" d="M15 7.09c-4.36 0-7.91 3.55-7.91 7.91s3.55 7.91 7.91 7.91 7.91-3.55 7.91-7.91S19.36 7.09 15 7.09z"/>
        <path fill="#0050C3" d="M22.91 15c0 4.36-3.55 7.91-7.91 7.91V7.09c4.36 0 7.91 3.55 7.91 7.91z"/>
        <path fill="#F2F6FC" d="M20.221 13.312L16.617 12.768 15 9.516 13.383 12.768 9.779 13.312 12.381 15.861 11.783 19.43 15 17.76 18.217 19.43 17.619 15.861z"/>
        <path fill="#DCE1EB" d="M17.619 15.861L18.217 19.43 15 17.76 15 9.516 16.617 12.768 20.221 13.312z"/>
    </g>
</svg>
