<svg xmlns="http://www.w3.org/2000/svg" width="73" height="45" viewBox="0 0 73 45">
    <g fill="none">
        <path fill="#FFB600" d="M71.885 21.68c0 11.866-9.585 21.565-21.566 21.565-11.866 0-21.565-9.699-21.565-21.565C28.754 9.813 38.339.114 50.205.114c12.095 0 21.68 9.699 21.68 21.566z" transform="translate(.562 .799)"/>
        <path fill="#F7981D" d="M50.32.114c11.866 0 21.565 9.699 21.565 21.566 0 11.866-9.585 21.565-21.566 21.565-11.866 0-21.565-9.699-21.565-21.565" transform="translate(.562 .799)"/>
        <path fill="#FF8500" d="M50.32.114c11.866 0 21.565 9.699 21.565 21.566 0 11.866-9.585 21.565-21.566 21.565" transform="translate(.562 .799)"/>
        <path fill="#FF5050" d="M21.337.114C9.585.228 0 9.813 0 21.68c0 11.866 9.585 21.565 21.565 21.565 5.592 0 10.612-2.168 14.492-5.591.798-.685 1.483-1.483 2.168-2.282h-4.45c-.571-.685-1.141-1.483-1.598-2.168h7.645c.456-.685.913-1.483 1.255-2.282H30.922c-.342-.685-.685-1.483-.913-2.282h11.867c.684-2.168 1.14-4.45 1.14-6.846 0-1.598-.227-3.081-.456-4.564H29.325c.114-.8.342-1.484.57-2.282h11.867c-.228-.8-.57-1.598-.913-2.283H30.808c.342-.798.799-1.483 1.255-2.282h7.645c-.457-.798-1.027-1.597-1.712-2.282h-4.221c.684-.798 1.369-1.483 2.167-2.168-3.765-3.537-8.9-5.59-14.49-5.59 0-.229 0-.229-.115-.229z" transform="translate(.562 .799)"/>
        <path fill="#E52836" d="M0 21.68c0 11.866 9.585 21.565 21.565 21.565 5.592 0 10.612-2.168 14.492-5.591.798-.685 1.483-1.483 2.168-2.282h-4.45c-.571-.685-1.141-1.483-1.598-2.168h7.645c.456-.685.913-1.483 1.255-2.282H30.922c-.342-.685-.685-1.483-.913-2.282h11.867c.684-2.168 1.14-4.45 1.14-6.846 0-1.598-.227-3.081-.456-4.564H29.325c.114-.8.342-1.484.57-2.282h11.867c-.228-.8-.57-1.598-.913-2.283H30.808c.342-.798.799-1.483 1.255-2.282h7.645c-.457-.798-1.027-1.597-1.712-2.282h-4.221c.684-.798 1.369-1.483 2.167-2.168-3.765-3.537-8.9-5.59-14.49-5.59h-.115" transform="translate(.562 .799)"/>
        <path fill="#CB2026" d="M21.565 43.245c5.592 0 10.612-2.168 14.492-5.591.798-.685 1.483-1.483 2.168-2.282h-4.45c-.571-.685-1.141-1.483-1.598-2.168h7.645c.456-.685.913-1.483 1.255-2.282H30.922c-.342-.685-.685-1.483-.913-2.282h11.867c.684-2.168 1.14-4.45 1.14-6.846 0-1.598-.227-3.081-.456-4.564H29.325c.114-.8.342-1.484.57-2.282h11.867c-.228-.8-.57-1.598-.913-2.283H30.808c.342-.798.799-1.483 1.255-2.282h7.645c-.457-.798-1.027-1.597-1.712-2.282h-4.221c.684-.798 1.369-1.483 2.167-2.168-3.765-3.537-8.9-5.59-14.49-5.59h-.115" transform="translate(.562 .799)"/>
        <g fill="#FFF">
            <path d="M27.214 11.182l.342-1.94c-.114 0-.342.114-.57.114-.8 0-.913-.456-.8-.684l.685-3.994h1.255l.343-2.168h-1.141l.228-1.369h-2.282s-1.37 7.53-1.37 8.444c0 1.369.8 1.94 1.826 1.94.685 0 1.255-.229 1.484-.343zM28.012 7.53c0 3.196 2.168 3.994 3.994 3.994 1.711 0 2.396-.342 2.396-.342l.457-2.168s-1.256.57-2.397.57c-2.51 0-2.054-1.825-2.054-1.825h4.679s.342-1.483.342-2.054c0-1.483-.799-3.309-3.309-3.309-2.396-.228-4.108 2.282-4.108 5.135zm3.994-3.308c1.255 0 1.027 1.483 1.027 1.597h-2.51c0-.114.228-1.597 1.483-1.597zM46.497 11.182l.456-2.51s-1.14.57-1.94.57c-1.597 0-2.281-1.255-2.281-2.624 0-2.738 1.369-4.222 2.966-4.222 1.141 0 2.054.685 2.054.685l.342-2.396s-1.369-.57-2.624-.57c-2.624 0-5.249 2.281-5.249 6.617 0 2.853 1.37 4.792 4.108 4.792.913 0 2.168-.342 2.168-.342zM14.662 2.168c-1.597 0-2.738.456-2.738.456l-.343 1.94s1.027-.456 2.51-.456c.8 0 1.484.114 1.484.798 0 .457-.114.571-.114.571h-1.027c-1.94 0-4.108.799-4.108 3.423 0 2.054 1.37 2.51 2.168 2.51 1.598 0 2.282-1.027 2.396-1.027l-.114.913h2.054l.913-6.275c0-2.739-2.282-2.853-3.08-2.853zm.457 5.135c0 .342-.229 2.168-1.598 2.168-.684 0-.913-.571-.913-.913 0-.57.343-1.37 2.054-1.37.343.115.457.115.457.115zM19.911 11.41c.57 0 3.423.114 3.423-2.966 0-2.853-2.738-2.282-2.738-3.423 0-.571.456-.8 1.255-.8.342 0 1.597.115 1.597.115l.343-2.054s-.8-.228-2.168-.228c-1.712 0-3.424.684-3.424 2.967 0 2.624 2.853 2.396 2.853 3.423 0 .684-.799.798-1.37.798-1.026 0-2.053-.342-2.053-.342l-.342 2.054c.114.228.684.456 2.624.456zM65.438.342l-.456 3.081s-.913-1.14-2.168-1.14c-2.054 0-3.88 2.51-3.88 5.476 0 1.826.913 3.765 2.853 3.765 1.37 0 2.168-.912 2.168-.912l-.114.798h2.282L67.834.456 65.438.342zM64.411 6.39c0 1.255-.57 2.852-1.825 2.852-.8 0-1.256-.684-1.256-1.825 0-1.826.8-2.967 1.826-2.967.799 0 1.255.57 1.255 1.94zM2.225 11.296L3.594 3.081 3.822 11.296 5.42 11.296 8.387 3.081 7.131 11.296 9.528 11.296 11.353.342 7.588.342 5.306 7.074 5.192.342 1.883.342.057 11.296zM37.597 11.296c.685-3.765.799-6.846 2.396-6.275.228-1.484.57-2.054.799-2.625h-.457c-1.026 0-1.825 1.37-1.825 1.37l.228-1.256H36.57l-1.483 8.9h2.51v-.114zM51.746 2.168c-1.598 0-2.739.456-2.739.456l-.342 1.94s1.027-.456 2.51-.456c.799 0 1.484.114 1.484.798 0 .457-.114.571-.114.571h-1.027c-1.94 0-4.108.799-4.108 3.423 0 2.054 1.37 2.51 2.168 2.51 1.597 0 2.282-1.027 2.396-1.027l-.114.913h2.054l.913-6.275c.114-2.739-2.282-2.853-3.081-2.853zm.57 5.135c0 .342-.228 2.168-1.597 2.168-.685 0-.913-.571-.913-.913 0-.57.342-1.37 2.054-1.37.342.115.342.115.456.115zM56.766 11.296c.685-3.765.799-6.846 2.396-6.275.229-1.484.571-2.054.8-2.625h-.457c-1.027 0-1.826 1.37-1.826 1.37l.228-1.256H55.74l-1.483 8.9h2.51v-.114z" transform="translate(.562 .799) translate(1.997 15.974)"/>
        </g>
        <g fill="#DCE5E5">
            <path d="M23.676 9.585c0 1.369.8 1.94 1.826 1.94.799 0 1.483-.229 1.712-.343l.342-1.94c-.114 0-.342.114-.57.114-.8 0-.913-.456-.8-.684l.685-3.994h1.255l.343-2.168h-1.141l.228-1.369M29.153 7.53c0 3.196 1.027 3.994 2.853 3.994 1.711 0 2.396-.342 2.396-.342l.457-2.168s-1.256.57-2.397.57c-2.51 0-2.054-1.825-2.054-1.825h4.679s.342-1.483.342-2.054c0-1.483-.799-3.309-3.309-3.309-2.396-.228-2.967 2.282-2.967 5.135zm2.853-3.308c1.255 0 1.483 1.483 1.483 1.597h-2.966c0-.114.228-1.597 1.483-1.597zM46.497 11.182l.456-2.51s-1.14.57-1.94.57c-1.597 0-2.281-1.255-2.281-2.624 0-2.738 1.369-4.222 2.966-4.222 1.141 0 2.054.685 2.054.685l.342-2.396s-1.369-.57-2.624-.57c-2.624 0-4.108 2.281-4.108 6.617 0 2.853.229 4.792 2.967 4.792.913 0 2.168-.342 2.168-.342zM11.581 4.678s1.027-.456 2.51-.456c.8 0 1.484.114 1.484.799 0 .456-.114.57-.114.57h-1.027c-1.94 0-4.108.799-4.108 3.423 0 2.054 1.37 2.51 2.168 2.51 1.598 0 2.282-1.027 2.396-1.027l-.114.913h2.054l.913-6.275c0-2.625-2.282-2.739-3.195-2.739m1.712 4.907c0 .342-1.37 2.168-2.739 2.168-.684 0-.913-.571-.913-.913 0-.57.343-1.37 2.054-1.37.343.115 1.598.115 1.598.115zM17.4 11.182s.685.228 2.625.228c.57 0 3.423.114 3.423-2.966 0-2.853-2.738-2.282-2.738-3.423 0-.571.456-.8 1.255-.8.342 0 1.597.115 1.597.115l.343-2.054s-.8-.228-2.168-.228c-1.712 0-2.282.684-2.282 2.967 0 2.624 1.711 2.396 1.711 3.423 0 .684-.799.798-1.37.798M64.982 3.423s-.913-1.14-2.168-1.14c-2.054 0-2.739 2.51-2.739 5.476 0 1.826-.228 3.765 1.712 3.765 1.37 0 2.168-.912 2.168-.912l-.114.798h2.282L67.834.456M64.868 6.39c0 1.255-1.027 2.852-2.282 2.852-.8 0-1.256-.684-1.256-1.825 0-1.826.8-2.967 1.826-2.967.799 0 1.712.57 1.712 1.94zM2.225 11.296L3.594 3.081 3.822 11.296 5.42 11.296 8.387 3.081 7.131 11.296 9.528 11.296 11.353.342 8.501.342 5.306 7.074 5.192.342 3.937.342.057 11.296zM35.2 11.296h2.397c.685-3.765.799-6.846 2.396-6.275.228-1.484.57-2.054.799-2.625h-.457c-1.026 0-1.825 1.37-1.825 1.37l.228-1.256M48.665 4.678s1.027-.456 2.51-.456c.799 0 1.484.114 1.484.799 0 .456-.114.57-.114.57h-1.027c-1.94 0-4.108.799-4.108 3.423 0 2.054 1.37 2.51 2.168 2.51 1.597 0 2.282-1.027 2.396-1.027l-.114.913h2.054l.913-6.275c0-2.625-2.282-2.739-3.195-2.739m1.711 4.907c0 .342-1.369 2.168-2.738 2.168-.685 0-.913-.571-.913-.913 0-.57.342-1.37 2.054-1.37.456.115 1.597.115 1.597.115zM54.37 11.296h2.396c.685-3.765.799-6.846 2.396-6.275.229-1.484.571-2.054.8-2.625h-.457c-1.027 0-1.826 1.37-1.826 1.37l.228-1.256" transform="translate(.562 .799) translate(1.997 15.974)"/>
        </g>
    </g>
</svg>
