<svg xmlns="http://www.w3.org/2000/svg" width="30" height="30" viewBox="0 0 30 30">
    <g fill="none">
        <path fill="#36C747" d="M28.276 12.775c-.461-.34-1.043-.765-1.113-1.043.03-.537.183-1.06.448-1.529.407-.933.827-1.9.36-2.704-.467-.804-1.528-.935-2.548-1.043-.53-.004-1.05-.128-1.524-.364-.236-.475-.36-.998-.362-1.529-.115-1.02-.234-2.076-1.043-2.548-.81-.472-1.778-.059-2.711.353-.47.266-.993.419-1.53.449-.282-.076-.706-.652-1.043-1.113C16.618.906 15.952 0 14.99 0c-.962 0-1.628.905-2.216 1.703-.342.462-.765 1.042-1.043 1.114-.537-.032-1.06-.186-1.53-.448-.939-.414-1.906-.826-2.707-.361-.802.464-.936 1.527-1.051 2.554-.004.53-.128 1.05-.362 1.524-.473.232-.992.355-1.519.357-1.022.115-2.079.234-2.55 1.043-.47.81-.057 1.777.355 2.711.266.47.42.995.448 1.534-.075.282-.651.707-1.113 1.043C.905 13.362 0 14.03 0 14.991c0 .962.905 1.63 1.704 2.216.461.34 1.042.765 1.113 1.043-.03.537-.183 1.06-.449 1.529-.406.933-.826 1.9-.36 2.705.467.804 1.528.934 2.549 1.042.529.004 1.05.128 1.524.364.236.475.36.998.362 1.529.115 1.02.233 2.076 1.043 2.548.81.472 1.77.047 2.705-.36.473-.262 1-.413 1.54-.443.282.076.705.652 1.043 1.113.588.798 1.254 1.703 2.216 1.703.962 0 1.628-.905 2.216-1.703.341-.462.765-1.042 1.043-1.114.537.03 1.06.184 1.53.448.933.407 1.9.824 2.703.361.803-.462.936-1.527 1.05-2.55.005-.528.129-1.049.363-1.523.474-.234.994-.358 1.523-.36 1.022-.116 2.079-.234 2.55-1.044.47-.81.045-1.77-.36-2.704-.266-.473-.418-1-.444-1.541.076-.282.652-.707 1.114-1.043.797-.588 1.703-1.255 1.703-2.216 0-.96-.906-1.63-1.705-2.216z"/>
        <g fill="#FAFAFA">
            <path d="M4.603 6.519c-.205 0-.398-.097-.522-.261l-2.737-3.65v3.259c0 .36-.292.652-.652.652-.36 0-.651-.292-.651-.652V.653c0-.36.292-.652.651-.652.206 0 .399.097.522.261l2.737 3.65V.653c0-.36.292-.652.652-.652.36 0 .652.292.652.652v5.214c0 .28-.18.53-.446.618-.067.022-.136.034-.206.034zM9.817 6.519H7.21c-.36 0-.652-.292-.652-.652V.653c0-.36.292-.652.652-.652h2.607c.36 0 .651.292.651.652 0 .36-.291.652-.651.652H7.862v3.91h1.955c.36 0 .651.292.651.652 0 .36-.291.652-.651.652z" transform="translate(6.477 11.731)"/>
            <path d="M9.817 3.912H7.21c-.36 0-.652-.292-.652-.652 0-.36.292-.652.652-.652h2.607c.36 0 .651.292.651.652 0 .36-.291.652-.651.652zM16.334 6.519c-.28 0-.53-.18-.62-.446l-.683-2.056-.685 2.056c-.083.281-.351.466-.644.444-.29-.01-.537-.211-.607-.492L11.79.81c-.087-.35.126-.704.476-.79.35-.088.703.125.79.474l.76 3.043.596-1.787c.155-.342.557-.493.899-.338.15.068.27.188.338.338l.595 1.787.76-3.043c.087-.35.441-.562.79-.475.35.087.563.441.476.79l-1.303 5.215c-.07.28-.318.481-.608.492l-.026.002z" transform="translate(6.477 11.731)"/>
        </g>
    </g>
</svg>
