<svg xmlns="http://www.w3.org/2000/svg" width="148" height="24" viewBox="0 0 148 24">
    <g fill="none">
        <path fill="#36C747" d="M22.62 10.22c-.368-.272-.833-.612-.89-.834.024-.43.147-.849.359-1.223.325-.747.661-1.52.288-2.164-.373-.643-1.222-.748-2.039-.834-.423-.003-.84-.103-1.219-.291-.189-.38-.288-.799-.29-1.223-.092-.817-.186-1.661-.834-2.039-.648-.377-1.422-.047-2.169.283-.375.212-.794.335-1.224.358-.225-.06-.564-.521-.834-.89C13.294.725 12.76 0 11.992 0c-.77 0-1.303.724-1.773 1.362-.273.37-.612.834-.834.891-.43-.026-.849-.148-1.224-.358-.751-.33-1.525-.66-2.166-.29-.641.372-.749 1.223-.84 2.045-.004.423-.103.84-.29 1.219-.379.186-.794.283-1.215.285-.818.092-1.664.187-2.04.835-.376.647-.046 1.421.284 2.169.213.375.335.796.358 1.227-.06.225-.521.565-.89.834C.724 10.69 0 11.223 0 11.993s.724 1.303 1.363 1.773c.37.272.834.612.89.834-.023.43-.146.848-.358 1.223-.326.747-.661 1.52-.288 2.164.373.643 1.222.747 2.039.834.423.003.84.102 1.219.291.188.38.288.799.29 1.223.091.817.186 1.661.834 2.039.647.377 1.416.037 2.163-.288.38-.21.8-.331 1.233-.355.225.06.564.522.834.891.47.638 1.003 1.362 1.773 1.362s1.302-.724 1.773-1.362c.273-.37.612-.834.834-.892.43.025.849.147 1.224.36.747.324 1.52.658 2.163.288.642-.37.749-1.222.84-2.04.003-.423.102-.84.29-1.219.379-.187.796-.286 1.218-.289.818-.091 1.663-.186 2.04-.834.376-.647.036-1.416-.288-2.164-.212-.377-.334-.8-.355-1.232.061-.225.522-.565.891-.834.638-.47 1.363-1.005 1.363-1.773 0-.769-.725-1.304-1.364-1.773z"/>
        <g fill="#FAFAFA">
            <path d="M3.682 5.215c-.164 0-.318-.077-.417-.209l-2.19-2.92v2.607c0 .288-.233.522-.521.522-.288 0-.521-.234-.521-.522V.523C.033.233.266 0 .554 0c.164 0 .319.077.417.209l2.19 2.92V.521c0-.288.233-.521.521-.521.288 0 .522.233.522.521v4.171c0 .225-.144.424-.357.495-.053.018-.109.027-.165.027zM7.853 5.215H5.768c-.288 0-.522-.234-.522-.522V.523c0-.289.234-.522.522-.522h2.085c.288 0 .522.233.522.521 0 .288-.234.522-.522.522H6.29v3.128h1.564c.288 0 .522.234.522.522 0 .287-.234.52-.522.52z" transform="translate(5.181 9.385)"/>
            <path d="M7.853 3.13H5.768c-.288 0-.522-.234-.522-.522 0-.288.234-.521.522-.521h2.085c.288 0 .522.233.522.52 0 .289-.234.522-.522.522zM13.067 5.215c-.225 0-.424-.144-.495-.357l-.548-1.644-.547 1.644c-.067.225-.281.373-.515.356-.232-.009-.43-.17-.486-.394L9.433.649c-.07-.28.1-.563.38-.633.28-.07.563.1.633.38l.608 2.434.476-1.43c.124-.273.446-.394.72-.27.12.054.215.15.27.27l.476 1.43.608-2.434c.07-.28.353-.45.633-.38s.45.353.38.633l-1.043 4.17c-.056.225-.254.386-.486.395h-.02z" transform="translate(5.181 9.385)"/>
        </g>
        <path fill="#262626" d="M36.128 17l1.498-7.546L42.008 17h1.148l1.96-9.8h-1.4l-1.498 7.546L37.836 7.2h-1.148l-1.96 9.8h1.4zm13.328.084c.579 0 1.13-.093 1.652-.28.523-.187.966-.448 1.33-.784l-.574-.966c-.27.261-.607.469-1.008.623-.401.154-.83.231-1.288.231-.784 0-1.372-.18-1.764-.539-.392-.36-.588-.884-.588-1.575v-.084h6.09c.065-.364.098-.695.098-.994 0-.99-.301-1.771-.903-2.345-.602-.574-1.407-.861-2.415-.861-.793 0-1.51.187-2.149.56-.64.373-1.139.891-1.498 1.554-.36.663-.539 1.41-.539 2.24 0 .653.145 1.223.434 1.708.29.485.7.859 1.232 1.12.532.261 1.162.392 1.89.392zm2.688-4.354h-4.788c.168-.653.49-1.167.966-1.54s1.045-.56 1.708-.56c.672 0 1.202.184 1.589.553.387.369.562.884.525 1.547zM57.408 17l3.22-5.614L61.762 17h1.316l4.158-7.42h-1.274l-3.318 5.88-1.12-5.88h-1.148l-3.36 5.88-1.092-5.88h-1.218L56.12 17h1.288zm15.022 0l.588-2.968h2.618c.943 0 1.76-.156 2.45-.469.69-.313 1.22-.765 1.589-1.358.369-.593.553-1.304.553-2.135 0-.915-.315-1.622-.945-2.121-.63-.5-1.514-.749-2.653-.749h-3.64L71.03 17h1.4zm3.234-4.186H73.27l.882-4.396h2.352c.747 0 1.32.152 1.722.455.401.303.602.744.602 1.323 0 .85-.275 1.498-.826 1.946-.55.448-1.33.672-2.338.672zM82.3 17l.742-3.71c.327-1.661 1.26-2.492 2.8-2.492.15 0 .266.005.35.014l.252-1.302c-.681 0-1.26.093-1.736.28-.476.187-.877.485-1.204.896l.21-1.106h-1.288L80.956 17H82.3zm7.868.084c.83 0 1.575-.189 2.233-.567.658-.378 1.174-.9 1.547-1.568.373-.667.56-1.416.56-2.247 0-.644-.142-1.206-.427-1.687-.285-.48-.688-.852-1.211-1.113-.523-.261-1.134-.392-1.834-.392-.83 0-1.577.189-2.24.567-.663.378-1.18.898-1.554 1.561-.373.663-.56 1.41-.56 2.24 0 .635.145 1.195.434 1.68.29.485.695.861 1.218 1.127s1.134.399 1.834.399zm.084-1.176c-.7 0-1.244-.184-1.631-.553-.387-.369-.581-.88-.581-1.533 0-.607.126-1.148.378-1.624.252-.476.597-.847 1.036-1.113.439-.266.933-.399 1.484-.399.71 0 1.255.182 1.638.546.383.364.574.877.574 1.54 0 .607-.124 1.148-.371 1.624-.247.476-.593.847-1.036 1.113-.443.266-.94.399-1.491.399zm8.596 1.176c.523 0 1.006-.086 1.449-.259.443-.173.833-.418 1.169-.735l-.182.91h1.288l2.072-10.388H103.3l-.84 4.242c-.233-.439-.581-.772-1.043-1.001-.462-.229-1.01-.343-1.645-.343-.793 0-1.51.187-2.149.56-.64.373-1.141.891-1.505 1.554-.364.663-.546 1.414-.546 2.254 0 .653.14 1.223.42 1.708.28.485.667.856 1.162 1.113.495.257 1.06.385 1.694.385zm.294-1.176c-.7 0-1.244-.184-1.631-.553-.387-.369-.581-.88-.581-1.533 0-.607.126-1.148.378-1.624.252-.476.597-.847 1.036-1.113.439-.266.933-.399 1.484-.399.71 0 1.255.182 1.638.546.383.364.574.877.574 1.54 0 .607-.124 1.148-.371 1.624-.247.476-.593.847-1.036 1.113-.443.266-.94.399-1.491.399zm9.142 1.176c.532 0 1.024-.086 1.477-.259.453-.173.847-.432 1.183-.777l-.182.952h1.288l1.47-7.42h-1.344l-.784 3.934c-.159.775-.474 1.363-.945 1.764s-1.062.602-1.771.602c-.56 0-.982-.128-1.267-.385-.285-.257-.427-.628-.427-1.113 0-.168.023-.378.07-.63l.826-4.172h-1.344l-.826 4.158c-.056.308-.084.593-.084.854 0 .784.238 1.395.714 1.834.476.439 1.125.658 1.946.658zm9.842 0c.663 0 1.283-.135 1.862-.406.579-.27 1.04-.644 1.386-1.12l-.98-.7c-.252.345-.572.607-.959.784-.387.177-.805.266-1.253.266-.71 0-1.258-.184-1.645-.553-.387-.369-.581-.88-.581-1.533 0-.607.126-1.148.378-1.624.252-.476.6-.847 1.043-1.113.443-.266.94-.399 1.491-.399.952 0 1.624.355 2.016 1.064l1.134-.63c-.57-1.073-1.587-1.61-3.052-1.61-.84 0-1.591.189-2.254.567-.663.378-1.18.898-1.554 1.561-.373.663-.56 1.41-.56 2.24 0 .644.145 1.206.434 1.687.29.48.7.854 1.232 1.12.532.266 1.153.399 1.862.399zm7.028 0c.7 0 1.274-.154 1.722-.462l-.28-1.022c-.317.233-.672.35-1.064.35-.327 0-.572-.08-.735-.238-.163-.159-.245-.387-.245-.686 0-.121.014-.252.042-.392l.798-3.948h2.128l.224-1.106h-2.128l.322-1.624h-1.344l-.322 1.624h-1.274l-.21 1.106h1.26l-.798 3.976c-.037.177-.056.364-.056.56 0 .579.18 1.034.539 1.365.36.331.833.497 1.421.497z"/>
    </g>
</svg>
