<svg xmlns="http://www.w3.org/2000/svg" width="42" height="42" viewBox="0 0 42 42">
    <g fill="none">
        <path fill="#36C747" d="M39.586 17.885c-.646-.476-1.46-1.07-1.558-1.46.041-.752.256-1.485.628-2.14.57-1.307 1.157-2.66.503-3.787-.653-1.126-2.138-1.308-3.567-1.46-.74-.005-1.47-.179-2.133-.509-.331-.665-.505-1.397-.508-2.14-.16-1.43-.326-2.907-1.46-3.568-1.133-.66-2.489-.082-3.795.495-.657.37-1.39.586-2.143.627-.394-.105-.987-.912-1.46-1.558-.828-1.117-1.76-2.383-3.107-2.383-1.347 0-2.28 1.266-3.103 2.383-.478.648-1.07 1.46-1.46 1.56-.752-.045-1.484-.26-2.142-.628-1.314-.578-2.668-1.155-3.79-.505-1.122.65-1.31 2.139-1.47 3.577-.006.74-.18 1.47-.508 2.133-.662.325-1.389.496-2.126.5-1.43.16-2.91.327-3.57 1.46-.658 1.133-.08 2.487.497 3.796.373.657.587 1.393.628 2.147-.106.395-.913.99-1.559 1.46C1.266 18.707 0 19.641 0 20.988c0 1.346 1.266 2.28 2.385 3.102.646.476 1.46 1.071 1.559 1.46-.042.752-.257 1.485-.628 2.14-.57 1.307-1.157 2.66-.504 3.787.653 1.126 2.139 1.308 3.568 1.46.74.005 1.47.179 2.133.509.33.665.504 1.398.507 2.14.16 1.43.327 2.907 1.46 3.568 1.133.66 2.478.066 3.787-.504.663-.367 1.4-.579 2.157-.62.394.106.987.912 1.46 1.558.823 1.117 1.755 2.384 3.102 2.384s2.28-1.267 3.102-2.384c.478-.647 1.071-1.46 1.46-1.56.753.043 1.486.258 2.142.628 1.307.57 2.661 1.153 3.785.505 1.124-.647 1.31-2.138 1.471-3.569.005-.74.179-1.47.507-2.133.663-.328 1.392-.501 2.132-.506 1.43-.16 2.91-.326 3.57-1.46.658-1.133.063-2.478-.504-3.786-.372-.661-.584-1.4-.62-2.157.105-.394.912-.99 1.558-1.46 1.116-.823 2.385-1.757 2.385-3.102s-1.269-2.281-2.388-3.103z"/>
        <g fill="#FAFAFA">
            <path d="M6.444 9.126c-.287 0-.558-.135-.73-.365l-3.832-5.11v4.563c0 .504-.409.912-.913.912-.503 0-.912-.408-.912-.912v-7.3C.057.41.466.002.969.002c.288 0 .558.135.73.365l3.833 5.11V.913c0-.504.408-.912.912-.912s.912.408.912.912v7.3c0 .392-.251.74-.624.865-.093.031-.19.047-.288.047zM13.743 9.126h-3.65c-.503 0-.912-.408-.912-.912v-7.3c0-.504.409-.912.913-.912h3.65c.503 0 .912.408.912.912s-.409.913-.913.913h-2.737V7.3h2.737c.504 0 .913.409.913.913s-.409.912-.913.912z" transform="translate(9.067 16.424)"/>
            <path d="M13.743 5.476h-3.65c-.503 0-.912-.408-.912-.912s.409-.913.913-.913h3.65c.503 0 .912.409.912.913s-.409.912-.913.912zM22.868 9.126c-.394 0-.743-.25-.867-.624l-.958-2.878-.958 2.878c-.117.394-.492.653-.902.622-.405-.015-.752-.296-.85-.69l-1.825-7.299c-.122-.49.176-.985.665-1.107.49-.122.985.176 1.107.665l1.064 4.26.834-2.502c.217-.478.78-.69 1.258-.473.21.095.378.263.474.473l.834 2.502 1.063-4.26c.122-.489.618-.787 1.107-.665.49.122.787.618.665 1.107l-1.824 7.3c-.1.393-.446.674-.85.69l-.037.001z" transform="translate(9.067 16.424)"/>
        </g>
    </g>
</svg>
