<svg xmlns="http://www.w3.org/2000/svg" width="127" height="24" viewBox="0 0 127 24">
    <g fill="none">
        <path fill="#36C747" d="M23.456 2.176c-2.904 0-7.008.245-9.105 2.36-.907.917-1.36 2.41-1.243 4.101.015.224.162.414.374.484.21.07.441.005.585-.166 1.166-1.385 2.616-2.495 4.312-3.299.143-.07.313-.075.468-.02.136.05.243.143.299.263.115.247.078.571-.305.754-.022.01-.042.025-.064.035-.007.003-.016.002-.022.006-4.18 1.982-6.233 5.44-7.166 8.996-.68-4.452-2.117-7.074-3.474-8.683-.982-1.285-1.947-1.966-2.505-2.35-.104-.072-.417-.288-.546-.419-.213-.214-.213-.563 0-.777.212-.214.559-.214.795.024.058.052.15.118.268.197l.097.066c.79.545 2.259 1.558 3.562 3.74.117.194.342.299.561.257.223-.04.397-.212.44-.435.285-1.467.158-3.643-1.138-4.95C7.552.245 3.449 0 .545 0 .245 0 0 .246 0 .55c0 2.931.243 7.073 2.339 9.19.874.882 2.222 1.278 3.562 1.278 1.093 0 2.164-.277 2.985-.755 1.119 2.34 2.013 5.838 2.013 11.187 0 .304.244.55.545.55.3 0 .545-.246.545-.55 0-2.984.506-6.566 2.39-9.514.756.745 2.056 1.217 3.497 1.26.072.003.143.004.214.004 1.463 0 2.757-.463 3.571-1.286C23.758 9.798 24 5.656 24 2.724c.001-.303-.242-.548-.544-.548z"/>
        <path fill="#262626" d="M41.854 16l.238-1.218h-5.726l.63-3.164h4.928l.238-1.19h-4.928l.602-3.01h5.53l.238-1.218h-6.916l-1.96 9.8h7.126zm7.042.112c.803 0 1.538-.126 2.205-.378s1.225-.62 1.673-1.106l-.812-.924c-.775.775-1.764 1.162-2.968 1.162-1.083 0-1.916-.268-2.499-.805-.583-.537-.875-1.258-.875-2.163 0-.83.184-1.594.553-2.289.369-.695.894-1.248 1.575-1.659.681-.41 1.475-.616 2.38-.616 1.204 0 2.1.383 2.688 1.148l1.008-.868c-.336-.485-.817-.861-1.442-1.127s-1.344-.399-2.156-.399c-1.195 0-2.247.261-3.157.784-.91.523-1.612 1.232-2.107 2.128-.495.896-.742 1.89-.742 2.982 0 .821.187 1.542.56 2.163.373.62.91 1.104 1.61 1.449.7.345 1.535.518 2.506.518zm10.052 0c1.176 0 2.217-.261 3.122-.784.905-.523 1.605-1.232 2.1-2.128.495-.896.742-1.89.742-2.982 0-.821-.182-1.542-.546-2.163-.364-.62-.894-1.104-1.589-1.449s-1.524-.518-2.485-.518c-1.176 0-2.214.261-3.115.784-.9.523-1.598 1.232-2.093 2.128-.495.896-.742 1.89-.742 2.982 0 .821.182 1.542.546 2.163.364.62.891 1.104 1.582 1.449.69.345 1.517.518 2.478.518zm.126-1.246c-1.064 0-1.885-.268-2.464-.805s-.868-1.258-.868-2.163c0-.821.184-1.582.553-2.282.369-.7.889-1.255 1.561-1.666.672-.41 1.447-.616 2.324-.616 1.064 0 1.883.268 2.457.805.574.537.861 1.258.861 2.163 0 .83-.182 1.594-.546 2.289-.364.695-.882 1.248-1.554 1.659-.672.41-1.447.616-2.324.616zm10.668-2.128l.238-1.162h-3.766l-.224 1.162h3.752zM72.696 16l1.274-6.314h2.114l.224-1.106h-2.156l.126-.588c.103-.467.27-.81.504-1.029.233-.22.55-.329.952-.329.401 0 .733.117.994.35l.56-.994c-.177-.15-.404-.264-.679-.343-.275-.08-.567-.119-.875-.119-.756 0-1.365.203-1.827.609-.462.406-.768.987-.917 1.743l-.14.7h-1.288l-.21 1.106h1.274L71.352 16h1.344zm4.76 0l.742-3.71c.327-1.661 1.26-2.492 2.8-2.492.15 0 .266.005.35.014L81.6 8.51c-.681 0-1.26.093-1.736.28-.476.187-.877.485-1.204.896l.21-1.106h-1.288L76.112 16h1.344zm6.93-8.848c.29 0 .525-.089.707-.266.182-.177.273-.41.273-.7 0-.215-.082-.399-.245-.553-.163-.154-.366-.231-.609-.231-.28 0-.511.091-.693.273-.182.182-.273.404-.273.665 0 .224.08.415.238.574.159.159.36.238.602.238zM83.196 16l1.47-7.42h-1.344L81.852 16h1.344zm6.104.084c.579 0 1.13-.093 1.652-.28.523-.187.966-.448 1.33-.784l-.574-.966c-.27.261-.607.469-1.008.623-.401.154-.83.231-1.288.231-.784 0-1.372-.18-1.764-.539-.392-.36-.588-.884-.588-1.575v-.084h6.09c.065-.364.098-.695.098-.994 0-.99-.301-1.771-.903-2.345-.602-.574-1.407-.861-2.415-.861-.793 0-1.51.187-2.149.56-.64.373-1.139.891-1.498 1.554-.36.663-.539 1.41-.539 2.24 0 .653.145 1.223.434 1.708.29.485.7.859 1.232 1.12.532.261 1.162.392 1.89.392zm2.688-4.354H87.2c.168-.653.49-1.167.966-1.54s1.045-.56 1.708-.56c.672 0 1.202.184 1.589.553.387.369.562.884.525 1.547zM95.656 16l.784-3.92c.159-.784.474-1.374.945-1.771.471-.397 1.071-.595 1.799-.595.57 0 .999.13 1.288.392.29.261.434.635.434 1.12 0 .159-.023.364-.07.616L100.01 16h1.344l.826-4.158c.056-.308.084-.597.084-.868 0-.784-.236-1.39-.707-1.82-.471-.43-1.132-.644-1.981-.644-1.12 0-2.016.34-2.688 1.022l.182-.952h-1.288L94.312 16h1.344zm11.452.084c.523 0 1.006-.086 1.449-.259.443-.173.833-.418 1.169-.735l-.182.91h1.288l2.072-10.388h-1.344l-.84 4.242c-.233-.439-.581-.772-1.043-1.001-.462-.229-1.01-.343-1.645-.343-.793 0-1.51.187-2.149.56-.64.373-1.141.891-1.505 1.554-.364.663-.546 1.414-.546 2.254 0 .653.14 1.223.42 1.708.28.485.667.856 1.162 1.113.495.257 1.06.385 1.694.385zm.294-1.176c-.7 0-1.244-.184-1.631-.553-.387-.369-.581-.88-.581-1.533 0-.607.126-1.148.378-1.624.252-.476.597-.847 1.036-1.113.439-.266.933-.399 1.484-.399.71 0 1.255.182 1.638.546.383.364.574.877.574 1.54 0 .607-.124 1.148-.371 1.624-.247.476-.593.847-1.036 1.113-.443.266-.94.399-1.491.399zM114.738 16l2.072-10.388h-1.344L113.394 16h1.344zm2.45 2.8c.588 0 1.097-.145 1.526-.434.43-.29.882-.807 1.358-1.554l5.264-8.232h-1.358l-3.738 5.936-1.428-5.936h-1.344l1.792 7.378-.378.588c-.261.401-.513.686-.756.854-.243.168-.523.252-.84.252-.504 0-.924-.168-1.26-.504l-.7.994c.187.205.453.366.798.483.345.117.7.175 1.064.175z"/>
    </g>
</svg>
