<svg xmlns="http://www.w3.org/2000/svg" width="56" height="55" viewBox="0 0 56 55">
    <g fill="none">
        <path fill="#03A9F4" d="M42.424 8.932c-1.23-1.17-3.012-1.55-4.611-.984-.453.15-.782.543-.853 1.015l-.355 2.441c-.54 3.687-3.694 6.426-7.421 6.44h-5.076c-.582.001-1.09.398-1.23.963L19.07 34.033c-.17.68.244 1.369.924 1.539.1.025.203.037.307.037h6.344c.582 0 1.09-.396 1.23-.961l2.298-9.19h4.948c3.8.013 7.113-2.576 8.02-6.266l.936-3.753c.66-2.309.027-4.793-1.654-6.507z"/>
        <g fill="#283593">
            <path d="M1.269 12.77c-.701 0-1.27-.57-1.269-1.27 0-.103.013-.206.038-.307l1.269-5.05V6.09l1.269-5.048c.14-.565.648-.961 1.23-.961h3.228c1.753 0 3.173 1.42 3.173 3.171 0 .26-.031.518-.094.77L9.796 5.29c-.353 1.412-1.623 2.403-3.079 2.403H3.53l-1.028 4.114c-.141.565-.65.962-1.233.961zm2.895-7.614h2.553c.291 0 .544-.2.614-.482l.318-1.27c.087-.337-.117-.682-.455-.768-.052-.014-.106-.02-.16-.02H4.8l-.635 2.54zM14.838 12.77h-1.807c-1.942 0-3.518-1.575-3.518-3.517 0-.288.035-.575.105-.854l.167-.675c.376-1.515 1.739-2.577 3.3-2.57h1.806c1.943.003 3.515 1.58 3.512 3.523 0 .286-.036.571-.106.849l-.167.675c-.376 1.511-1.735 2.571-3.292 2.568zm-2.756-3.754c-.13.525.19 1.056.715 1.187.076.019.155.028.234.029h1.807c.391 0 .733-.265.827-.645l.168-.675c.13-.525-.19-1.057-.715-1.187-.077-.019-.155-.029-.234-.029h-1.807c-.391 0-.733.265-.827.645l-.168.675z" transform="translate(0 38.067)"/>
            <path d="M16.495 12.77c-.7-.001-1.268-.57-1.268-1.27 0-.103.012-.206.037-.307l1.27-5.075c.169-.68.858-1.095 1.539-.925.68.17 1.094.858.925 1.539l-1.27 5.075c-.14.566-.65.963-1.233.962z" transform="translate(0 38.067)"/>
        </g>
        <g fill="#03A9F4">
            <path d="M1.269 12.77C.568 12.768-.001 12.2 0 11.5c0-.103.013-.206.038-.307l1.269-5.05V6.09l1.269-5.048c.14-.565.648-.962 1.23-.962h3.228c1.753 0 3.173 1.42 3.173 3.172 0 .26-.031.518-.094.77L9.796 5.29c-.353 1.412-1.623 2.403-3.079 2.403H3.53l-1.028 4.114c-.141.565-.65.962-1.233.961zm2.895-7.614H6.72c.29 0 .544-.2.614-.482l.317-1.27c.087-.337-.117-.682-.454-.768-.053-.014-.106-.02-.16-.02H4.799l-.635 2.54zM14.838 12.77h-1.807c-1.942 0-3.518-1.575-3.518-3.517 0-.288.035-.575.105-.854l.167-.675c.376-1.515 1.739-2.577 3.3-2.57h1.806c1.943-.001 3.518 1.573 3.519 3.516 0 .288-.036.574-.105.853l-.168.675c-.375 1.515-1.738 2.577-3.299 2.571zm-2.756-3.754c-.13.525.19 1.056.715 1.187.076.019.155.028.234.029h1.807c.391 0 .733-.265.827-.645l.168-.675c.13-.525-.19-1.057-.715-1.187-.077-.019-.155-.029-.234-.029h-1.807c-.391 0-.733.265-.827.645l-.168.675z" transform="translate(30.453 38.067)"/>
            <path d="M16.495 12.77c-.7-.001-1.268-.57-1.268-1.27 0-.103.012-.206.037-.307l1.27-5.075c.169-.68.858-1.095 1.539-.925.68.17 1.094.858.925 1.539l-1.27 5.075c-.14.566-.65.963-1.233.962z" transform="translate(30.453 38.067)"/>
        </g>
        <g fill="#283593">
            <path d="M3.886 6.385c-.425 0-.82-.212-1.056-.566L.292 2.013C-.097 1.43.061.642.644.253c.583-.39 1.37-.232 1.76.351L4.94 4.411c.39.582.234 1.37-.349 1.76-.209.14-.455.214-.706.214z" transform="translate(20.223 43.182)"/>
            <path d="M1.348 10.192c-.701 0-1.269-.569-1.269-1.27 0-.296.104-.583.294-.811L6.718.497c.449-.538 1.25-.61 1.788-.16.538.448.61 1.249.16 1.787L2.323 9.737c-.241.289-.598.455-.974.455z" transform="translate(20.223 43.182)"/>
        </g>
        <path fill="#03A9F4" d="M52.024 50.836c-.7 0-1.269-.568-1.268-1.27 0-.103.012-.206.037-.306l2.538-10.151c.17-.68.859-1.095 1.54-.925.68.17 1.094.859.924 1.54l-2.537 10.15c-.142.566-.65.963-1.234.962z"/>
        <path fill="#283593" d="M38.234 2.276C37.014.879 35.25.079 33.397.08H19.033c-.614 0-1.14.44-1.249 1.043L12.71 29.04c-.125.69.333 1.35 1.023 1.474.074.014.15.02.225.02h7.614c.582 0 1.09-.396 1.23-.961l2.3-9.19h4.083c4.991-.019 9.217-3.689 9.936-8.628l.634-4.337c.262-1.853-.293-3.728-1.52-5.141z"/>
    </g>
</svg>
