<?xml version="1.0" encoding="UTF-8"?>
<svg width="80px" height="80px" viewBox="0 0 80 80" version="1.1" xmlns="http://www.w3.org/2000/svg" xmlns:xlink="http://www.w3.org/1999/xlink">
    <title>B4091B00-572C-4D99-9365-EAA7F5962575</title>
    <g id="Step-1" stroke="none" stroke-width="1" fill="none" fill-rule="evenodd">
        <g id="ICraft-Product-Page-Collection-1440" transform="translate(-532.000000, -2598.000000)" fill="#CDC890">
            <g id="Group-2" transform="translate(165.000000, 2508.000000)">
                <g id="icons/plest" transform="translate(367.000000, 90.000000)">
                    <g id="handmade" transform="translate(6.153846, 0.000000)">
                        <path d="M47.9283333,45.2585 L50.5906667,45.4085 C50.4742433,47.6267793 50.1735967,49.8315394 49.6918333,52 L49.6918333,52 L53.3333333,52 L53.3333333,54.6666667 L48.9713333,54.6666667 C48.3965989,56.5304832 47.6053075,58.3204821 46.6136667,60 L46.6136667,60 L56,60 C56.7363797,60 57.3333333,60.5969537 57.3333333,61.3333333 L57.3333333,61.3333333 L57.3333333,66.6666667 C57.3333333,67.4030463 56.7363797,68 56,68 L56,68 L44,68 L44,72 C44,72.7363797 43.4030463,73.3333333 42.6666667,73.3333333 L42.6666667,73.3333333 L37.3333333,73.3333333 L37.3333333,80 L34.6666667,80 L34.6666667,73.3333333 L29.3333333,73.3333333 L29.3333333,80 L26.6666667,80 L26.6666667,73.3333333 L21.3333333,73.3333333 C20.5969537,73.3333333 20,72.7363797 20,72 L20,72 L20,68 L8,68 C7.26362033,68 6.66666667,67.4030463 6.66666667,66.6666667 L6.66666667,66.6666667 L6.66666667,61.3333333 C6.66666667,60.5969537 7.26362033,60 8,60 L8,60 L17.3898333,60 C16.229145,58.0259952 15.3373155,55.9058054 14.738,53.6956667 L14.738,53.6956667 L17.3046667,52.9716667 C18.414,56.902 19.9458333,59.1503333 20.614,60.0003333 L20.614,60.0003333 L43.3845,60.0003333 C43.9465,59.2828333 45.1231667,57.5648333 46.1488333,54.667 L46.1488333,54.667 L33.3333333,54.667 L33.3333333,52.0003333 L46.945,52.0003333 C47.4822365,49.7886249 47.8114478,47.5315189 47.9283333,45.2585 L47.9283333,45.2585 Z M41.3333333,68 L22.6666667,68 L22.6666667,70.6666667 L41.3333333,70.6666667 L41.3333333,68 Z M54.6666667,62.6666667 L9.33333333,62.6666667 L9.33333333,65.3333333 L54.6666667,65.3333333 L54.6666667,62.6666667 Z M12.896,26.5521667 C14.4421091,25.0084822 16.9186383,24.9230069 18.5674994,26.3564197 C20.2163605,27.7898325 20.4762475,30.2541705 19.1626667,32 L19.1626667,32 L22.6666667,32 C25.6108146,32.0033066 27.9966934,34.3891854 28,37.3333333 L28,37.3333333 L28,46.6666667 C27.9966934,49.6108146 25.6108146,51.9966934 22.6666667,52.0000587 L22.6666667,52.0000587 L17.6568333,52.0000587 C13.8737757,52.0106164 10.2286109,50.5803922 7.46216667,48 L7.46216667,48 L3.88284277e-12,48 L3.88284277e-12,45.3333333 L8,45.3333333 C8.35362692,45.3333204 8.6927749,45.4737878 8.94283333,45.7238333 C11.2488414,48.0425391 14.3866668,49.3422844 17.6568333,49.3333333 L17.6568333,49.3333333 L22.6666667,49.3333333 C24.1387026,49.3315884 25.3315884,48.1387026 25.3333333,46.6666667 L25.3333333,46.6666667 L25.3333333,37.3333333 C25.3315884,35.8612974 24.1387026,34.6684116 22.6666667,34.6666667 L22.6666667,34.6666667 L16,34.6666667 C15.4607019,34.6666863 14.9744979,34.3418298 14.7681148,33.8435845 C14.5617317,33.3453391 14.6758155,32.7718315 15.0571667,32.3905 L15.0571667,32.3905 L16.8955,30.5521667 C17.479311,29.9682636 17.4792364,29.0216443 16.8953333,28.4378333 C16.3114303,27.8540223 15.364811,27.8540969 14.781,28.438 L14.781,28.438 L8.94283333,34.2761667 C8.6927749,34.5262122 8.35362692,34.6666796 8,34.6666667 L8,34.6666667 L3.88284277e-12,34.6666667 L3.88284277e-12,32 L7.44766667,32 Z M48.0977734,18.3542957 C49.7474722,16.9202691 52.225384,17.0066912 53.7711667,18.5521667 L53.7711667,18.5521667 L59.219,24 L66.6666667,24 L66.6666667,26.6666667 L58.6666667,26.6666667 C58.3130397,26.6666796 57.9738918,26.5262122 57.7238333,26.2761667 L57.7238333,26.2761667 L51.8856667,20.438 C51.6059062,20.1566862 51.2252396,19.9989703 50.8285,20 C50.2237725,19.9998986 49.6785409,20.3641193 49.447086,20.9227999 C49.215631,21.4814805 49.3435427,22.1245767 49.7711667,22.5521667 L49.7711667,22.5521667 L51.6095,24.3905 C51.9908512,24.7718315 52.104935,25.3453391 51.8985519,25.8435845 C51.6921688,26.3418298 51.2059648,26.6666863 50.6666667,26.6666667 L50.6666667,26.6666667 L44,26.6666667 C42.527964,26.6684116 41.3350783,27.8612974 41.3333333,29.3333333 L41.3333333,29.3333333 L41.3333333,38.6666667 C41.3350783,40.1387026 42.527964,41.3315884 44,41.3333333 L44,41.3333333 L49.0098333,41.3333333 C52.2799999,41.3422844 55.4178253,40.0425391 57.7238333,37.7238333 C57.9738918,37.4737878 58.3130397,37.3333204 58.6666667,37.3333333 L58.6666667,37.3333333 L66.6666667,37.3333333 L66.6666667,40 L59.2045,40 C56.4380557,42.5803922 52.792891,44.0106164 49.0098333,44.0000587 L49.0098333,44.0000587 L44,44.0000587 C41.0558521,43.9966934 38.6699733,41.6108146 38.6666667,38.6666667 L38.6666667,38.6666667 L38.6666667,29.3333333 C38.6699733,26.3891854 41.0558521,24.0033066 44,24 L44,24 L47.504,24 C46.1887381,22.2541407 46.4480746,19.7883224 48.0977734,18.3542957 Z M45.3333333,1.664583e-12 C45.7954384,1.664583e-12 46.2245869,0.239301751 46.4675153,0.632400874 C46.7104436,1.0255 46.7325098,1.51635574 46.5258333,1.92966667 C46.5208333,1.93916667 45.8878333,3.23366667 45.263,5.60583333 C45.0863333,6.276 44.8996667,7.07833333 44.7251667,8 L44.7251667,8 L48,8 L48,10.6666667 L44.315,10.6666667 C44.103592,12.4365591 43.9984036,14.217527 44,16 C43.9983909,17.6808556 44.2385726,19.3532031 44.7131667,20.9656667 L44.7131667,20.9656667 L42.15,21.701 C41.6094581,19.8488682 41.3344946,17.929398 41.3333333,16 C41.3313885,14.2181426 41.4292641,12.4375753 41.6265,10.6666667 L41.6265,10.6666667 L33.3333333,10.6666667 L33.3333333,8 L42.0103333,8 C42.3209738,6.18934046 42.7740475,4.40602474 43.3653333,2.66666667 L43.3653333,2.66666667 L20.6346667,2.66666667 C21.4666667,5.06666667 22.6666667,9.63333333 22.6666667,16 C22.6666022,16.8918438 22.6072491,17.7826969 22.489,18.6666667 L22.489,18.6666667 L28,18.6666667 L28,21.3333333 L21.9531667,21.3333333 C21.6583005,22.4058976 21.3011386,23.4603541 20.8835,24.4913333 L20.8835,24.4913333 L18.405,23.508 C18.671,22.838 18.9383333,22.1143333 19.1768333,21.3333333 L19.1768333,21.3333333 L13.3333333,21.3333333 L13.3333333,18.6666667 L19.7943333,18.6666667 C19.9312771,17.7843794 20.0000361,16.8928519 20,16 C20.0232114,12.4956383 19.5987779,9.0026596 18.737,5.60583333 C18.1121667,3.23366667 17.4791667,1.93966667 17.4726667,1.927 C17.2680372,1.51360968 17.2913362,1.02386672 17.5342859,0.631769502 C17.7772356,0.239672286 18.205403,0.000792280228 18.6666667,1.664583e-12 L18.6666667,1.664583e-12 Z" id="Combined-Shape"></path>
                    </g>
                </g>
            </g>
        </g>
    </g>
</svg>