<?xml version="1.0" encoding="UTF-8"?>
<svg width="80px" height="80px" viewBox="0 0 80 80" version="1.1" xmlns="http://www.w3.org/2000/svg" xmlns:xlink="http://www.w3.org/1999/xlink">
    <title>D837A480-B233-4479-B88E-226A8613F3FA</title>
    <g id="Step-1" stroke="none" stroke-width="1" fill="none" fill-rule="evenodd">
        <g id="ICraft-Product-Page-Collection-1440" transform="translate(-1126.000000, -2598.000000)" fill="#DCABCA">
            <g id="Group-2" transform="translate(165.000000, 2508.000000)">
                <g id="icons/protect" transform="translate(961.000000, 90.000000)">
                    <g id="shield" transform="translate(0.000000, 6.153846)">
                        <path d="M1.97598556,0.328424235 L2.092,0.400333333 L17.3333333,10.951 L17.3333333,5.49633333 C17.3333333,4.80331373 17.8621638,4.23371742 18.538265,4.16910408 L18.6666667,4.163 L61.3333333,4.163 C62.0263529,4.163 62.5959493,4.69183045 62.6605626,5.36793168 L62.6666667,5.49633333 L62.6666667,10.951 L77.908,0.400333333 C78.3155,0.118 78.846,0.0851666667 79.2853333,0.315 C79.6808833,0.52215 79.9433233,0.91155 79.9918558,1.3489425 L80,1.49633333 L80,10.003 C80,12.5339286 78.8017372,14.9094177 76.781202,16.4152952 L76.5533333,16.579 L76,16.963 L76,24.7723333 C76.0003214,27.3042262 74.8025351,29.6808346 72.7812862,31.1872391 L72.5533333,31.351 L70.6666667,32.6563333 L70.6666667,40.4656667 C70.6661845,42.9965952 69.4683695,45.3720844 67.4478668,46.8779619 L67.22,47.0416667 L62.6666667,50.195 L62.6666667,56.163 C62.6692424,56.6246667 62.4331129,57.0510716 62.0489369,57.2953328 L61.9293333,57.363 L40.596,68.0296667 C40.2677292,68.1937292 39.8885443,68.214237 39.5475449,68.0911901 L39.404,68.0296667 L18.0706667,57.363 C17.6577879,57.1566364 17.3838898,56.7534408 17.3396311,56.3002953 L17.3333333,56.163 L17.3333333,50.195 L12.78,47.0416667 C10.6990714,45.6011845 9.42695472,43.2646399 9.33829517,40.746205 L9.33333333,40.4656667 L9.33333333,32.6563333 L7.44666667,31.3496667 C5.36493452,29.9085417 4.09278912,27.5710442 4.00487574,25.0516455 L4,24.771 L4,16.963 L3.44666667,16.5803333 C1.36525595,15.1395298 0.0931220238,12.8025087 0.00491017523,10.2835919 L5.08311342e-14,10.003 L5.08311342e-14,1.49633333 C5.08311342e-14,1.22533333 0.0826666667,0.960833333 0.236833333,0.738166667 C0.629645833,0.170354167 1.38427474,0.00200455729 1.97598556,0.328424235 Z M60,6.82966667 L20,6.82966667 L20,55.339 L40,65.339 L60,55.339 L60,6.82966667 Z M56,9.49633333 C56.6930196,9.49633333 57.2626344,10.0251638 57.3272499,10.701265 L57.3333542,10.8296667 L57.3333542,18.8296667 L54.6666667,18.8296667 L54.6666667,12.163 L41.3333333,12.163 L41.3333333,33.4963333 L54.6666667,33.4963333 L54.6666667,26.8296667 L57.3333542,26.8296667 L57.3333542,52.163 C57.335911,52.6246667 57.0997798,53.0510716 56.7156036,53.2953328 L56.596,53.363 L40.596,61.363 C40.2677292,61.5270625 39.8885443,61.5475703 39.5475449,61.4245234 L39.404,61.363 L23.404,53.363 C22.9911212,53.1566364 22.7172231,52.7534408 22.6729488,52.3002953 L22.6666458,52.163 L22.6666458,10.8296667 C22.6666458,10.1366471 23.1954947,9.56705075 23.8715981,9.50243741 L24,9.49633333 L56,9.49633333 Z M38.6666667,36.163 L25.3333333,36.163 L25.3333333,51.339 L38.6666667,58.0056667 L38.6666667,36.163 Z M54.6666667,36.163 L41.3333333,36.163 L41.3333333,58.0056667 L54.6666667,51.339 L54.6666667,36.163 Z M12,34.503 L12,40.4656667 C12.0006349,42.1323333 12.7798035,43.697715 14.0970709,44.703114 L14.2986667,44.8496667 L17.3333333,46.951 L17.3333333,38.195 L12,34.503 Z M68,34.503 L62.6666667,38.195 L62.6666667,46.951 L65.7013333,44.8496667 C67.0718095,43.9014127 67.9162086,42.3702411 67.9940958,40.7148497 L68,40.4656667 L68,34.503 Z M6.66666667,18.8096667 L6.66666667,24.7723333 C6.6668254,26.4393175 7.44597128,28.005319 8.76366951,29.0110642 L8.96533333,29.1576667 L11.4253333,30.8603333 L17.3333333,34.951 L17.3333333,26.195 L9.74133333,20.943 L6.66666667,18.8096667 Z M73.3333333,18.8096667 L70.2586667,20.939 L62.6666667,26.195 L62.6666667,34.951 L68.5786667,30.859 L71.0346667,29.1576667 C72.405619,28.2090952 73.2500408,26.677455 73.3274972,25.0215878 L73.3333333,24.7723333 L73.3333333,18.8096667 Z M38.6666667,12.163 L25.3333333,12.163 L25.3333333,33.4963333 L38.6666667,33.4963333 L38.6666667,12.163 Z M57.3333333,21.4963333 L57.3333333,24.163 L54.6666667,24.163 L54.6666667,21.4963333 L57.3333333,21.4963333 Z M2.66666667,4.04033333 L2.66666667,10.003 C2.6668254,11.6699841 3.44597128,13.2359856 4.76366951,14.2417309 L4.96533333,14.3883333 L17.3333333,22.951 L17.3333333,14.195 L2.66666667,4.04033333 Z M77.3333333,4.04033333 L62.6666667,14.195 L62.6666667,22.951 L75.0346667,14.3883333 C76.405619,13.4397619 77.2500408,11.9081217 77.3274972,10.2522544 L77.3333333,10.003 L77.3333333,4.04033333 Z" id="Combined-Shape"></path>
                    </g>
                </g>
            </g>
        </g>
    </g>
</svg>