<svg xmlns="http://www.w3.org/2000/svg" width="26" height="26" viewBox="0 0 26 26">
    <path fill="#FFF" fill-rule="evenodd" d="M.002 13.237c.032.534.387.984.9 1.138l9.51 2.875.35 6.556c.016.26.191.487.44.572.069.026.143.037.212.037.185 0 .36-.074.487-.217l3.362-3.723 4.766 3.3c.212.147.46.227.72.227.599 0 1.118-.424 1.245-1.017l3.955-20.16c.048-.232-.042-.476-.222-.624-.185-.154-.434-.19-.657-.1L.765 11.991c-.493.223-.794.71-.763 1.245zM11.97 22.18l-.217-4.135 2.435 1.684-2.218 2.451zm8.758.503l-8.674-6.005L24.218 4.912l-3.49 17.771zm2.155-18.29L10.858 16.027l-9.5-2.87 21.525-8.764z"/>
</svg>
