<svg xmlns="http://www.w3.org/2000/svg" width="133" height="24" viewBox="0 0 133 24">
    <g fill="none">
        <path fill="#7AB4F9" d="M11.323 24c-.249 0-.682-.07-1.572-.677-.566-.386-1.22-.923-1.894-1.552-.917-.858-2.662-2.635-4.034-4.89C1.6 13.223.086 7.356.023 7.108c-.08-.307.055-.63.33-.792 2.367-1.407 3.666-2.897 4.34-3.9.705-1.05.889-1.798.9-1.845C5.66.234 5.955 0 6.303 0h10.04c.348 0 .644.234.71.572.011.047.195.795.9 1.846.674 1.002 1.974 2.492 4.341 3.899.275.163.409.485.33.792-.063.248-1.577 6.115-3.8 9.771-1.373 2.256-3.117 4.033-4.035 4.89-.673.63-1.328 1.167-1.893 1.553-.89.607-1.324.677-1.573.677z"/>
        <path fill="#4558FB" d="M11.324 11.221V24c.249 0 .682-.07 1.572-.677.565-.386 1.22-.923 1.893-1.552.918-.858 2.662-2.635 4.034-4.89 1.018-1.674 1.887-3.81 2.536-5.66H11.324zM11.324 0H6.303c-.348 0-.644.234-.71.572-.011.047-.195.795-.9 1.846C4.019 3.42 2.72 4.91.353 6.317c-.275.163-.41.485-.33.792.034.135.495 1.922 1.264 4.112h10.037V0z"/>
        <path fill="#262626" d="M37.928 17L44.2 7.2h-1.456l-5.194 8.064L35.646 7.2h-1.442l2.352 9.8h1.372zm9.128.084c.579 0 1.13-.093 1.652-.28.523-.187.966-.448 1.33-.784l-.574-.966c-.27.261-.607.469-1.008.623-.401.154-.83.231-1.288.231-.784 0-1.372-.18-1.764-.539-.392-.36-.588-.884-.588-1.575v-.084h6.09c.065-.364.098-.695.098-.994 0-.99-.301-1.771-.903-2.345-.602-.574-1.407-.861-2.415-.861-.793 0-1.51.187-2.149.56-.64.373-1.139.891-1.498 1.554-.36.663-.539 1.41-.539 2.24 0 .653.145 1.223.434 1.708.29.485.7.859 1.232 1.12.532.261 1.162.392 1.89.392zm2.688-4.354h-4.788c.168-.653.49-1.167.966-1.54s1.045-.56 1.708-.56c.672 0 1.202.184 1.589.553.387.369.562.884.525 1.547zM53.412 17l.742-3.71c.327-1.661 1.26-2.492 2.8-2.492.15 0 .266.005.35.014l.252-1.302c-.681 0-1.26.093-1.736.28-.476.187-.877.485-1.204.896l.21-1.106h-1.288L52.068 17h1.344zm6.93-8.848c.29 0 .525-.089.707-.266.182-.177.273-.41.273-.7 0-.215-.082-.399-.245-.553-.163-.154-.366-.231-.609-.231-.28 0-.511.091-.693.273-.182.182-.273.404-.273.665 0 .224.08.415.238.574.159.159.36.238.602.238zM59.152 17l1.47-7.42h-1.344L57.808 17h1.344zM70.31 8.152c.29 0 .525-.089.707-.266.182-.177.273-.41.273-.7 0-.215-.082-.399-.245-.553-.163-.154-.366-.231-.609-.231-.28 0-.511.091-.693.273-.182.182-.273.404-.273.665 0 .224.08.415.238.574.159.159.36.238.602.238zM63.24 17l1.274-6.314h2.114l.224-1.106h-2.156l.126-.588c.103-.467.27-.81.504-1.029.233-.22.55-.329.952-.329.401 0 .733.117.994.35l.56-.994c-.177-.15-.404-.264-.679-.343-.275-.08-.567-.119-.875-.119-.756 0-1.365.203-1.827.609-.462.406-.768.987-.917 1.743l-.14.7h-1.288l-.21 1.106h1.274L61.896 17h1.344zm5.88 0l1.47-7.42h-1.344L67.776 17h1.344zm6.104.084c.579 0 1.13-.093 1.652-.28.523-.187.966-.448 1.33-.784l-.574-.966c-.27.261-.607.469-1.008.623-.401.154-.83.231-1.288.231-.784 0-1.372-.18-1.764-.539-.392-.36-.588-.884-.588-1.575v-.084h6.09c.065-.364.098-.695.098-.994 0-.99-.301-1.771-.903-2.345-.602-.574-1.407-.861-2.415-.861-.793 0-1.51.187-2.149.56-.64.373-1.139.891-1.498 1.554-.36.663-.539 1.41-.539 2.24 0 .653.145 1.223.434 1.708.29.485.7.859 1.232 1.12.532.261 1.162.392 1.89.392zm2.688-4.354h-4.788c.168-.653.49-1.167.966-1.54s1.045-.56 1.708-.56c.672 0 1.202.184 1.589.553.387.369.562.884.525 1.547zm5.586 4.354c.523 0 1.006-.086 1.449-.259.443-.173.833-.418 1.169-.735l-.182.91h1.288l2.072-10.388H87.95l-.84 4.242c-.233-.439-.581-.772-1.043-1.001-.462-.229-1.01-.343-1.645-.343-.793 0-1.51.187-2.149.56-.64.373-1.141.891-1.505 1.554-.364.663-.546 1.414-.546 2.254 0 .653.14 1.223.42 1.708.28.485.667.856 1.162 1.113.495.257 1.06.385 1.694.385zm.294-1.176c-.7 0-1.244-.184-1.631-.553-.387-.369-.581-.88-.581-1.533 0-.607.126-1.148.378-1.624.252-.476.597-.847 1.036-1.113.439-.266.933-.399 1.484-.399.71 0 1.255.182 1.638.546.383.364.574.877.574 1.54 0 .607-.124 1.148-.371 1.624-.247.476-.593.847-1.036 1.113-.443.266-.94.399-1.491.399zm12.964 1.204c.812 0 1.53-.124 2.156-.371.625-.247 1.113-.6 1.463-1.057.35-.457.525-.999.525-1.624 0-.504-.133-.915-.399-1.232-.266-.317-.588-.558-.966-.721-.378-.163-.875-.338-1.491-.525-.495-.15-.884-.28-1.169-.392-.285-.112-.523-.266-.714-.462-.191-.196-.287-.439-.287-.728 0-.523.238-.94.714-1.253.476-.313 1.115-.469 1.918-.469.504 0 .982.065 1.435.196.453.13.861.327 1.225.588l.56-1.148c-.401-.261-.875-.464-1.421-.609-.546-.145-1.122-.217-1.729-.217-.793 0-1.498.124-2.114.371-.616.247-1.097.6-1.442 1.057-.345.457-.518.994-.518 1.61 0 .541.138.978.413 1.309.275.331.604.581.987.749.383.168.887.345 1.512.532.495.15.877.28 1.148.392.27.112.5.261.686.448.187.187.28.42.28.7 0 .523-.24.931-.721 1.225-.48.294-1.122.441-1.925.441-.607 0-1.195-.1-1.764-.301-.57-.2-1.04-.474-1.414-.819l-.616 1.12c.364.345.884.63 1.561.854.677.224 1.379.336 2.107.336zm9.03-.028c.579 0 1.13-.093 1.652-.28.523-.187.966-.448 1.33-.784l-.574-.966c-.27.261-.607.469-1.008.623-.401.154-.83.231-1.288.231-.784 0-1.372-.18-1.764-.539-.392-.36-.588-.884-.588-1.575v-.084h6.09c.065-.364.098-.695.098-.994 0-.99-.301-1.771-.903-2.345-.602-.574-1.407-.861-2.415-.861-.793 0-1.51.187-2.149.56-.64.373-1.139.891-1.498 1.554-.36.663-.539 1.41-.539 2.24 0 .653.145 1.223.434 1.708.29.485.7.859 1.232 1.12.532.261 1.162.392 1.89.392zm2.688-4.354h-4.788c.168-.653.49-1.167.966-1.54s1.045-.56 1.708-.56c.672 0 1.202.184 1.589.553.387.369.562.884.525 1.547zm3.668 4.27l2.072-10.388h-1.344L110.798 17h1.344zm3.906 0l2.072-10.388h-1.344L114.704 17h1.344zm6.104.084c.579 0 1.13-.093 1.652-.28.523-.187.966-.448 1.33-.784l-.574-.966c-.27.261-.607.469-1.008.623-.401.154-.83.231-1.288.231-.784 0-1.372-.18-1.764-.539-.392-.36-.588-.884-.588-1.575v-.084h6.09c.065-.364.098-.695.098-.994 0-.99-.301-1.771-.903-2.345-.602-.574-1.407-.861-2.415-.861-.793 0-1.51.187-2.149.56-.64.373-1.139.891-1.498 1.554-.36.663-.539 1.41-.539 2.24 0 .653.145 1.223.434 1.708.29.485.7.859 1.232 1.12.532.261 1.162.392 1.89.392zm2.688-4.354h-4.788c.168-.653.49-1.167.966-1.54s1.045-.56 1.708-.56c.672 0 1.202.184 1.589.553.387.369.562.884.525 1.547zm3.668 4.27l.742-3.71c.327-1.661 1.26-2.492 2.8-2.492.15 0 .266.005.35.014l.252-1.302c-.681 0-1.26.093-1.736.28-.476.187-.877.485-1.204.896l.21-1.106h-1.288l-1.47 7.42h1.344z"/>
    </g>
</svg>
