<svg xmlns="http://www.w3.org/2000/svg" xmlns:xlink="http://www.w3.org/1999/xlink" width="26" height="26" viewBox="0 0 26 26">
    <defs>
        <path id="ccyj646r2a" d="M21.533 5.796c.015.209.015.418.015.627 0 6.375-4.949 13.72-13.995 13.72-2.786 0-5.375-.791-7.553-2.164.396.044.777.06 1.188.06 2.3 0 4.416-.762 6.106-2.061-2.162-.045-3.974-1.433-4.599-3.344.305.044.61.074.93.074.441 0 .883-.06 1.294-.164C2.665 12.096.975 10.155.975 7.811v-.06c.654.359 1.416.583 2.223.613-1.325-.866-2.193-2.344-2.193-4.016 0-.896.244-1.717.67-2.434C4.096 4.84 7.736 6.751 11.817 6.96c-.076-.358-.122-.731-.122-1.105 0-2.657 2.193-4.822 4.92-4.822 1.415 0 2.695.582 3.593 1.523 1.112-.209 2.178-.612 3.122-1.165-.366 1.12-1.142 2.06-2.163 2.658.99-.104 1.95-.373 2.833-.746-.67.955-1.508 1.806-2.467 2.493z"/>
    </defs>
    <g fill="none" fill-rule="evenodd" transform="translate(1 3)">
        <use fill="#777" fill-rule="nonzero" xlink:href="#ccyj646r2a"/>
    </g>
</svg>
