<svg xmlns="http://www.w3.org/2000/svg" width="26" height="26" viewBox="0 0 26 26">
    <g fill="none">
        <g fill="#C42126">
            <path d="M.05 12.016H21.937V13.016H.05zM1.19 6.041H20.796000000000003V7.041H1.19zM.41 8.032H21.575V9.032H.41zM4.725 20.01L17.261 20.01 17.261 20.009 4.724 20.009zM10.992.062c-.215 0-.43.016-.642.043h1.285c-.212-.027-.427-.043-.643-.043zM.045 10.024H21.939V11.024H.045z" transform="translate(2 2)"/>
        </g>
        <path fill="#E7E7E7" d="M14.241 4.05h5.25c-.624-.757-1.349-1.426-2.151-1.992h-3.942c.326.571.607 1.246.843 1.991z" transform="translate(2 2)"/>
        <path fill="#DC3027" d="M13.398 2.058h3.942C15.71.908 13.754.188 11.635.066h-.338c.997.125 1.455.86 2.101 1.992z" transform="translate(2 2)"/>
        <path fill="#E7E7E7" d="M21.575 8.032c-.195-.694-.457-1.36-.78-1.99h-6.038c.122.639.219 1.306.29 1.99h6.528z" transform="translate(2 2)"/>
        <path fill="#DC3027" d="M14.417 6.04h6.378c-.363-.711-.8-1.38-1.305-1.99H13.92c.196.619.363 1.287.498 1.99z" transform="translate(2 2)"/>
        <path fill="#E7E7E7" d="M15.278 12.016h6.657c.032-.337.05-.678.05-1.023 0-.327-.017-.65-.045-.969h-6.66c.022.663.021 1.33-.002 1.992z" transform="translate(2 2)"/>
        <path fill="#DC3027" d="M21.94 10.024c-.06-.684-.184-1.35-.365-1.991h-6.808c.068.652.113 1.32.135 1.991h7.038z" transform="translate(2 2)"/>
        <path fill="#E7E7E7" d="M14.642 16h6.125c.326-.631.593-1.298.792-1.992h-6.621c-.073.685-.172 1.352-.296 1.991z" transform="translate(2 2)"/>
        <path fill="#DC3027" d="M21.56 14.008c.184-.642.312-1.308.376-1.992H15.07c-.024.673-.07 1.34-.14 1.992h6.628z" transform="translate(2 2)"/>
        <path fill="#E7E7E7" d="M17.261 19.982c.815-.564 1.55-1.234 2.183-1.99h-5.158c-.24.748-.527 1.421-.859 1.99h3.834z" transform="translate(2 2)"/>
        <g fill="#DC3027">
            <path d="M3.603 2h5.351c.511-.612.954-1.28 1.323-1.992h-6.17c-.137.705-.305 1.373-.504 1.991zM.138 5.968l-.1-.005.1.005zM.503 5.947c2.33 0 4.49-.724 6.268-1.956H2.793C2.087 5.203 1.62 5.947.503 5.947z" transform="translate(2 2) translate(10.49 15.992)"/>
        </g>
        <path fill="#C42126" d="M10.992 21.97c-.133 0-.266-.006-.398-.017.134.01.266.017.398.017z" transform="translate(2 2)"/>
        <path fill="#F3F4F5" d="M13.762 2.058H4.646c-.803.566-1.528 1.235-2.151 1.991h12.11c-.237-.745-.517-1.42-.843-1.991z" transform="translate(2 2)"/>
        <path fill="#E73625" d="M4.646 2.058h9.116C13.116.926 12.294.19 11.297.066h-.947C8.23.188 6.275.908 4.646 2.058z" transform="translate(2 2)"/>
        <path fill="#F3F4F5" d="M.41 8.032h14.984c-.072-.684-.168-1.351-.29-1.99H1.19c-.322.63-.584 1.296-.78 1.99z" transform="translate(2 2)"/>
        <path fill="#E73625" d="M2.495 4.05c-.505.61-.942 1.279-1.305 1.99h13.913c-.135-.703-.301-1.371-.498-1.99H2.495z" transform="translate(2 2)"/>
        <path fill="#F3F4F5" d="M0 10.993c0 .345.018.686.05 1.023h15.478c.023-.662.023-1.33.002-1.991H.045c-.028.319-.045.641-.045.968z" transform="translate(2 2)"/>
        <path fill="#E73625" d="M.045 10.024H15.53c-.022-.672-.067-1.339-.135-1.991H.41C.23 8.675.105 9.34.045 10.024z" transform="translate(2 2)"/>
        <path fill="#F3F4F5" d="M15.388 14.008H.426c.2.694.466 1.36.792 1.991h13.874c.125-.639.223-1.306.296-1.991z" transform="translate(2 2)"/>
        <path fill="#E73625" d="M.426 14.008h14.962c.07-.652.117-1.32.14-1.992H.05c.063.685.192 1.35.376 1.992z" transform="translate(2 2)"/>
        <path fill="#F3F4F5" d="M4.724 19.982h9.005c.332-.57.618-1.242.859-1.99H2.54c.634.756 1.368 1.426 2.183 1.99z" transform="translate(2 2)"/>
        <g fill="#E73625">
            <path d="M.012.008C.38.72.824 1.388 1.335 1.999H13.38c.199-.618.368-1.286.504-1.991H.012zM9.32 5.937l.067.002c.133.005.265.008.399.008 1.118 0 2.03-.744 2.735-1.956H3.518c1.659 1.15 3.65 1.857 5.803 1.946z" transform="translate(2 2) translate(1.207 15.992)"/>
        </g>
        <path fill="#283991" d="M10.765.052C5.132.166.541 4.497.047 10.006h10.718V.052z" transform="translate(2 2)"/>
        <g fill="#EFEFEF">
            <path d="M1.875 5.462L2.042 5.976 2.585 5.976 2.146 6.293 2.313 6.807 1.875 6.49 1.436 6.807 1.603 6.293 1.165 5.976 1.707 5.976zM1.875 7.277L2.042 7.79 2.585 7.79 2.146 8.108 2.313 8.622 1.875 8.304 1.436 8.622 1.603 8.108 1.165 7.79 1.707 7.79zM3.697 2.741L3.864 3.254 4.407 3.254 3.968 3.572 4.135 4.085 3.697 3.768 3.258 4.085 3.425 3.572 2.986 3.254 3.529 3.254zM3.697 4.555L3.864 5.069 4.407 5.069 3.968 5.386 4.135 5.9 3.697 5.583 3.258 5.9 3.425 5.386 2.986 5.069 3.529 5.069zM3.697 6.369L3.864 6.883 4.407 6.883 3.968 7.2 4.135 7.714 3.697 7.397 3.258 7.714 3.425 7.2 2.986 6.883 3.529 6.883zM.491 7.714L.324 7.2l.438-.317H.22l-.012-.037c-.06.183-.113.369-.163.556l.008-.005.438.317zM1.436 4.993l.439-.318.438.318-.167-.514.439-.318h-.543l-.167-.513-.168.513h-.2l-.11.17.206.148-.167.514zM3.697 1.954l.438.317-.167-.513.438-.318h-.313c-.266.198-.523.408-.77.629l-.065.202.439-.317zM5.08 1.364l.439-.318.438.318L5.79.85l.439-.317h-.543l-.023-.07c-.183.094-.365.191-.543.295l.127.092-.167.514zM5.519 1.834L5.686 2.347 6.229 2.347 5.79 2.665 5.957 3.178 5.519 2.861 5.08 3.178 5.248 2.665 4.809 2.347 5.351 2.347zM5.519 3.648L5.686 4.161 6.229 4.161 5.79 4.479 5.957 4.993 5.519 4.675 5.08 4.993 5.248 4.479 4.809 4.161 5.351 4.161zM5.519 5.462L5.686 5.976 6.229 5.976 5.79 6.293 5.957 6.807 5.519 6.49 5.08 6.807 5.248 6.293 4.809 5.976 5.351 5.976zM5.519 7.277L5.686 7.79 6.229 7.79 5.79 8.108 5.957 8.622 5.519 8.304 5.08 8.622 5.248 8.108 4.809 7.79 5.351 7.79zM7.341.926L7.508 1.44 8.051 1.44 7.612 1.758 7.78 2.271 7.341 1.954 6.902 2.271 7.07 1.758 6.631 1.44 7.173 1.44zM7.341 2.741L7.508 3.254 8.051 3.254 7.612 3.572 7.78 4.085 7.341 3.768 6.902 4.085 7.07 3.572 6.631 3.254 7.173 3.254zM7.341 4.555L7.508 5.069 8.051 5.069 7.612 5.386 7.78 5.9 7.341 5.583 6.902 5.9 7.07 5.386 6.631 5.069 7.173 5.069zM7.341 6.369L7.508 6.883 8.051 6.883 7.612 7.2 7.78 7.714 7.341 7.397 6.902 7.714 7.07 7.2 6.631 6.883 7.173 6.883zM9.163.019L9.331.533 9.873.533 9.434.85 9.602 1.364 9.163 1.046 8.724 1.364 8.892.85 8.453.533 8.995.533zM9.163 1.834L9.331 2.347 9.873 2.347 9.434 2.665 9.602 3.178 9.163 2.861 8.724 3.178 8.892 2.665 8.453 2.347 8.995 2.347zM9.163 3.648L9.331 4.161 9.873 4.161 9.434 4.479 9.602 4.993 9.163 4.675 8.724 4.993 8.892 4.479 8.453 4.161 8.995 4.161zM9.163 5.462L9.331 5.976 9.873 5.976 9.434 6.293 9.602 6.807 9.163 6.49 8.724 6.807 8.892 6.293 8.453 5.976 8.995 5.976zM9.163 7.277L9.331 7.79 9.873 7.79 9.434 8.108 9.602 8.622 9.163 8.304 8.724 8.622 8.892 8.108 8.453 7.79 8.995 7.79z" transform="translate(2 2) translate(.325 .786)"/>
        </g>
    </g>
</svg>
