<svg xmlns="http://www.w3.org/2000/svg" width="201" height="47" viewBox="0 0 201 47">
    <g fill="none" fill-rule="evenodd">
        <path fill="#36C747" d="M0 9.868C10.418 3.222 27.722 0 51.672 0c36.045 0 39.278 11.278 71.91 14.702 15.328 1.611 39.996.067 73.885-4.632L175.374 28.53 201 35.58c-26.345 7.787-52.091 11.614-77.538 11.412-38.14-.402-63.348-11.48-76.88-12.956C24.49 31.619 8.863 35.916 0 46.992V9.868z"/>
        <g fill="#FFF" fill-rule="nonzero">
            <path d="M4.906 20.267C3.35 15.4 1.735 10.667.179 5.933c.659-.266 1.376-.6 2.035-.866C2.99 7.4 3.709 9.8 4.487 12.2c.598 1.933 1.137 3.733 1.555 5.533h.06c.419-2 1.017-4.266 1.675-6.533.838-2.933 1.616-5.8 2.453-8.667.658-.2 1.316-.333 1.974-.466C10.47 7.867 8.734 13.667 7 19.6c-.718.2-1.436.4-2.094.667zM15.794 12.067c.06 2.866 1.675 3.733 3.59 3.533 1.375-.133 2.153-.467 2.871-.867.12.467.24 1 .3 1.467-.659.4-1.796.867-3.47 1.067-3.231.4-5.146-1.534-5.146-5.067 0-3.467 1.855-6.667 4.906-7.067 3.41-.4 4.307 2.934 4.307 5.067 0 .4-.06.8-.06 1-2.452.133-4.845.467-7.298.867zM21.358 9.8c0-1.333-.479-3.4-2.633-3.133-1.914.266-2.752 2.4-2.931 3.866 1.854-.266 3.71-.533 5.564-.733zM26.622 8.467c0-1.4 0-2.534-.06-3.6h1.676c0 .733.06 1.533.06 2.266h.06C28.835 5.6 29.971 4.6 31.227 4.6c.24 0 .36 0 .54.067v2c-.18-.067-.36-.067-.659-.067-1.316 0-2.273 1.133-2.512 2.667-.06.266-.06.6-.06 1v6.2h-1.855c-.06-2.667-.06-5.334-.06-8zM36.852 1.867c0 .733-.478 1.266-1.196 1.2-.658-.067-1.137-.667-1.137-1.334 0-.733.479-1.266 1.197-1.266.658 0 1.136.666 1.136 1.4zM34.7 16.6V5c.658.067 1.256.067 1.914.133v11.6c-.658-.066-1.256-.133-1.914-.133zM41.04 17.133v-10C40.562 7.067 40.083 7 39.604 7V5.4c.479.067.958.133 1.436.133v-.6c0-3.066 1.615-4.866 4.547-4.466.957.133 2.094.666 2.632 1.2-.18.533-.359 1-.538 1.533-.479-.4-1.257-.867-2.214-1-1.974-.267-2.572 1.2-2.572 3.067v.6c2.034.266 4.008.533 6.042.866v11.6c-.598-.133-1.256-.2-1.854-.266v-10c-1.376-.2-2.812-.4-4.188-.6v10c-.598-.2-1.257-.267-1.855-.334zM54.202 13.733c.06 2.867 1.675 4.334 3.59 4.734 1.375.266 2.153.2 2.87 0 .12.533.24 1.066.3 1.6-.658.2-1.795.333-3.47 0-3.23-.667-5.145-3.334-5.145-6.8 0-3.534 1.855-5.934 4.906-5.334 3.41.667 4.307 4.2 4.307 6.334 0 .4-.06.733-.06 1-2.393-.6-4.845-1.067-7.298-1.534zm5.564-.4c0-1.333-.48-3.533-2.633-3.933-1.914-.4-2.752 1.467-2.931 2.867 1.914.333 3.709.666 5.564 1.066zM74.064 6.267v14.066c0 1 0 2.2.06 3-.539-.133-1.137-.266-1.676-.333 0-.667-.06-1.333-.06-2.067h-.06c-.597 1.2-1.854 1.867-3.529 1.534-2.513-.534-4.487-3.334-4.487-6.867 0-3.867 2.154-5.8 4.667-5.2 1.615.333 2.692 1.4 3.17 2.467h.06V5.933c.539.067 1.197.2 1.855.334zM72.149 16c0-.267 0-.6-.06-.933-.299-1.4-1.316-2.734-2.751-3.067-1.975-.4-3.111 1.267-3.111 3.8 0 2.333 1.017 4.533 3.05 4.933 1.257.267 2.454-.4 2.753-1.933.06-.267.06-.533.06-.867.06-.6.06-1.266.06-1.933zM83.696 22.667c.837.733 2.094 1.4 3.35 1.666 1.914.334 3.05-.666 3.05-2.266 0-1.534-.777-2.467-2.751-3.667-2.393-1.333-3.829-3-3.829-5.267 0-2.533 1.855-4.066 4.667-3.6 1.495.267 2.572.8 3.23 1.267l-.538 1.6c-.479-.333-1.436-1-2.752-1.2-1.975-.333-2.752.867-2.752 1.933 0 1.534.897 2.4 2.871 3.6 2.453 1.467 3.71 2.934 3.71 5.334 0 2.466-1.676 4.466-5.086 3.866-1.376-.266-2.931-1-3.709-1.666.24-.467.419-1 .539-1.6zM96.678 21.733c.06 2.867 1.675 4.2 3.59 4.334 1.375.133 2.153-.134 2.87-.4.12.533.24 1 .3 1.533-.658.333-1.795.6-3.47.533-3.23-.266-5.145-2.866-5.145-6.333 0-3.533 1.855-6 4.906-5.8 3.41.267 4.307 3.6 4.307 5.733 0 .4-.06.734-.06 1-2.452-.133-4.905-.333-7.298-.6zm5.504-1.066c0-1.334-.479-3.467-2.633-3.6-1.914-.134-2.752 1.733-2.931 3.133 1.914.2 3.769.333 5.564.467zM107.446 10.733h1.915V27.8h-1.915V10.733zM113.608 10.533c.658-.066 1.257-.066 1.915-.133v17.067c-.658.066-1.257.133-1.915.133V10.533zM120.847 21.333c.06 2.867 1.675 3.734 3.59 3.334 1.376-.267 2.153-.8 2.871-1.267.12.467.24.933.3 1.4-.659.533-1.795 1.2-3.47 1.533-3.231.667-5.145-1.466-5.145-4.933 0-3.533 1.854-6.467 4.905-7.133 3.41-.734 4.308 2.266 4.308 4.4 0 .4-.06.8-.06 1-2.453.733-4.846 1.266-7.299 1.666zm5.564-2.666c0-1.334-.479-3.267-2.632-2.8-1.915.4-2.752 2.466-2.932 4 1.855-.334 3.71-.734 5.564-1.2zM131.676 16.067c0-1.4 0-2.534-.06-3.6.538-.2 1.077-.4 1.675-.6 0 .733.06 1.533.06 2.266h.06c.478-1.733 1.615-3.133 2.871-3.666.24-.067.359-.134.539-.134v2c-.18.067-.36.067-.659.2-1.316.534-2.273 2.067-2.512 3.734-.06.333-.06.666-.06 1v6.2c-.598.2-1.256.466-1.855.666-.06-2.733-.06-5.4-.06-8.066z" transform="translate(16 9)"/>
        </g>
    </g>
</svg>
