<svg xmlns="http://www.w3.org/2000/svg" width="94" height="31" viewBox="0 0 94 31">
    <g fill="none">
        <path fill="#2394BC" d="M37.84.073l-4.645 28.913h7.426L45.265.073H37.84zm22.402 11.778c-2.595-1.282-4.186-2.147-4.186-3.458.031-1.192 1.345-2.413 4.278-2.413 2.413-.06 4.187.507 5.532 1.071l.674.3 1.01-6.048C66.082.736 63.756.11 60.883.11c-7.334 0-12.498 3.813-12.53 9.266-.06 4.025 3.697 6.258 6.51 7.597 2.872 1.375 3.85 2.266 3.85 3.486-.031 1.875-2.323 2.74-4.46 2.74-2.963 0-4.554-.445-6.97-1.49l-.978-.445-1.038 6.286c1.744.776 4.952 1.458 8.282 1.493 7.794 0 12.866-3.755 12.93-9.567.025-3.188-1.957-5.63-6.238-7.626zM86.588.162h-5.745c-1.77 0-3.116.51-3.883 2.327L65.93 28.986h7.794l2.146-5.737h8.72l1.114 5.76h6.874L86.588.162zM78.031 17.46c.15.014 2.991-9.365 2.991-9.365l2.263 9.365H78.03zM26.989.073l-7.276 19.644-.792-3.874c-1.346-4.47-5.564-9.327-10.27-11.74l6.662 24.854h7.858L34.847.077h-7.858V.072z" transform="translate(.91 .786)"/>
        <path fill="#EFC75E" d="M16.473 3.802C15.906 1.597 14.098.11 11.642.079H.119L0 .614C8.989 2.83 16.534 9.648 18.981 16.062l-2.508-12.26z" transform="translate(.91 .786)"/>
    </g>
</svg>
