<svg xmlns="http://www.w3.org/2000/svg" xmlns:xlink="http://www.w3.org/1999/xlink" width="26" height="26" viewBox="0 0 26 26">
    <defs>
        <path id="4dlwwieuka" d="M22.902 2.62C22.641 1.698 21.87.972 20.89.725 19.116.277 12 .277 12 .277s-7.116 0-8.89.448c-.98.247-1.75.973-2.012 1.895C.622 4.292.622 7.78.622 7.78s0 3.488.476 5.16c.261.922 1.032 1.618 2.012 1.864 1.774.448 8.89.448 8.89.448s7.116 0 8.89-.448c.98-.246 1.75-.942 2.012-1.865.476-1.671.476-5.16.476-5.16s0-3.487-.476-5.159zm-13.23 8.326V4.613L15.62 7.78l-5.947 3.166z"/>
    </defs>
    <g fill="none" fill-rule="evenodd" transform="translate(1 5)">
        <use fill="#777" fill-rule="nonzero" xlink:href="#4dlwwieuka"/>
    </g>
</svg>
